<?xml version="1.0" encoding="UTF-8" standalone="no"?>
<!-- Created with Inkscape (http://www.inkscape.org/) -->

<svg
   xmlns:dc="http://purl.org/dc/elements/1.1/"
   xmlns:cc="http://creativecommons.org/ns#"
   xmlns:rdf="http://www.w3.org/1999/02/22-rdf-syntax-ns#"
   xmlns:svg="http://www.w3.org/2000/svg"
   xmlns="http://www.w3.org/2000/svg"
   xmlns:xlink="http://www.w3.org/1999/xlink"
   xmlns:sodipodi="http://sodipodi.sourceforge.net/DTD/sodipodi-0.dtd"
   xmlns:inkscape="http://www.inkscape.org/namespaces/inkscape"
   width="96.642998"
   height="96.642998"
   viewBox="0 0 96.642988 96.643002"
   id="svg5143"
   version="1.1"
   inkscape:version="0.91 r13725"
   sodipodi:docname="logo10.svg">
  <defs
     id="defs5145">
    <clipPath
       clipPathUnits="userSpaceOnUse"
       id="clipPath570">
      <path
         d="m 411.207,5010.83 c -20.453,47.96 -20.769,87.48 -4.543,116.04 5.578,9.61 13.82,21.91 19.828,31.28 l 1.953,2.76 c -20.691,-29.02 -22.199,-71.27 0.035,-123.5 43.516,-102.16 165.098,-212.18 297.75,-277.71 11.696,-5.8 23.465,-11.24 35.293,-16.29 l -1.55,-2.19 c -5.739,-8.22 -11.461,-16.07 -17.157,-23.57 -56.261,24.05 -111.625,56.78 -161.086,94.31 l 0.172,0.27 c -78.293,59.37 -141.781,130.73 -170.695,198.6 z"
         id="path572"
         inkscape:connector-curvature="0" />
    </clipPath>
    <linearGradient
       x1="0"
       y1="0"
       x2="1"
       y2="0"
       gradientUnits="userSpaceOnUse"
       gradientTransform="matrix(82.0871,-131.01,135.351,85.5351,412.632,5150.9)"
       spreadMethod="pad"
       id="linearGradient574">
      <stop
         style="stop-opacity:1;stop-color:#ff8183"
         offset="0"
         id="stop576" />
      <stop
         style="stop-opacity:1;stop-color:#ff1e28"
         offset="1"
         id="stop578" />
    </linearGradient>
    <clipPath
       clipPathUnits="userSpaceOnUse"
       id="clipPath592">
      <path
         d="m 931.047,4656.9 0.203,0.19 c 29.219,4.19 52.355,14.46 68.352,30.03 l -12.301,-11.5 c -15.746,-14.1 -37.793,-23.44 -65.223,-27.36 3.02,2.8 6.024,5.68 8.969,8.64 z"
         id="path594"
         inkscape:connector-curvature="0" />
    </clipPath>
    <linearGradient
       x1="0"
       y1="0"
       x2="1"
       y2="0"
       gradientUnits="userSpaceOnUse"
       gradientTransform="matrix(-76.8962,-1.27048,-1.27048,-76.0037,999.287,4668.32)"
       spreadMethod="pad"
       id="linearGradient596">
      <stop
         style="stop-opacity:1;stop-color:#c9e757"
         offset="0"
         id="stop598" />
      <stop
         style="stop-opacity:1;stop-color:#c9e757"
         offset="0.00063959"
         id="stop600" />
      <stop
         style="stop-opacity:1;stop-color:#7cab12"
         offset="1"
         id="stop602" />
    </linearGradient>
    <clipPath
       clipPathUnits="userSpaceOnUse"
       id="clipPath410">
      <path
         d="m 4980.59,4583.3 c -1.01,0 -2.05,0 -3.06,0.01 -112.17,0.92 -212.15,51.94 -279.05,131.6 1.8,-1.88 3.64,-3.76 5.51,-5.62 64.57,-64.29 142.03,-71.08 224.59,-71.08 11.05,0 22.18,0.12 33.39,0.24 11.21,0.13 22.5,0.25 33.83,0.25 45.7,0 92.27,-1.98 138.5,-13.88 l -14.12,-14.11 c -43.07,-17.68 -90.2,-27.41 -139.59,-27.41"
         id="path412"
         inkscape:connector-curvature="0" />
    </clipPath>
    <linearGradient
       x1="0"
       y1="0"
       x2="1"
       y2="0"
       gradientUnits="userSpaceOnUse"
       gradientTransform="matrix(-401.905,-401.905,401.905,-401.905,4768.13,4748.66)"
       spreadMethod="pad"
       id="linearGradient414">
      <stop
         style="stop-opacity:1;stop-color:#a59d8b"
         offset="0"
         id="stop416" />
      <stop
         style="stop-opacity:1;stop-color:#b7b0a0"
         offset="0.85147689"
         id="stop418" />
      <stop
         style="stop-opacity:1;stop-color:#b7b0a0"
         offset="1"
         id="stop420" />
    </linearGradient>
    <clipPath
       clipPathUnits="userSpaceOnUse"
       id="clipPath428">
      <path
         d="m 4637.51,4813.24 c -39.54,97.16 -37.32,210.09 14.31,309.1 l 62.9,62.89 c 0,0 -138.47,-196.43 -77.21,-371.87 0,-0.04 0,-0.08 0,-0.12"
         id="path430"
         inkscape:connector-curvature="0" />
    </clipPath>
    <clipPath
       clipPathUnits="userSpaceOnUse"
       id="clipPath130">
      <path
         d="m 1791.77,3712.35 1.63,2.54 -1.63,-2.54 z"
         id="path132"
         inkscape:connector-curvature="0" />
    </clipPath>
    <linearGradient
       x1="0"
       y1="0"
       x2="1"
       y2="0"
       gradientUnits="userSpaceOnUse"
       gradientTransform="matrix(-285.051,1062.33,1062.33,285.051,1985.15,2995.95)"
       spreadMethod="pad"
       id="linearGradient134">
      <stop
         style="stop-opacity:1;stop-color:#00bfbb"
         offset="0"
         id="stop136" />
      <stop
         style="stop-opacity:1;stop-color:#006fa2"
         offset="0.99991001"
         id="stop138" />
      <stop
         style="stop-opacity:1;stop-color:#006fa2"
         offset="1"
         id="stop140" />
    </linearGradient>
    <clipPath
       clipPathUnits="userSpaceOnUse"
       id="clipPath1072">
      <path
         d="m 364.637,2225.04 c 1.593,4.92 5.129,8.73 11.246,11.25 l -11.246,-11.25"
         id="path1074"
         inkscape:connector-curvature="0" />
    </clipPath>
    <linearGradient
       x1="0"
       y1="0"
       x2="1"
       y2="0"
       gradientUnits="userSpaceOnUse"
       gradientTransform="matrix(-403.333,-403.333,-403.333,403.333,468.306,1856.25)"
       spreadMethod="pad"
       id="linearGradient1076">
      <stop
         style="stop-opacity:1;stop-color:#e1ded8"
         offset="0"
         id="stop1078" />
      <stop
         style="stop-opacity:1;stop-color:#f4f1ed"
         offset="0.85147689"
         id="stop1080" />
      <stop
         style="stop-opacity:1;stop-color:#f4f1ed"
         offset="1"
         id="stop1082" />
    </linearGradient>
    <clipPath
       clipPathUnits="userSpaceOnUse"
       id="clipPath874">
      <path
         d="m 2342.85,1771.98 c -0.03,0.08 -0.06,0.16 -0.09,0.25 9.86,7.59 19.33,15.65 28.38,24.16 3.94,1.53 7.87,3.05 11.91,4.68 l -20.45,-20.44 c -6.82,-3.18 -13.77,-6.25 -19.75,-8.65 m -549.37,496.32 c 0.34,1.66 0.75,3.47 1.17,5.2 l 6.12,6.12 c -2.5,-3.73 -4.93,-7.5 -7.29,-11.32"
         id="path876"
         inkscape:connector-curvature="0" />
    </clipPath>
    <linearGradient
       x1="0"
       y1="0"
       x2="1"
       y2="0"
       gradientUnits="userSpaceOnUse"
       gradientTransform="matrix(-425.793,-425.793,-425.793,425.793,1925.35,1873.77)"
       spreadMethod="pad"
       id="linearGradient878">
      <stop
         style="stop-opacity:1;stop-color:#e1ded8"
         offset="0"
         id="stop880" />
      <stop
         style="stop-opacity:1;stop-color:#f4f1ed"
         offset="0.85147689"
         id="stop882" />
      <stop
         style="stop-opacity:1;stop-color:#f4f1ed"
         offset="1"
         id="stop884" />
    </linearGradient>
    <clipPath
       clipPathUnits="userSpaceOnUse"
       id="clipPath892">
      <path
         d="m 1743.8,2140.32 c 1.13,8.04 2.57,16.8 3.91,23.78 -2.3,-1.1 -5.59,-2.35 -8.15,-2.86 4.87,9.54 12.09,21.86 17.91,30.98 -5.75,-16.8 -10.33,-34.13 -13.67,-51.9"
         id="path894"
         inkscape:connector-curvature="0" />
    </clipPath>
    <linearGradient
       x1="0"
       y1="0"
       x2="1"
       y2="0"
       gradientUnits="userSpaceOnUse"
       gradientTransform="matrix(-425.793,-425.793,-425.793,425.793,1925.35,1873.77)"
       spreadMethod="pad"
       id="linearGradient896">
      <stop
         style="stop-opacity:1;stop-color:#5b4738"
         offset="0"
         id="stop898" />
      <stop
         style="stop-opacity:1;stop-color:#6d5a4c"
         offset="0.85147689"
         id="stop900" />
      <stop
         style="stop-opacity:1;stop-color:#6d5a4c"
         offset="1"
         id="stop902" />
    </linearGradient>
    <clipPath
       clipPathUnits="userSpaceOnUse"
       id="clipPath910">
      <path
         d="m 1783.82,2252.76 c -1.68,1.26 -3.47,2.96 -5.12,4.79 l 15.95,15.95 c -0.42,-1.73 -0.83,-3.54 -1.17,-5.2 -2.75,-4.44 -5.41,-8.95 -7.98,-13.51 -0.6,-0.7 -1.16,-1.39 -1.68,-2.03"
         id="path912"
         inkscape:connector-curvature="0" />
    </clipPath>
    <clipPath
       clipPathUnits="userSpaceOnUse"
       id="clipPath928">
      <path
         d="m 1742.5,2191.63 c 2.7,8.06 6.75,18.63 10,26.4 -0.98,3.06 -1.43,7.36 -1.55,10.62 3.82,2.72 9.34,5.77 13.56,7.85 5.29,3.59 11.68,9.36 17.22,12.53 0.03,-0.28 0.07,-0.58 0.11,-0.89 -4.72,-8.79 -9.1,-17.79 -13.12,-26.98 -2.94,-1.52 -5.92,-2.99 -8.5,-4.18 -5.88,-7.2 -12.97,-17.4 -17.72,-25.35"
         id="path930"
         inkscape:connector-curvature="0" />
    </clipPath>
    <clipPath
       clipPathUnits="userSpaceOnUse"
       id="clipPath946">
      <path
         d="m 2262.59,1724.99 c 28.75,12.44 55.66,28.36 80.17,47.24 0.03,-0.09 0.06,-0.17 0.09,-0.25 5.98,2.4 12.93,5.47 19.75,8.65 l -13.45,-13.46 c -2.44,-1.68 -4.8,-3.29 -7.03,-4.79 -1.39,-2.08 -3.43,-4.82 -5.21,-6.67 l -0.12,-0.07 -4.2,-2.05 c -9.11,-4.42 -20.23,-9.06 -28.98,-12.29 -12.18,-4.86 -27.59,-11.19 -41.02,-16.31"
         id="path948"
         inkscape:connector-curvature="0" />
    </clipPath>
    <linearGradient
       inkscape:collect="always"
       xlink:href="#linearGradient896"
       id="linearGradient6582"
       gradientUnits="userSpaceOnUse"
       gradientTransform="matrix(-425.793,-425.793,-425.793,425.793,1925.35,1873.77)"
       spreadMethod="pad"
       x1="0"
       y1="0"
       x2="1"
       y2="0" />
    <linearGradient
       inkscape:collect="always"
       xlink:href="#linearGradient896"
       id="linearGradient6584"
       gradientUnits="userSpaceOnUse"
       gradientTransform="matrix(-425.793,-425.793,-425.793,425.793,1925.35,1873.77)"
       spreadMethod="pad"
       x1="0"
       y1="0"
       x2="1"
       y2="0" />
    <linearGradient
       inkscape:collect="always"
       xlink:href="#linearGradient896"
       id="linearGradient6586"
       gradientUnits="userSpaceOnUse"
       gradientTransform="matrix(-425.793,-425.793,-425.793,425.793,1925.35,1873.77)"
       spreadMethod="pad"
       x1="0"
       y1="0"
       x2="1"
       y2="0" />
    <linearGradient
       inkscape:collect="always"
       xlink:href="#linearGradient896"
       id="linearGradient6588"
       gradientUnits="userSpaceOnUse"
       gradientTransform="matrix(-425.793,-425.793,-425.793,425.793,1925.35,1873.77)"
       spreadMethod="pad"
       x1="0"
       y1="0"
       x2="1"
       y2="0" />
  </defs>
  <sodipodi:namedview
     id="base"
     pagecolor="#ffffff"
     bordercolor="#666666"
     borderopacity="1.0"
     inkscape:pageopacity="0.0"
     inkscape:pageshadow="2"
     inkscape:zoom="0.98994949"
     inkscape:cx="390.74194"
     inkscape:cy="-64.941041"
     inkscape:document-units="px"
     inkscape:current-layer="layer1"
     showgrid="false"
     units="px"
     inkscape:window-width="1920"
     inkscape:window-height="1015"
     inkscape:window-x="1280"
     inkscape:window-y="0"
     inkscape:window-maximized="1"
     showborder="false"
     showguides="true"
     inkscape:guide-bbox="true">
    <sodipodi:guide
       position="125.2589,357.59402"
       orientation="0,1"
       id="guide6205" />
  </sodipodi:namedview>
  <metadata
     id="metadata5148">
    <rdf:RDF>
      <cc:Work
         rdf:about="">
        <dc:format>image/svg+xml</dc:format>
        <dc:type
           rdf:resource="http://purl.org/dc/dcmitype/StillImage" />
        <dc:title></dc:title>
      </cc:Work>
    </rdf:RDF>
  </metadata>
  <g
     inkscape:label="Layer 1"
     inkscape:groupmode="layer"
     id="layer1"
     transform="translate(0,-955.71916)">
    <g
       transform="matrix(1.2500001,0,0,-1.2500001,-217.36253,1264.9097)"
       id="g4989">
      <path
         d="m 215.057,199.761 -0.32,1.058 c -0.444,1.438 -0.966,3.08 -1.399,4.368 -0.893,-1.157 -2.073,-2.65 -3.061,-3.847 l -0.337,-0.41 c -1.701,0.255 -3.966,0.641 -5.655,0.979 0.934,-1.442 2.171,-3.373 3.097,-4.822 -0.623,-1.217 -1.459,-2.796 -2.149,-4.045 l -0.154,-0.277 c 0.514,0.029 1.081,0.062 1.668,0.1 1.337,0.092 2.779,0.21 3.946,0.343 l 1.089,-0.932 c 0.957,-0.805 2.002,-1.684 2.908,-2.425 l 0.39,-0.319 0.025,0.272 c 0.064,0.631 0.134,1.346 0.198,2.06 0.096,1.03 0.188,2.073 0.258,2.957 1.554,0.906 3.605,2.156 5.118,3.131 -1.692,0.524 -3.943,1.243 -5.622,1.809"
         style="fill:#452d1c;fill-opacity:1;fill-rule:nonzero;stroke:none"
         id="path144"
         inkscape:connector-curvature="0" />
      <path
         d="m 232.722,240.444 0.486,-0.317 c 1.085,-0.712 2.332,-1.568 3.445,-2.367 0.403,-0.285 0.783,-0.566 1.134,-0.828 0.482,-1.289 1.068,-3.027 1.453,-4.345 0.781,0.342 1.826,0.776 2.62,1.078 1.199,-1.045 2.751,-2.492 3.873,-3.633 l 0.023,-0.022 -0.011,0.022 c -0.723,1.44 -1.741,3.32 -2.554,4.706 0.145,0.365 0.323,0.86 0.428,1.243 -0.42,0.353 -0.904,0.743 -1.408,1.129 -0.726,0.563 -1.49,1.123 -2.143,1.567 l -0.783,0.74 c -1.17,1.089 -2.55,2.314 -3.668,3.238 l -0.008,0.004 -0.004,0 c 0.368,-0.753 0.799,-1.789 1.062,-2.588 -1.178,0.167 -2.756,0.319 -3.945,0.373"
         style="fill:#452d1c;fill-opacity:1;fill-rule:nonzero;stroke:none"
         id="path146"
         inkscape:connector-curvature="0" />
      <path
         d="m 207.206,213.792 c -0.29,1.382 -0.708,3.229 -1.065,4.601 1.135,0.847 2.633,2.009 3.738,2.899 -1.703,0.198 -3.977,0.457 -5.681,0.655 -0.91,0.98 -2.163,2.249 -3.147,3.153 -0.479,-0.921 -1.138,-2.134 -1.648,-3.035 -1.483,-0.065 -3.463,-0.121 -4.944,-0.126 1.205,-0.783 2.786,-1.86 3.945,-2.711 -0.184,-1.056 -0.455,-2.463 -0.68,-3.518 1.386,0.241 3.205,1.127 4.598,0.921 1.47,-0.842 3.426,-1.979 4.884,-2.839"
         style="fill:#452d1c;fill-opacity:1;fill-rule:nonzero;stroke:none"
         id="path148"
         inkscape:connector-curvature="0" />
      <path
         d="m 225.474,232.32 -0.104,0.094 c -1.19,1.109 -2.772,2.513 -4.006,3.522 -0.154,-0.886 -0.357,-1.989 -0.563,-2.988 -0.075,-0.364 -0.151,-0.715 -0.219,-1.033 -1.609,-0.379 -3.752,-0.889 -5.357,-1.283 1.535,-0.745 3.553,-1.793 5.037,-2.631 0.024,-0.653 0.045,-1.404 0.054,-2.165 0.017,-0.917 0.019,-1.846 0.012,-2.629 1.209,0.632 2.767,1.458 4.057,2.153 l 0.542,0.293 1.084,-0.483 c 1.416,-0.64 3.016,-1.382 4.274,-1.997 -0.177,0.486 -0.377,1.018 -0.59,1.565 -0.471,1.223 -0.994,2.531 -1.444,3.591 0.831,1.017 1.926,2.385 2.732,3.425 -1.651,0.203 -3.855,0.431 -5.509,0.566"
         style="fill:#452d1c;fill-opacity:1;fill-rule:nonzero;stroke:none"
         id="path150"
         inkscape:connector-curvature="0" />
      <path
         d="m 240.328,202.977 -0.005,1.251 c 0.994,1.084 2.301,2.548 3.263,3.659 -1.235,0.391 -2.894,0.892 -4.141,1.25 -0.601,1.636 -1.444,3.801 -2.115,5.405 -0.645,-1.519 -1.528,-3.528 -2.226,-5.021 -1.623,-0.118 -3.785,-0.275 -5.409,-0.39 1.116,-1.318 2.581,-3.087 3.665,-4.425 l -0.246,-0.886 c -0.437,-1.558 -0.968,-3.38 -1.414,-4.792 1.498,0.707 3.483,1.672 4.96,2.423 1.086,-0.809 2.528,-1.897 3.607,-2.719 0.033,1.257 0.058,2.836 0.061,4.245"
         style="fill:#452d1c;fill-opacity:1;fill-rule:nonzero;stroke:none"
         id="path152"
         inkscape:connector-curvature="0" />
      <path
         d="m 197.123,186.768 c -0.713,-0.758 -1.69,-1.757 -2.447,-2.474 1.537,-0.484 3.77,-0.643 5.176,-1.433 l 0.208,-0.209 c 1.128,-1.125 2.586,-2.518 3.729,-3.546 0.2,0.9 0.444,2.045 0.653,3.032 l 0.125,0.607 c 1.572,0.301 3.66,0.76 5.209,1.153 -1.597,0.771 -3.706,1.845 -5.261,2.697 l -0.887,4.55 -0.056,0.275 -0.333,-0.23 c -1.05,-0.726 -2.353,-1.601 -3.379,-2.231 -1.526,0.747 -3.533,1.797 -5.007,2.647 0.667,-1.458 1.573,-3.396 2.27,-4.838"
         style="fill:#452d1c;fill-opacity:1;fill-rule:nonzero;stroke:none"
         id="path154"
         inkscape:connector-curvature="0" />
      <path
         d="m 195.616,205.17 c 0.609,-0.708 1.329,-1.536 2.046,-2.355 0.613,-0.702 1.223,-1.394 1.752,-1.996 0.02,0.543 0.043,1.156 0.059,1.784 0.033,1.037 0.055,2.12 0.066,3.014 1.149,0.471 2.626,1.116 3.833,1.679 l 0.477,0.228 c -1.542,0.697 -3.582,1.662 -5.097,2.409 -0.539,1.357 -1.292,3.157 -1.899,4.487 -0.7,-0.809 -1.65,-1.882 -2.379,-2.667 -1.313,0.531 -3.04,1.288 -4.305,1.92 0.803,-1.326 1.855,-3.111 2.632,-4.453 l -0.288,-0.654 c -0.369,-0.822 -0.797,-1.757 -1.149,-2.486 1.262,-0.327 3.114,-0.273 4.252,-0.91"
         style="fill:#452d1c;fill-opacity:1;fill-rule:nonzero;stroke:none"
         id="path156"
         inkscape:connector-curvature="0" />
      <path
         d="m 201.007,238.173 c 0.415,-0.614 0.935,-1.456 1.292,-2.103 1.089,0.847 2.344,2.314 3.619,2.854 1.732,0.21 4.048,0.426 5.79,0.531 -0.71,0.468 -1.604,1.026 -2.442,1.507 -0.334,0.192 -0.656,0.374 -0.954,0.529 0.257,0.431 0.554,0.941 0.844,1.447 0.268,0.461 0.528,0.921 0.748,1.327 -0.896,-0.305 -1.95,-0.681 -2.985,-1.065 -0.809,-0.301 -1.602,-0.604 -2.294,-0.879 -1.378,-0.023 -3.222,-0.12 -4.596,-0.273 l -0.007,0 -0.005,-0.005 -0.007,-0.002 0.002,0 c 0.122,-0.613 0.246,-1.44 0.308,-2.06 -1.333,-0.91 -3.1,-2.134 -4.417,-3.069 1.516,0.441 3.557,0.958 5.104,1.261"
         style="fill:#452d1c;fill-opacity:1;fill-rule:nonzero;stroke:none"
         id="path158"
         inkscape:connector-curvature="0" />
      <path
         d="m 222.61,216.416 c -0.86,1.46 -2.041,3.382 -2.968,4.797 -0.632,-1.374 -1.498,-3.199 -2.175,-4.552 -1.712,-0.119 -3.996,-0.266 -5.709,-0.363 1.267,-1.164 2.932,-2.744 4.162,-3.95 -0.373,-1.563 -0.906,-3.634 -1.336,-5.186 1.622,0.546 3.777,1.303 5.385,1.893 1.481,-0.948 3.448,-2.227 4.92,-3.192 -0.163,1.727 -0.418,4.034 -0.646,5.753 1.227,1.098 2.844,2.576 4.04,3.704 -1.698,0.34 -3.97,0.777 -5.673,1.096"
         style="fill:#fbb015;fill-opacity:1;fill-rule:nonzero;stroke:none"
         id="path160"
         inkscape:connector-curvature="0" />
      <path
         d="m 240.044,187.423 c -0.369,-0.126 -0.778,-0.262 -1.199,-0.395 -1.067,-0.346 -2.234,-0.709 -3.181,-0.978 0.551,-0.706 1.309,-1.629 1.896,-2.302 -0.688,-1.093 -1.63,-2.539 -2.363,-3.596 1.297,0.77 2.823,2.24 4.271,2.67 0.675,-0.006 1.574,0.045 2.236,0.147 0.315,0.771 0.711,1.806 0.993,2.583 l 0.854,0.927 c 0.568,0.615 1.168,1.279 1.7,1.885 l 0.468,0.54 c -0.469,-0.132 -1.042,-0.279 -1.594,-0.408 -0.336,-0.075 -0.665,-0.147 -0.957,-0.205 l -0.01,0.318 c -0.027,0.993 -0.077,2.215 -0.129,3.15 -0.577,-0.866 -1.289,-1.918 -1.976,-2.903 -0.35,-0.506 -0.697,-0.999 -1.009,-1.433"
         style="fill:#452d1c;fill-opacity:1;fill-rule:nonzero;stroke:none"
         id="path162"
         inkscape:connector-curvature="0" />
      <path
         d="m 198.628,176.846 c -1.336,0.875 -3.045,2.065 -4.397,3.075 l -0.384,0.288 c -0.178,0.958 -0.39,2.209 -0.555,3.233 l -0.061,0.397 c -0.486,-0.071 -1.052,-0.138 -1.621,-0.2 -0.625,-0.063 -1.254,-0.115 -1.793,-0.137 l -0.45,0.399 c -1.199,1.088 -2.623,2.451 -3.68,3.542 0.362,-0.975 0.835,-2.187 1.285,-3.261 0.144,-0.342 0.283,-0.667 0.417,-0.971 -0.604,-0.135 -1.429,-0.268 -2.046,-0.295 0.932,-0.742 2.174,-1.546 3.261,-2.337 0.398,-0.291 0.774,-0.58 1.107,-0.862 1.039,-1.087 2.481,-2.498 3.61,-3.503 0.165,0.487 0.383,1.133 0.545,1.615 1.417,-0.351 3.324,-0.749 4.762,-0.983"
         style="fill:#452d1c;fill-opacity:1;fill-rule:nonzero;stroke:none"
         id="path164"
         inkscape:connector-curvature="0" />
      <path
         d="m 182.502,220.515 c 0.541,-0.704 1.432,-1.5 1.991,-2.193 0.753,-1.267 1.773,-2.949 2.553,-4.199 -0.091,0.991 -0.235,2.307 -0.376,3.292 0.793,0.011 1.849,0.08 2.634,0.184 -1.106,0.75 -2.559,1.782 -3.622,2.59 -0.497,0.803 -1.2,1.852 -1.774,2.604 -0.24,-0.134 -0.567,-0.305 -0.819,-0.41 -0.655,0.721 -1.469,1.742 -2.002,2.559 0.499,-0.951 1.15,-2.22 1.626,-3.18 -0.054,-0.378 -0.134,-0.873 -0.211,-1.247"
         style="fill:#452d1c;fill-opacity:1;fill-rule:nonzero;stroke:none"
         id="path166"
         inkscape:connector-curvature="0" />
      <path
         d="m 184.2,223.088 c 0.859,-0.157 2.038,-0.128 2.882,-0.34 1.2,-0.565 2.792,-1.344 3.975,-1.947 -0.376,0.757 -0.913,1.746 -1.36,2.461 0.821,0.395 1.903,0.953 2.699,1.4 -1.388,0.041 -3.237,0.1 -4.625,0.135 -0.811,0.293 -1.923,0.62 -2.771,0.779 -0.223,-0.243 -0.525,-0.564 -0.761,-0.79 -0.946,0.018 -2.209,0.067 -3.152,0.156 0.899,-0.19 2.08,-0.519 2.945,-0.822 0.066,-0.308 0.134,-0.721 0.168,-1.032"
         style="fill:#452d1c;fill-opacity:1;fill-rule:nonzero;stroke:none"
         id="path168"
         inkscape:connector-curvature="0" />
      <path
         d="m 184.644,228.581 c 0.236,0.002 0.549,-0.02 0.778,-0.055 0.4,0.36 0.835,0.8 1.282,1.238 0.591,0.579 1.2,1.164 1.768,1.594 1.442,0.852 3.403,1.926 4.906,2.665 -0.81,-0.008 -1.889,-0.076 -2.69,-0.186 0.494,0.722 1.125,1.676 1.613,2.442 l 0.107,0.164 -0.187,-0.155 c -1.337,-1.102 -3.031,-2.544 -4.287,-3.674 -0.993,-0.734 -2.278,-1.774 -3.19,-2.615 l -0.006,-0.002 -0.003,-0.002 -0.006,-0.009 c -0.074,-0.313 -0.181,-0.718 -0.277,-1.022 l -1.398,-1.651 c -0.682,-0.817 -1.386,-1.661 -1.967,-2.371 0.637,0.713 1.434,1.561 2.216,2.342 0.463,0.467 0.924,0.907 1.341,1.297"
         style="fill:#452d1c;fill-opacity:1;fill-rule:nonzero;stroke:none"
         id="path170"
         inkscape:connector-curvature="0" />
      <path
         d="m 185.228,225.956 c 0.576,0.234 1.239,0.578 1.892,0.881 0.463,0.216 0.923,0.415 1.347,0.544 1.435,0.196 3.353,0.4 4.797,0.501 -0.628,0.402 -1.497,0.892 -2.174,1.198 l 0.169,0.152 c 0.707,0.645 1.579,1.47 2.235,2.114 -1.294,-0.538 -2.951,-1.256 -4.325,-1.87 l -0.606,-0.276 c -0.998,-0.256 -2.313,-0.68 -3.265,-1.075 -0.167,-0.303 -0.396,-0.705 -0.581,-1.007 l -0.003,-0.002 c -1.087,-0.649 -2.54,-1.521 -3.627,-2.174 1.056,0.543 2.502,1.19 3.615,1.596 0.172,-0.161 0.386,-0.394 0.526,-0.582"
         style="fill:#452d1c;fill-opacity:1;fill-rule:nonzero;stroke:none"
         id="path172"
         inkscape:connector-curvature="0" />
      <path
         d="m 180.645,219 c 0.185,-1.078 0.58,-2.495 0.823,-3.562 0.254,-1.677 0.631,-3.914 0.957,-5.579 0.144,1.006 0.315,2.345 0.421,3.354 0.577,-0.438 1.389,-0.977 2.028,-1.319 -0.684,1.369 -1.533,3.23 -2.109,4.65 -0.147,1.166 -0.369,2.706 -0.552,3.863 -0.204,0.026 -0.47,0.079 -0.664,0.144 -0.211,1.309 -0.404,3.068 -0.462,4.391 0,-1.434 0.012,-3.342 0.041,-4.776 -0.136,-0.353 -0.329,-0.822 -0.483,-1.166"
         style="fill:#452d1c;fill-opacity:1;fill-rule:nonzero;stroke:none"
         id="path174"
         inkscape:connector-curvature="0" />
      <path
         d="m 178.977,218.752 c -0.162,-1.249 -0.252,-2.932 -0.338,-4.194 -0.142,-1.279 -0.287,-2.866 -0.393,-4.326 -0.042,-0.546 -0.076,-1.075 -0.102,-1.557 0.164,0.451 0.351,0.981 0.533,1.508 0.157,0.462 0.312,0.916 0.443,1.318 0.185,-0.441 0.425,-0.953 0.672,-1.448 0.185,-0.365 0.374,-0.724 0.549,-1.028 l -0.118,0.978 c -0.176,1.552 -0.336,3.356 -0.411,4.776 0.187,1.292 0.431,3.018 0.606,4.309 -0.134,0.181 -0.295,0.43 -0.407,0.629 0.254,1.583 0.674,3.674 1.076,5.225 -0.459,-1.591 -1.048,-3.721 -1.462,-5.322 -0.186,-0.267 -0.445,-0.614 -0.648,-0.868"
         style="fill:#452d1c;fill-opacity:1;fill-rule:nonzero;stroke:none"
         id="path176"
         inkscape:connector-curvature="0" />
      <path
         d="m 183.768,229.839 0.362,0.226 c 0.183,0.109 0.374,0.214 0.536,0.3 0.678,1.064 1.476,2.556 2.247,3.557 0.762,0.811 1.71,1.781 2.632,2.679 0.543,0.532 1.076,1.041 1.56,1.484 -0.749,-0.382 -1.694,-0.907 -2.466,-1.378 l -0.322,-0.199 0.087,0.226 c 0.233,0.614 0.505,1.352 0.702,1.928 -0.429,-0.55 -0.91,-1.192 -1.392,-1.847 -0.664,-0.895 -1.333,-1.831 -1.877,-2.624 -0.796,-1.033 -1.806,-2.461 -2.501,-3.562 0.021,-0.139 0.04,-0.313 0.054,-0.478 l 0.015,-0.256 c -0.361,-0.742 -0.77,-1.612 -1.181,-2.485 -0.405,-0.862 -0.804,-1.727 -1.137,-2.468 0.367,0.741 0.814,1.603 1.278,2.451 0.472,0.869 0.96,1.725 1.403,2.446"
         style="fill:#452d1c;fill-opacity:1;fill-rule:nonzero;stroke:none"
         id="path178"
         inkscape:connector-curvature="0" />
      <path
         d="m 178.014,221.922 c -0.14,0.046 -0.323,0.129 -0.444,0.212 -0.589,-0.833 -1.283,-2 -1.799,-2.874 -0.586,-0.916 -1.321,-2.169 -1.815,-3.136 0.256,0.051 0.585,0.176 0.815,0.286 -0.185,-0.965 -0.39,-2.269 -0.505,-3.256 0.445,1.391 1.114,3.221 1.688,4.559 0.568,0.775 1.325,1.814 1.887,2.591 0.065,0.344 0.165,0.799 0.25,1.138 0.843,1.094 2.037,2.5 2.996,3.5 -0.934,-0.894 -2.165,-2.097 -3.073,-3.02"
         style="fill:#452d1c;fill-opacity:1;fill-rule:nonzero;stroke:none"
         id="path180"
         inkscape:connector-curvature="0" />
      <path
         d="m 180.82,228.723 c 0.163,0.343 0.392,0.797 0.576,1.129 0.002,0.167 -0.006,0.345 -0.014,0.534 -0.03,0.586 -0.089,1.237 -0.018,1.755 0.345,1.076 0.877,2.504 1.346,3.536 -0.53,-0.771 -1.214,-1.817 -1.693,-2.621 -0.243,0.005 -0.566,-0.068 -0.786,-0.162 -0.098,-0.673 -0.168,-1.578 -0.176,-2.257 l -0.016,-0.094 c -0.122,-0.779 -0.219,-1.791 -0.216,-2.559 0.167,0.081 0.399,0.183 0.574,0.23 l 0.13,-0.606 0.56,-2.666 c -0.106,0.776 -0.194,1.734 -0.236,2.628 -0.021,0.407 -0.032,0.798 -0.031,1.153"
         style="fill:#452d1c;fill-opacity:1;fill-rule:nonzero;stroke:none"
         id="path182"
         inkscape:connector-curvature="0" />
      <path
         d="m 190.98,243.099 0.492,0.407 c 0.747,0.323 1.753,0.732 2.52,0.998 l 0.141,0.19 c 0.345,0.445 0.729,1.005 1.144,1.322 1.343,0.7 3.174,1.574 4.575,2.16 -1.199,-0.453 -2.758,-1.074 -3.977,-1.612 -0.171,-0.08 -0.339,-0.158 -0.512,-0.242 -0.826,-0.436 -1.836,-0.973 -2.695,-1.457 l -0.372,-0.212 c -0.152,-0.094 -0.311,-0.189 -0.471,-0.287 -0.519,-0.351 -1.106,-0.753 -1.692,-1.169 -0.74,-0.521 -1.481,-1.058 -2.097,-1.528 0.477,0.313 1.133,0.707 1.64,0.975 -0.62,-0.712 -1.405,-1.695 -1.962,-2.457 0.94,0.9 2.189,2.014 3.266,2.912"
         style="fill:#452d1c;fill-opacity:1;fill-rule:nonzero;stroke:none"
         id="path184"
         inkscape:connector-curvature="0" />
      <path
         d="m 230.559,238.182 -0.275,0.324 c -0.591,0.688 -1.277,1.464 -1.95,2.191 -0.431,0.462 -0.851,0.909 -1.234,1.297 0.376,0.687 0.866,1.607 1.218,2.304 -1.53,0.161 -3.576,0.308 -5.113,0.353 -1.508,0.654 -3.541,1.463 -5.101,1.998 l -0.004,0.003 -0.003,0 -0.013,-10e-4 c 0.279,-0.781 0.596,-1.84 0.784,-2.64 -1.387,-0.462 -3.225,-1.109 -4.591,-1.626 l 0.787,-0.138 c 1.56,-0.285 3.403,-0.675 4.825,-1.028 0.219,-0.476 0.466,-1.021 0.706,-1.583 0.301,-0.7 0.598,-1.422 0.829,-2.037 l 2.521,1.646 1.001,0.648 c 1.266,-0.345 2.837,-0.804 4.247,-1.262 0.48,-0.151 0.943,-0.301 1.366,-0.449"
         style="fill:#452d1c;fill-opacity:1;fill-rule:nonzero;stroke:none"
         id="path186"
         inkscape:connector-curvature="0" />
      <path
         d="m 194.886,244.606 -0.226,-0.107 c 0.365,-0.125 0.839,-0.328 1.17,-0.526 -0.405,-0.385 -0.861,-0.831 -1.324,-1.287 -0.677,-0.669 -1.368,-1.37 -1.938,-1.962 0.88,0.571 1.964,1.234 3.009,1.837 0.595,0.349 1.178,0.676 1.706,0.957 0.662,-0.132 1.54,-0.352 2.181,-0.568 0.27,0.299 0.553,0.658 0.846,1.022 0.491,0.605 1.012,1.224 1.572,1.597 1.604,0.588 3.77,1.301 5.417,1.768 -1.251,0.052 -2.92,0.058 -4.171,-0.004 0.092,0.299 0.2,0.691 0.286,1.035 l 0.051,0.221 -0.395,-0.182 c -1.254,-0.579 -2.773,-1.339 -3.916,-1.967 -1.292,-0.506 -2.972,-1.217 -4.268,-1.834"
         style="fill:#452d1c;fill-opacity:1;fill-rule:nonzero;stroke:none"
         id="path188"
         inkscape:connector-curvature="0" />
      <path
         d="m 210.074,250.342 -0.016,-0.002 c 0.592,-0.022 1.378,-0.101 1.955,-0.23 -1.077,-0.279 -2.499,-0.709 -3.546,-1.084 1.719,0.167 4.016,0.306 5.743,0.343 0.916,-0.395 2.114,-0.98 2.977,-1.486 0.636,0.389 1.438,1.087 2.174,1.204 1.702,-0.229 3.965,-0.61 5.645,-0.974 -1.395,0.526 -3.284,1.158 -4.72,1.559 l -0.012,0.141 -0.041,0.006 -2.148,0.314 c -0.45,0.054 -0.907,0.101 -1.352,0.144 l -1.117,0.08 c -1.662,0.052 -3.877,0.054 -5.542,-0.015"
         style="fill:#452d1c;fill-opacity:1;fill-rule:nonzero;stroke:none"
         id="path190"
         inkscape:connector-curvature="0" />
      <path
         d="m 179.312,226.651 c 0.062,0.323 0.16,0.753 0.252,1.069 l 0.003,0.02 c -0.305,0.225 -0.752,0.475 -1.115,0.575 -0.12,0.482 -0.22,1.156 -0.215,1.651 -0.237,-0.589 -0.524,-1.363 -0.73,-2.004 l -0.056,-0.195 c -0.362,-0.458 -0.817,-1.095 -1.125,-1.589 0.327,0.088 0.785,0.126 1.126,0.117 0.223,-0.346 0.598,-0.771 0.93,-1.019 0.179,0.222 0.424,0.507 0.617,0.713 0.647,-0.27 1.484,-0.686 2.088,-1.047 -0.572,0.468 -1.3,1.145 -1.775,1.709"
         style="fill:#452d1c;fill-opacity:1;fill-rule:nonzero;stroke:none"
         id="path192"
         inkscape:connector-curvature="0" />
      <path
         d="m 231.604,187.359 0.574,0.448 c 0.728,0.566 1.526,1.195 2.298,1.816 0.617,0.497 1.213,0.989 1.738,1.428 -1.403,0.177 -3.272,0.444 -4.669,0.666 -0.333,1.538 -0.805,3.578 -1.186,5.102 -1.072,-1.475 -2.533,-3.428 -3.661,-4.871 -1.791,-0.06 -4.178,-0.101 -5.969,-0.094 l 0.5,-0.681 c 0.534,-0.726 1.129,-1.532 1.692,-2.283 l 0.91,-1.218 c -0.758,-1.368 -1.8,-3.176 -2.612,-4.517 1.739,0.477 4.04,1.165 5.75,1.733 1.128,-0.612 2.646,-1.401 3.802,-1.958 0.265,1.325 0.6,3.097 0.833,4.429"
         style="fill:#452d1c;fill-opacity:1;fill-rule:nonzero;stroke:none"
         id="path194"
         inkscape:connector-curvature="0" />
      <path
         d="m 178.173,224.903 c -0.554,-0.317 -1.193,-0.894 -1.722,-1.253 -0.422,-0.208 -0.974,-0.513 -1.356,-0.785 0.012,-0.326 0.057,-0.756 0.155,-1.062 -0.325,-0.777 -0.73,-1.834 -1,-2.64 0.475,0.795 1.184,1.815 1.772,2.535 0.513,0.236 1.183,0.584 1.675,0.862 0.141,0.304 0.338,0.712 0.495,1.011 0.835,0.478 1.995,1.034 2.895,1.371 -0.83,-0.233 -1.94,-0.532 -2.775,-0.741 -0.059,0.205 -0.115,0.489 -0.139,0.702"
         style="fill:#452d1c;fill-opacity:1;fill-rule:nonzero;stroke:none"
         id="path196"
         inkscape:connector-curvature="0" />
      <path
         d="m 182.399,229.836 0.324,0.394 c 0.164,0.189 0.335,0.39 0.483,0.548 0.347,0.994 0.709,2.363 1.158,3.315 0.526,0.876 1.19,1.921 1.845,2.897 0.367,0.547 0.727,1.065 1.06,1.525 -0.455,-0.428 -0.991,-0.958 -1.498,-1.472 -0.317,-0.327 -0.625,-0.647 -0.891,-0.936 -0.002,0.311 -0.015,0.714 -0.051,1.045 l -0.017,0.142 -0.066,-0.132 c -0.56,-1.126 -1.232,-2.607 -1.693,-3.745 -0.416,-0.896 -0.917,-2.077 -1.281,-3.076 l -0.163,-0.452 c 0.119,-0.079 0.265,-0.201 0.361,-0.303 -0.128,-0.632 -0.272,-1.36 -0.414,-2.099 -0.171,-0.881 -0.335,-1.782 -0.469,-2.545 0.165,0.76 0.384,1.654 0.62,2.528 0.226,0.835 0.465,1.661 0.692,2.366"
         style="fill:#452d1c;fill-opacity:1;fill-rule:nonzero;stroke:none"
         id="path198"
         inkscape:connector-curvature="0" />
      <path
         d="m 177.835,219.91 c -0.443,-1.173 -0.936,-2.772 -1.301,-3.971 -0.505,-1.48 -1.118,-3.476 -1.526,-4.986 0.362,0.486 0.825,1.149 1.162,1.653 0.042,-0.639 0.113,-1.42 0.199,-2.153 0.047,-0.371 0.092,-0.736 0.142,-1.06 l 0.12,1.03 c 0.19,1.549 0.455,3.328 0.718,4.721 0.45,1.163 1.052,2.716 1.5,3.877 -0.037,0.298 -0.076,0.694 -0.09,0.99 0.634,1.508 1.555,3.486 2.328,4.931 -0.801,-1.399 -1.848,-3.277 -2.609,-4.698 -0.188,-0.112 -0.444,-0.253 -0.643,-0.334"
         style="fill:#452d1c;fill-opacity:1;fill-rule:nonzero;stroke:none"
         id="path200"
         inkscape:connector-curvature="0" />
      <path
         d="m 184.945,181.533 c -0.267,0.556 -0.569,1.325 -0.753,1.915 -0.525,0.352 -1.146,0.809 -1.72,1.259 -0.309,0.25 -0.61,0.493 -0.868,0.72 -1.002,1.404 -2.276,3.327 -3.165,4.8 0.402,-0.896 0.997,-2.064 1.503,-2.921 l 0.057,-0.081 0.866,-1.2 0.293,-0.377 0.72,-0.871 c 0.757,-0.905 1.59,-1.88 2.293,-2.641 0.383,-0.362 0.813,-0.768 1.263,-1.185 0.751,-0.703 1.546,-1.427 2.234,-2.014 l 0.157,-0.126 1.387,-1.051 c -1.104,0.904 -2.484,2.107 -3.625,3.171 l -0.642,0.602"
         style="fill:#452d1c;fill-opacity:1;fill-rule:nonzero;stroke:none"
         id="path202"
         inkscape:connector-curvature="0" />
      <path
         d="m 177.168,196.322 -0.145,0.459 c 0.115,0.95 0.279,2.212 0.412,3.157 -0.485,0.475 -1.102,1.132 -1.53,1.658 -0.166,1.124 -0.332,2.522 -0.456,3.815 -0.051,0.545 -0.091,1.076 -0.121,1.554 -0.069,-0.461 -0.142,-0.981 -0.212,-1.515 -0.116,-0.918 -0.227,-1.874 -0.301,-2.671 -0.304,0.28 -0.68,0.692 -0.925,1.026 0.283,-1.45 0.765,-3.367 1.106,-4.806 0.149,-0.748 0.345,-1.626 0.557,-2.488 0.161,-0.653 0.334,-1.294 0.498,-1.849 0.179,0.113 0.391,0.301 0.54,0.454 0.16,-0.278 0.338,-0.57 0.527,-0.872 0.57,-0.927 1.23,-1.941 1.789,-2.724 -0.315,0.78 -0.662,1.699 -0.994,2.631 -0.267,0.743 -0.522,1.491 -0.745,2.171"
         style="fill:#452d1c;fill-opacity:1;fill-rule:nonzero;stroke:none"
         id="path204"
         inkscape:connector-curvature="0" />
      <path
         d="m 234.285,177.198 c -0.162,0.442 -0.345,1.043 -0.468,1.508 l -0.014,0.05 -0.047,-0.042 c -1.022,-0.882 -2.386,-2.02 -3.44,-2.84 l -0.428,-0.12 c -1.474,-0.409 -3.305,-0.869 -4.717,-1.171 0.733,-0.285 1.739,-0.606 2.508,-0.773 -0.657,-0.511 -1.557,-1.168 -2.256,-1.622 1.499,0.543 3.458,1.351 4.938,1.942 0.875,0.323 1.987,0.787 2.898,1.229 l 0.42,0.205 0.012,0.007 c 0.178,0.185 0.382,0.459 0.521,0.667 0.891,0.602 1.994,1.372 2.958,2.074 l 0.781,0.579 c -0.333,-0.172 -0.7,-0.354 -1.085,-0.542 -0.863,-0.415 -1.804,-0.839 -2.581,-1.151"
         style="fill:#452d1c;fill-opacity:1;fill-rule:nonzero;stroke:none"
         id="path206"
         inkscape:connector-curvature="0" />
      <path
         d="m 214.838,170.589 c -1.651,0.143 -3.848,0.407 -5.481,0.677 -0.402,0.563 -0.893,1.343 -1.226,1.949 -1.165,-0.267 -2.73,-0.573 -3.915,-0.737 -1.765,0.542 -4.094,1.341 -5.816,2.005 0.897,-0.737 2.141,-1.668 3.117,-2.302 -0.619,-0.021 -1.445,0.01 -2.056,0.111 1.659,-0.508 3.895,-1.124 5.591,-1.494 0.972,-0.203 2.269,-0.49 3.255,-0.626 l 0.733,-0.08 c 0.226,-0.016 0.449,-0.037 0.674,-0.054 l 0.102,0.256 c 1.507,0.04 3.52,0.15 5.022,0.295"
         style="fill:#452d1c;fill-opacity:1;fill-rule:nonzero;stroke:none"
         id="path208"
         inkscape:connector-curvature="0" />
      <path
         d="m 215.643,174.083 c 1.245,-0.426 2.924,-0.934 4.201,-1.245 0.224,0.717 0.514,1.676 0.719,2.394 0.9,0.361 1.965,0.814 2.995,1.262 0.738,0.318 1.46,0.638 2.088,0.932 -1.543,0.109 -3.595,0.308 -5.126,0.514 -0.193,0.712 -0.42,1.575 -0.633,2.394 l -0.322,1.269 c -0.426,-0.332 -0.907,-0.697 -1.406,-1.067 -0.921,-0.686 -1.903,-1.395 -2.726,-1.959 -1.812,0.221 -4.227,0.58 -6.027,0.903 0.383,-0.456 0.83,-0.969 1.288,-1.482 0.577,-0.653 1.173,-1.3 1.688,-1.84 -0.768,-0.73 -1.816,-1.675 -2.631,-2.346 1.769,0.027 4.138,0.488 5.892,0.271"
         style="fill:#452d1c;fill-opacity:1;fill-rule:nonzero;stroke:none"
         id="path210"
         inkscape:connector-curvature="0" />
      <path
         d="m 186.372,190.794 c -0.476,0.754 -1.01,1.647 -1.533,2.546 -0.447,0.769 -0.883,1.539 -1.256,2.233 l -0.136,0.254 c 0.003,1.31 0.006,3.06 0.008,4.371 -0.651,0.012 -1.518,0.058 -2.168,0.139 -0.543,1.345 -1.193,3.124 -1.66,4.586 l -0.138,0.44 0.01,-0.426 c 0.042,-1.514 0.113,-3.388 0.186,-4.818 -0.445,-0.216 -1.054,-0.471 -1.521,-0.633 0.546,-1.066 1.416,-2.364 2.014,-3.516 0.098,-0.188 0.188,-0.371 0.269,-0.551 0.149,-0.501 0.318,-1.053 0.498,-1.622 0.381,-1.217 0.812,-2.51 1.191,-3.55 0.282,0.732 0.643,1.711 0.902,2.449 0.973,-0.613 2.304,-1.388 3.334,-1.902"
         style="fill:#452d1c;fill-opacity:1;fill-rule:nonzero;stroke:none"
         id="path212"
         inkscape:connector-curvature="0" />
      <path
         d="m 250.608,220.804 c -0.024,-0.415 -0.058,-0.887 -0.097,-1.378 -0.057,-0.731 -0.13,-1.487 -0.202,-2.112 -0.73,0.251 -1.722,0.53 -2.476,0.692 0.676,-1.329 1.536,-3.122 2.133,-4.484 -0.105,-1.433 -0.278,-3.345 -0.444,-4.775 0.572,0.403 1.334,0.936 1.908,1.333 0.365,-0.954 0.805,-2.243 1.071,-3.227 0.025,1.362 0.02,3.183 -0.018,4.549 0.19,0.47 0.428,1.104 0.582,1.594 -0.281,0.837 -0.725,1.933 -1.124,2.728 -0.256,1.083 -0.594,2.421 -0.931,3.646 -0.133,0.509 -0.273,0.991 -0.402,1.434"
         style="fill:#452d1c;fill-opacity:1;fill-rule:nonzero;stroke:none"
         id="path214"
         inkscape:connector-curvature="0" />
      <path
         d="m 186.073,202.45 c -0.486,-0.622 -1.151,-1.44 -1.668,-2.04 0.972,-0.862 2.534,-1.724 3.372,-2.717 0.413,-0.833 0.909,-1.812 1.407,-2.776 0.408,-0.78 0.816,-1.549 1.183,-2.222 l 0.081,-0.15 0.029,0.137 c 0.119,0.621 0.261,1.333 0.39,2.038 0.114,0.606 0.218,1.195 0.312,1.716 1.205,-0.066 2.818,-0.095 4.028,-0.052 -1.249,1.181 -2.881,2.799 -4.064,4.046 -0.147,0.951 -0.336,2.114 -0.52,3.207 l -0.276,1.615 c -0.708,-0.416 -1.658,-0.931 -2.405,-1.301 l -0.075,-0.041 -0.044,0.054 c -0.975,1.107 -2.209,2.612 -3.071,3.79 0.257,-1.049 0.573,-2.331 0.874,-3.533 l 0.447,-1.771"
         style="fill:#452d1c;fill-opacity:1;fill-rule:nonzero;stroke:none"
         id="path216"
         inkscape:connector-curvature="0" />
      <path
         d="m 249.603,226.248 c 0.316,-1.172 0.699,-2.747 0.943,-3.947 l 0.006,-0.034 c 0.276,-0.018 0.714,-0.011 0.89,-0.22 0.27,-0.83 0.578,-1.852 0.838,-2.826 0.138,-0.501 0.264,-0.985 0.364,-1.432 l -0.158,0.773 -0.16,0.652 c -0.337,1.356 -0.551,2.189 -0.79,2.971 -0.299,0.978 -0.638,1.868 -1.312,3.593 l -0.07,0.164 c -0.54,1.155 -1.253,2.659 -1.853,3.79 l -0.056,0.105 0.049,-0.104 0.36,-0.751 c -0.19,0.245 -0.409,0.515 -0.644,0.785 -0.403,0.467 -0.846,0.945 -1.232,1.315 0.244,-0.39 0.505,-0.815 0.774,-1.262 0.717,-1.181 1.475,-2.495 2.051,-3.572"
         style="fill:#452d1c;fill-opacity:1;fill-rule:nonzero;stroke:none"
         id="path218"
         inkscape:connector-curvature="0" />
      <path
         d="m 201.443,232.056 c -1.498,-0.565 -3.494,-1.323 -4.995,-1.892 1.451,-0.14 3.375,-0.402 4.807,-0.66 0.057,-0.438 0.114,-0.948 0.167,-1.46 0.057,-0.563 0.108,-1.121 0.143,-1.601 0.692,0.336 1.466,0.866 2.25,1.321 0.7,0.405 1.413,0.756 2.091,0.86 1.683,-0.289 3.915,-0.722 5.584,-1.088 -0.654,1.086 -1.57,2.52 -2.302,3.563 0.771,0.855 1.766,1.98 2.563,2.907 l 0.267,0.311 -1.307,-0.19 c -1.48,-0.219 -3.131,-0.481 -4.445,-0.702 -1.201,0.499 -2.828,1.101 -4.068,1.479 -0.208,-0.858 -0.508,-1.997 -0.755,-2.848"
         style="fill:#452d1c;fill-opacity:1;fill-rule:nonzero;stroke:none"
         id="path220"
         inkscape:connector-curvature="0" />
      <path
         d="m 247.304,202.598 -1.571,-0.254 -1.758,-0.287 c 0.558,-1.076 1.284,-2.519 1.807,-3.617 l -0.404,-1.202 c -0.404,-1.199 -0.864,-2.512 -1.253,-3.565 0.954,0.73 2.207,1.707 3.138,2.465 0.431,-0.465 0.996,-1.094 1.408,-1.574 0.136,0.665 0.286,1.46 0.426,2.237 0.109,0.604 0.214,1.192 0.295,1.707 0.539,0.829 1.243,1.934 1.749,2.776 -0.221,0.159 -0.485,0.344 -0.755,0.517 -0.294,0.187 -0.595,0.372 -0.856,0.521 -0.135,1.375 -0.354,3.208 -0.547,4.575 -0.482,-1.298 -1.15,-3.016 -1.679,-4.299"
         style="fill:#452d1c;fill-opacity:1;fill-rule:nonzero;stroke:none"
         id="path222"
         inkscape:connector-curvature="0" />
      <path
         d="m 244.345,221.007 c 0.377,0.553 0.83,1.23 1.251,1.874 l 0.608,0.941 c -1.105,0.627 -2.613,1.414 -3.763,1.954 -0.918,1.527 -2.19,3.539 -3.194,5.015 l -0.016,0.025 -0.003,-0.023 c -0.165,-1.278 -0.417,-2.967 -0.645,-4.231 -1.416,-0.04 -3.308,-0.126 -4.721,-0.223 0.766,-0.703 1.669,-1.546 2.54,-2.384 0.644,-0.617 1.268,-1.23 1.808,-1.773 l -0.022,-1.314 c -0.031,-1.379 -0.087,-2.921 -0.156,-4.152 1.148,0.618 2.671,1.44 3.81,2.068 1.118,-0.961 2.584,-2.277 3.647,-3.295 -0.257,1.379 -0.61,3.139 -0.944,4.636 l -0.2,0.882"
         style="fill:#452d1c;fill-opacity:1;fill-rule:nonzero;stroke:none"
         id="path224"
         inkscape:connector-curvature="0" />
      <g
         transform="scale(0.1,0.1)"
         id="g870">
        <g
           id="g872"
           clip-path="url(#clipPath874)">
          <path
             d="m 2342.85,1771.98 c -0.03,0.08 -0.06,0.16 -0.09,0.25 9.86,7.59 19.33,15.65 28.38,24.16 3.94,1.53 7.87,3.05 11.91,4.68 l -20.45,-20.44 c -6.82,-3.18 -13.77,-6.25 -19.75,-8.65 m -549.37,496.32 c 0.34,1.66 0.75,3.47 1.17,5.2 l 6.12,6.12 c -2.5,-3.73 -4.93,-7.5 -7.29,-11.32"
             style="fill:url(#linearGradient878);fill-opacity:1;fill-rule:nonzero;stroke:none"
             id="path886"
             inkscape:connector-curvature="0" />
        </g>
      </g>
      <g
         transform="scale(0.1,0.1)"
         id="g888">
        <g
           id="g890"
           clip-path="url(#clipPath892)">
          <path
             d="m 1743.8,2140.32 c 1.13,8.04 2.57,16.8 3.91,23.78 -2.3,-1.1 -5.59,-2.35 -8.15,-2.86 4.87,9.54 12.09,21.86 17.91,30.98 -5.75,-16.8 -10.33,-34.13 -13.67,-51.9"
             style="fill:url(#linearGradient6582);fill-opacity:1;fill-rule:nonzero;stroke:none"
             id="path904"
             inkscape:connector-curvature="0" />
        </g>
      </g>
      <g
         transform="scale(0.1,0.1)"
         id="g906">
        <g
           id="g908"
           clip-path="url(#clipPath910)">
          <path
             d="m 1783.82,2252.76 c -1.68,1.26 -3.47,2.96 -5.12,4.79 l 15.95,15.95 c -0.42,-1.73 -0.83,-3.54 -1.17,-5.2 -2.75,-4.44 -5.41,-8.95 -7.98,-13.51 -0.6,-0.7 -1.16,-1.39 -1.68,-2.03"
             style="fill:url(#linearGradient6584);fill-opacity:1;fill-rule:nonzero;stroke:none"
             id="path922"
             inkscape:connector-curvature="0" />
        </g>
      </g>
      <g
         transform="scale(0.1,0.1)"
         id="g924">
        <g
           id="g926"
           clip-path="url(#clipPath928)">
          <path
             d="m 1742.5,2191.63 c 2.7,8.06 6.75,18.63 10,26.4 -0.98,3.06 -1.43,7.36 -1.55,10.62 3.82,2.72 9.34,5.77 13.56,7.85 5.29,3.59 11.68,9.36 17.22,12.53 0.03,-0.28 0.07,-0.58 0.11,-0.89 -4.72,-8.79 -9.1,-17.79 -13.12,-26.98 -2.94,-1.52 -5.92,-2.99 -8.5,-4.18 -5.88,-7.2 -12.97,-17.4 -17.72,-25.35"
             style="fill:url(#linearGradient6586);fill-opacity:1;fill-rule:nonzero;stroke:none"
             id="path940"
             inkscape:connector-curvature="0" />
        </g>
      </g>
      <g
         transform="scale(0.1,0.1)"
         id="g942">
        <g
           id="g944"
           clip-path="url(#clipPath946)">
          <path
             d="m 2262.59,1724.99 c 28.75,12.44 55.66,28.36 80.17,47.24 0.03,-0.09 0.06,-0.17 0.09,-0.25 5.98,2.4 12.93,5.47 19.75,8.65 l -13.45,-13.46 c -2.44,-1.68 -4.8,-3.29 -7.03,-4.79 -1.39,-2.08 -3.43,-4.82 -5.21,-6.67 l -0.12,-0.07 -4.2,-2.05 c -9.11,-4.42 -20.23,-9.06 -28.98,-12.29 -12.18,-4.86 -27.59,-11.19 -41.02,-16.31"
             style="fill:url(#linearGradient6588);fill-opacity:1;fill-rule:nonzero;stroke:none"
             id="path958"
             inkscape:connector-curvature="0" />
        </g>
      </g>
    </g>
  </g>
</svg>
