<?xml version="1.0" encoding="UTF-8" standalone="no"?>
<!-- Created with Inkscape (http://www.inkscape.org/) -->

<svg
   xmlns:dc="http://purl.org/dc/elements/1.1/"
   xmlns:cc="http://creativecommons.org/ns#"
   xmlns:rdf="http://www.w3.org/1999/02/22-rdf-syntax-ns#"
   xmlns:svg="http://www.w3.org/2000/svg"
   xmlns="http://www.w3.org/2000/svg"
   xmlns:sodipodi="http://sodipodi.sourceforge.net/DTD/sodipodi-0.dtd"
   xmlns:inkscape="http://www.inkscape.org/namespaces/inkscape"
   width="94.836998"
   height="93.612999"
   viewBox="0 0 94.836999 93.613001"
   id="svg5143"
   version="1.1"
   inkscape:version="0.91 r13725"
   sodipodi:docname="logo1.svg">
  <defs
     id="defs5145">
    <clipPath
       clipPathUnits="userSpaceOnUse"
       id="clipPath570">
      <path
         d="m 411.207,5010.83 c -20.453,47.96 -20.769,87.48 -4.543,116.04 5.578,9.61 13.82,21.91 19.828,31.28 l 1.953,2.76 c -20.691,-29.02 -22.199,-71.27 0.035,-123.5 43.516,-102.16 165.098,-212.18 297.75,-277.71 11.696,-5.8 23.465,-11.24 35.293,-16.29 l -1.55,-2.19 c -5.739,-8.22 -11.461,-16.07 -17.157,-23.57 -56.261,24.05 -111.625,56.78 -161.086,94.31 l 0.172,0.27 c -78.293,59.37 -141.781,130.73 -170.695,198.6 z"
         id="path572"
         inkscape:connector-curvature="0" />
    </clipPath>
    <linearGradient
       x1="0"
       y1="0"
       x2="1"
       y2="0"
       gradientUnits="userSpaceOnUse"
       gradientTransform="matrix(82.0871,-131.01,135.351,85.5351,412.632,5150.9)"
       spreadMethod="pad"
       id="linearGradient574">
      <stop
         style="stop-opacity:1;stop-color:#ff8183"
         offset="0"
         id="stop576" />
      <stop
         style="stop-opacity:1;stop-color:#ff1e28"
         offset="1"
         id="stop578" />
    </linearGradient>
    <clipPath
       clipPathUnits="userSpaceOnUse"
       id="clipPath592">
      <path
         d="m 931.047,4656.9 0.203,0.19 c 29.219,4.19 52.355,14.46 68.352,30.03 l -12.301,-11.5 c -15.746,-14.1 -37.793,-23.44 -65.223,-27.36 3.02,2.8 6.024,5.68 8.969,8.64 z"
         id="path594"
         inkscape:connector-curvature="0" />
    </clipPath>
    <linearGradient
       x1="0"
       y1="0"
       x2="1"
       y2="0"
       gradientUnits="userSpaceOnUse"
       gradientTransform="matrix(-76.8962,-1.27048,-1.27048,-76.0037,999.287,4668.32)"
       spreadMethod="pad"
       id="linearGradient596">
      <stop
         style="stop-opacity:1;stop-color:#c9e757"
         offset="0"
         id="stop598" />
      <stop
         style="stop-opacity:1;stop-color:#c9e757"
         offset="0.00063959"
         id="stop600" />
      <stop
         style="stop-opacity:1;stop-color:#7cab12"
         offset="1"
         id="stop602" />
    </linearGradient>
  </defs>
  <sodipodi:namedview
     id="base"
     pagecolor="#ffffff"
     bordercolor="#666666"
     borderopacity="1.0"
     inkscape:pageopacity="0.0"
     inkscape:pageshadow="2"
     inkscape:zoom="1.4"
     inkscape:cx="379.80586"
     inkscape:cy="73.837815"
     inkscape:document-units="px"
     inkscape:current-layer="layer1"
     showgrid="false"
     units="px"
     inkscape:window-width="1920"
     inkscape:window-height="1015"
     inkscape:window-x="1280"
     inkscape:window-y="0"
     inkscape:window-maximized="1" />
  <metadata
     id="metadata5148">
    <rdf:RDF>
      <cc:Work
         rdf:about="">
        <dc:format>image/svg+xml</dc:format>
        <dc:type
           rdf:resource="http://purl.org/dc/dcmitype/StillImage" />
        <dc:title></dc:title>
      </cc:Work>
    </rdf:RDF>
  </metadata>
  <g
     inkscape:label="Layer 1"
     inkscape:groupmode="layer"
     id="layer1"
     transform="translate(0,-958.74916)">
    <g
       transform="matrix(1.25,0,0,-1.25,-44.896617,1624.2958)"
       id="g4892">
      <path
         d="m 57.102,516.65 c -2.8793,6.756 -1.1286,11.575 3.9168,13.481 l 2.5164,0.864 c -5.4059,-1.641 -7.3926,-6.409 -4.4868,-13.232 4.1063,-9.639 16.6172,-20.129 29.3075,-25.042 -0.2918,-0.755 -0.5957,-1.51 -0.9079,-2.262 -3.7695,1.458 -7.5207,3.39 -11.0593,5.636 l 0.1164,0.176 c -8.8457,5.618 -16.3524,13.227 -19.4031,20.379"
         style="fill:#ee4443;fill-opacity:1;fill-rule:nonzero;stroke:none"
         id="path550"
         inkscape:connector-curvature="0" />
      <path
         d="m 106.493,488.683 c 0.065,0.709 0.109,1.424 0.136,2.138 3.494,1.325 5.346,4.102 5.072,7.981 l 0.086,-2.595 c 0.004,-3.628 -1.897,-6.239 -5.294,-7.524"
         style="fill:#ee4443;fill-opacity:1;fill-rule:nonzero;stroke:none"
         id="path552"
         inkscape:connector-curvature="0" />
      <path
         d="m 50.0918,511.603 c -2.677,6.279 -1.7488,11.045 1.9086,13.674 l 0.4863,0.343 c 2.3446,1.585 2.759,1.796 5.9977,3.443 l 2.5344,1.068 c -5.0454,-1.906 -6.7961,-6.725 -3.9168,-13.481 3.0507,-7.152 10.5574,-14.761 19.4031,-20.379 l -0.1164,-0.176 c -1.5699,-2.358 -3.1707,-4.742 -4.7735,-7.101 -2.3996,1.523 -4.7093,3.179 -6.8808,4.927 -6.709,5.402 -12.0883,11.684 -14.6426,17.682"
         style="fill:#00aca4;fill-opacity:1;fill-rule:nonzero;stroke:none"
         id="path554"
         inkscape:connector-curvature="0" />
      <path
         d="m 95.959,479.702 c 1.0461,2.647 1.8746,5.396 2.4875,8.193 3.2025,-0.304 5.9185,-0.018 8.0465,0.788 3.397,1.285 5.298,3.896 5.294,7.524 l -0.105,-2.682 c -0.238,-2.709 -0.322,-3.084 -1.113,-6.68 l -0.152,-0.568 c -1.342,-4.84 -6.566,-7.329 -14.458,-6.575"
         style="fill:#00aca4;fill-opacity:1;fill-rule:nonzero;stroke:none"
         id="path556"
         inkscape:connector-curvature="0" />
      <path
         d="m 46.9137,508.614 c -2.5196,5.915 -1.9387,10.53 1.0613,13.349 1.1551,1.053 2.7895,2.355 4.0254,3.314 -3.6574,-2.629 -4.5856,-7.395 -1.9086,-13.674 2.5543,-5.998 7.9336,-12.28 14.6426,-17.682 -0.9262,-1.174 -1.836,-2.353 -2.7254,-3.531 -6.9176,5.568 -12.4617,12.045 -15.0953,18.224"
         style="fill:#173558;fill-opacity:1;fill-rule:nonzero;stroke:none"
         id="path558"
         inkscape:connector-curvature="0" />
      <path
         d="m 99.8695,475.779 -0.0058,-0.016 c -3.4297,-0.45 -7.6723,-0.074 -12.5586,1.255 0.7012,1.284 1.3621,2.604 1.9816,3.944 2.391,-0.649 4.6215,-1.063 6.6723,-1.26 7.892,-0.754 13.116,1.735 14.458,6.575 -0.455,-1.471 -1.153,-3.41 -1.708,-4.851 -1.323,-3.091 -4.396,-5.063 -8.8395,-5.647"
         style="fill:#173558;fill-opacity:1;fill-rule:nonzero;stroke:none"
         id="path560"
         inkscape:connector-curvature="0" />
      <path
         d="m 42.848,503.741 c -2.2234,5.223 -2.0726,9.448 -0.0035,12.35 1.4582,2.011 1.6219,2.188 4.3289,5.094 l 0.8016,0.778 c -3,-2.819 -3.5809,-7.434 -1.0613,-13.349 2.6336,-6.179 8.1777,-12.656 15.0953,-18.224 4.3086,-3.471 9.1543,-6.588 14.159,-9.061 -1.1567,-1.843 -2.341,-3.637 -3.545,-5.359 -13.2652,6.553 -25.4234,17.555 -29.775,27.771"
         style="fill:#fbb015;fill-opacity:1;fill-rule:nonzero;stroke:none"
         id="path562"
         inkscape:connector-curvature="0" />
      <path
         d="m 99.8637,475.763 0.0058,0.016 c 4.4435,0.584 7.5165,2.556 8.8395,5.647 l -0.449,-1.011 c -1.047,-2.22 -1.173,-2.42 -3.311,-5.793 -1.604,-2.323 -4.415,-3.817 -8.2123,-4.315 1.1946,1.726 2.236,3.553 3.127,5.456"
         style="fill:#fbb015;fill-opacity:1;fill-rule:nonzero;stroke:none"
         id="path564"
         inkscape:connector-curvature="0" />
      <g
         transform="scale(0.1,0.1)"
         id="g566">
        <g
           id="g568"
           clip-path="url(#clipPath570)">
          <path
             d="m 411.207,5010.83 c -20.453,47.96 -20.769,87.48 -4.543,116.04 5.578,9.61 13.82,21.91 19.828,31.28 l 1.953,2.76 c -20.691,-29.02 -22.199,-71.27 0.035,-123.5 43.516,-102.16 165.098,-212.18 297.75,-277.71 11.696,-5.8 23.465,-11.24 35.293,-16.29 l -1.55,-2.19 c -5.739,-8.22 -11.461,-16.07 -17.157,-23.57 -56.261,24.05 -111.625,56.78 -161.086,94.31 l 0.172,0.27 c -78.293,59.37 -141.781,130.73 -170.695,198.6"
             style="fill:url(#linearGradient574);fill-opacity:1;fill-rule:nonzero;stroke:none"
             id="path580"
             inkscape:connector-curvature="0" />
        </g>
      </g>
      <path
         d="m 39.7898,498.613 c -1.8613,4.371 -2.0355,8.035 -0.7941,10.789 0.4574,1.004 1.1609,2.304 1.6707,3.285 -1.6226,-2.856 -1.591,-6.808 0.4543,-11.604 2.8914,-6.787 9.2402,-13.923 17.0695,-19.86 l -0.0172,-0.027 c -0.523,-0.763 -1.0222,-1.509 -1.4957,-2.226 -7.7464,5.874 -14.0281,12.933 -16.8875,19.643"
         style="fill:#00aca4;fill-opacity:1;fill-rule:nonzero;stroke:none"
         id="path582"
         inkscape:connector-curvature="0" />
      <path
         d="m 93.1047,465.69 c -3.118,-0.449 -6.9238,-0.202 -11.2871,0.837 0.6101,0.672 1.2152,1.383 1.8164,2.135 9.0297,-2.147 15.7012,-0.944 18.859,2.759 -0.726,-0.84 -1.766,-1.902 -2.5328,-2.709 -1.5997,-1.557 -3.9133,-2.584 -6.8352,-3.003 l -0.0203,-0.019"
         style="fill:#00aca4;fill-opacity:1;fill-rule:nonzero;stroke:none"
         id="path584"
         inkscape:connector-curvature="0" />
      <path
         d="m 39.2699,497.485 c -1.7773,4.165 -2.0058,7.688 -0.9297,10.381 l 0.6555,1.536 c -1.2414,-2.754 -1.0672,-6.418 0.7941,-10.789 2.8594,-6.71 9.1411,-13.769 16.8875,-19.643 3.9559,-3.003 8.3024,-5.697 12.7668,-7.878 -0.2695,-0.343 -0.5378,-0.676 -0.8039,-1.002 -3.5664,1.742 -7.0558,3.816 -10.3312,6.112 l 0.0547,0.082 c -8.7477,6.135 -15.9731,13.875 -19.0938,21.201"
         style="fill:#173558;fill-opacity:1;fill-rule:nonzero;stroke:none"
         id="path586"
         inkscape:connector-curvature="0" />
      <g
         transform="scale(0.1,0.1)"
         id="g588">
        <g
           id="g590"
           clip-path="url(#clipPath592)">
          <path
             d="m 931.047,4656.9 0.203,0.19 c 29.219,4.19 52.355,14.46 68.352,30.03 l -12.301,-11.5 c -15.746,-14.1 -37.793,-23.44 -65.223,-27.36 3.02,2.8 6.024,5.68 8.969,8.64"
             style="fill:url(#linearGradient596);fill-opacity:1;fill-rule:nonzero;stroke:none"
             id="path604"
             inkscape:connector-curvature="0" />
        </g>
      </g>
      <path
         d="m 37.7719,493.17 c -1.4184,3.327 -1.8063,6.223 -1.2957,8.593 0.3828,1.545 0.9879,3.588 1.4832,5.107 l 0.3808,0.996 c -1.0761,-2.693 -0.8476,-6.216 0.9297,-10.381 3.1207,-7.326 10.3461,-15.066 19.0938,-21.201 l -0.0547,-0.082 c -0.8145,-1.194 -1.5652,-2.306 -2.2516,-3.335 -8.3742,5.877 -15.2961,13.287 -18.2855,20.303"
         style="fill:#ffcf2a;fill-opacity:1;fill-rule:nonzero;stroke:none"
         id="path606"
         inkscape:connector-curvature="0" />
      <path
         d="m 92.2078,464.826 c 2.743,0.392 4.9477,1.326 6.5223,2.736 l -0.8313,-0.725 c -1.2644,-1.006 -3.0109,-2.276 -4.3402,-3.194 -1.3945,-0.886 -3.1481,-1.483 -5.2125,-1.767 l -0.0246,-0.015 c -2.3598,-0.319 -5.1281,-0.228 -8.2457,0.324 1.1492,0.861 2.282,1.846 3.3906,2.96 3.3129,-0.584 6.2492,-0.676 8.7414,-0.319"
         style="fill:#ffcf2a;fill-opacity:1;fill-rule:nonzero;stroke:none"
         id="path608"
         inkscape:connector-curvature="0" />
      <path
         d="m 37.3906,491.447 c -1.2633,2.969 -1.6871,5.585 -1.375,7.777 l 0.1742,1.09 0.2864,1.449 c -0.5106,-2.37 -0.1227,-5.266 1.2957,-8.593 2.9894,-7.016 9.9113,-14.426 18.2855,-20.303 3.0809,-2.161 6.3641,-4.114 9.7156,-5.766 -0.355,-0.385 -0.7066,-0.749 -1.0488,-1.098 -12.1715,5.988 -23.3418,16.078 -27.3336,25.444"
         style="fill:#173558;fill-opacity:1;fill-rule:nonzero;stroke:none"
         id="path610"
         inkscape:connector-curvature="0" />
      <path
         d="m 93.5586,463.643 -1.3004,-0.793 -1.0742,-0.605 c -1.2559,-0.677 -2.766,-1.147 -4.5055,-1.382 0.5555,0.31 1.102,0.643 1.643,0.998 l 0.0246,0.015 c 2.0644,0.284 3.818,0.881 5.2125,1.767"
         style="fill:#173558;fill-opacity:1;fill-rule:nonzero;stroke:none"
         id="path612"
         inkscape:connector-curvature="0" />
      <path
         d="m 71.3203,460.106 c 0.8613,0.778 1.761,1.715 2.5188,2.282 -3.0368,0.903 -6.1067,2.136 -9.1149,3.615 -12.1715,5.988 -23.3418,16.078 -27.3336,25.444 -0.698,1.64 -1.1304,3.167 -1.3336,4.58 0.0032,-0.284 0.0067,-0.515 0.0082,-0.704 -0.0183,0.165 -0.0418,0.329 -0.0574,0.495 0.0137,-0.645 0.0445,-1.281 0.086,-1.914 0.0019,-0.083 0.0031,-0.18 0.0062,-0.298 l 0.0176,-0.072 c 0.9875,-13.298 8.2586,-23.851 18.1683,-30.148 10.4731,-6.653 22.9895,-7.45 33.7239,-3.26 -5.2793,-1.172 -10.9844,-1.191 -16.6895,-0.02 z m 23.127,66.491 c -10.4711,6.653 -22.9879,7.452 -33.7215,3.262 10.0613,2.232 21.6746,0.326 31.8812,-6.159 10.206,-6.484 16.866,-16.189 19.121,-26.246 -0.767,11.498 -6.808,22.491 -17.2807,29.143 z M 36.057,496.027 c -0.009,0.693 -0.0215,1.702 -0.0414,3.197 -0.1406,-0.981 -0.123,-2.053 0.0414,-3.197"
         style="fill:#9bb52c;fill-opacity:1;fill-rule:nonzero;stroke:none"
         id="path614"
         inkscape:connector-curvature="0" />
    </g>
  </g>
</svg>
