<?xml version="1.0" encoding="UTF-8" standalone="no"?>
<!-- Created with Inkscape (http://www.inkscape.org/) -->

<svg
   xmlns:dc="http://purl.org/dc/elements/1.1/"
   xmlns:cc="http://creativecommons.org/ns#"
   xmlns:rdf="http://www.w3.org/1999/02/22-rdf-syntax-ns#"
   xmlns:svg="http://www.w3.org/2000/svg"
   xmlns="http://www.w3.org/2000/svg"
   xmlns:xlink="http://www.w3.org/1999/xlink"
   xmlns:sodipodi="http://sodipodi.sourceforge.net/DTD/sodipodi-0.dtd"
   xmlns:inkscape="http://www.inkscape.org/namespaces/inkscape"
   width="92.056999"
   height="92.105003"
   viewBox="0 0 92.056999 92.105006"
   id="svg5143"
   version="1.1"
   inkscape:version="0.91 r13725"
   sodipodi:docname="logo4.svg">
  <defs
     id="defs5145">
    <clipPath
       clipPathUnits="userSpaceOnUse"
       id="clipPath570">
      <path
         d="m 411.207,5010.83 c -20.453,47.96 -20.769,87.48 -4.543,116.04 5.578,9.61 13.82,21.91 19.828,31.28 l 1.953,2.76 c -20.691,-29.02 -22.199,-71.27 0.035,-123.5 43.516,-102.16 165.098,-212.18 297.75,-277.71 11.696,-5.8 23.465,-11.24 35.293,-16.29 l -1.55,-2.19 c -5.739,-8.22 -11.461,-16.07 -17.157,-23.57 -56.261,24.05 -111.625,56.78 -161.086,94.31 l 0.172,0.27 c -78.293,59.37 -141.781,130.73 -170.695,198.6 z"
         id="path572"
         inkscape:connector-curvature="0" />
    </clipPath>
    <linearGradient
       x1="0"
       y1="0"
       x2="1"
       y2="0"
       gradientUnits="userSpaceOnUse"
       gradientTransform="matrix(82.0871,-131.01,135.351,85.5351,412.632,5150.9)"
       spreadMethod="pad"
       id="linearGradient574">
      <stop
         style="stop-opacity:1;stop-color:#ff8183"
         offset="0"
         id="stop576" />
      <stop
         style="stop-opacity:1;stop-color:#ff1e28"
         offset="1"
         id="stop578" />
    </linearGradient>
    <clipPath
       clipPathUnits="userSpaceOnUse"
       id="clipPath592">
      <path
         d="m 931.047,4656.9 0.203,0.19 c 29.219,4.19 52.355,14.46 68.352,30.03 l -12.301,-11.5 c -15.746,-14.1 -37.793,-23.44 -65.223,-27.36 3.02,2.8 6.024,5.68 8.969,8.64 z"
         id="path594"
         inkscape:connector-curvature="0" />
    </clipPath>
    <linearGradient
       x1="0"
       y1="0"
       x2="1"
       y2="0"
       gradientUnits="userSpaceOnUse"
       gradientTransform="matrix(-76.8962,-1.27048,-1.27048,-76.0037,999.287,4668.32)"
       spreadMethod="pad"
       id="linearGradient596">
      <stop
         style="stop-opacity:1;stop-color:#c9e757"
         offset="0"
         id="stop598" />
      <stop
         style="stop-opacity:1;stop-color:#c9e757"
         offset="0.00063959"
         id="stop600" />
      <stop
         style="stop-opacity:1;stop-color:#7cab12"
         offset="1"
         id="stop602" />
    </linearGradient>
    <clipPath
       clipPathUnits="userSpaceOnUse"
       id="clipPath410">
      <path
         d="m 4980.59,4583.3 c -1.01,0 -2.05,0 -3.06,0.01 -112.17,0.92 -212.15,51.94 -279.05,131.6 1.8,-1.88 3.64,-3.76 5.51,-5.62 64.57,-64.29 142.03,-71.08 224.59,-71.08 11.05,0 22.18,0.12 33.39,0.24 11.21,0.13 22.5,0.25 33.83,0.25 45.7,0 92.27,-1.98 138.5,-13.88 l -14.12,-14.11 c -43.07,-17.68 -90.2,-27.41 -139.59,-27.41"
         id="path412"
         inkscape:connector-curvature="0" />
    </clipPath>
    <linearGradient
       x1="0"
       y1="0"
       x2="1"
       y2="0"
       gradientUnits="userSpaceOnUse"
       gradientTransform="matrix(-401.905,-401.905,401.905,-401.905,4768.13,4748.66)"
       spreadMethod="pad"
       id="linearGradient414">
      <stop
         style="stop-opacity:1;stop-color:#a59d8b"
         offset="0"
         id="stop416" />
      <stop
         style="stop-opacity:1;stop-color:#b7b0a0"
         offset="0.85147689"
         id="stop418" />
      <stop
         style="stop-opacity:1;stop-color:#b7b0a0"
         offset="1"
         id="stop420" />
    </linearGradient>
    <clipPath
       clipPathUnits="userSpaceOnUse"
       id="clipPath428">
      <path
         d="m 4637.51,4813.24 c -39.54,97.16 -37.32,210.09 14.31,309.1 l 62.9,62.89 c 0,0 -138.47,-196.43 -77.21,-371.87 0,-0.04 0,-0.08 0,-0.12"
         id="path430"
         inkscape:connector-curvature="0" />
    </clipPath>
    <linearGradient
       inkscape:collect="always"
       xlink:href="#linearGradient414"
       id="linearGradient5975"
       gradientUnits="userSpaceOnUse"
       gradientTransform="matrix(-401.905,-401.905,401.905,-401.905,4768.13,4748.66)"
       spreadMethod="pad"
       x1="0"
       y1="0"
       x2="1"
       y2="0" />
    <linearGradient
       inkscape:collect="always"
       xlink:href="#linearGradient414"
       id="linearGradient5977"
       gradientUnits="userSpaceOnUse"
       gradientTransform="matrix(-401.905,-401.905,401.905,-401.905,4768.13,4748.66)"
       spreadMethod="pad"
       x1="0"
       y1="0"
       x2="1"
       y2="0" />
  </defs>
  <sodipodi:namedview
     id="base"
     pagecolor="#ffffff"
     bordercolor="#666666"
     borderopacity="1.0"
     inkscape:pageopacity="0.0"
     inkscape:pageshadow="2"
     inkscape:zoom="0.98994949"
     inkscape:cx="390.74194"
     inkscape:cy="-64.941041"
     inkscape:document-units="px"
     inkscape:current-layer="layer1"
     showgrid="false"
     units="px"
     inkscape:window-width="1920"
     inkscape:window-height="1015"
     inkscape:window-x="1280"
     inkscape:window-y="0"
     inkscape:window-maximized="1"
     showborder="false" />
  <metadata
     id="metadata5148">
    <rdf:RDF>
      <cc:Work
         rdf:about="">
        <dc:format>image/svg+xml</dc:format>
        <dc:type
           rdf:resource="http://purl.org/dc/dcmitype/StillImage" />
        <dc:title></dc:title>
      </cc:Work>
    </rdf:RDF>
  </metadata>
  <g
     inkscape:label="Layer 1"
     inkscape:groupmode="layer"
     id="layer1"
     transform="translate(0,-960.25716)">
    <g
       transform="matrix(1.25,0,0,-1.25,-576.27403,1625.2743)"
       id="g4934">
      <path
         d="m 487.774,482.158 c 1.006,3.679 3.58,8.217 5.565,10.482 7.43,-3.182 15.366,-4.59 24.623,-1.721 -2.275,18.762 -14.021,32.147 -23.688,38.576 l 3.612,2.432 c 13.82,-8.783 27.136,-23.955 31.034,-47.193 -18.16,-8.708 -34.671,-4.767 -41.146,-2.576"
         style="fill:#9bb52c;fill-opacity:1;fill-rule:evenodd;stroke:none"
         id="path84"
         inkscape:connector-curvature="0" />
      <path
         d="m 491.567,510.537 c 2.684,-2.709 5.328,-7.208 6.297,-10.059 -6.47,-4.844 -11.659,-11.012 -13.802,-20.465 17.386,-7.41 34.85,-3.929 45.251,1.227 l 0.3,-4.342 c -14.515,-7.579 -34.313,-11.524 -56.385,-3.281 1.537,20.081 13.205,32.409 18.339,36.92"
         style="fill:#00aca4;fill-opacity:1;fill-rule:evenodd;stroke:none"
         id="path86"
         inkscape:connector-curvature="0" />
      <path
         d="m 514.249,493.063 c -3.689,-0.968 -8.906,-1.009 -11.86,-0.424 -0.958,8.027 -3.708,15.604 -10.821,22.187 -15.111,-11.353 -20.83,-28.218 -21.565,-39.803 l -3.91,1.911 c 0.695,16.36 7.175,35.479 25.353,50.473 16.62,-11.373 21.463,-27.643 22.803,-34.344"
         style="fill:#ee4443;fill-opacity:1;fill-rule:evenodd;stroke:none"
         id="path88"
         inkscape:connector-curvature="0" />
      <path
         d="m 468.863,472.716 c 6.672,-8.665 17.109,-14.289 28.89,-14.385 11.974,-0.098 22.656,5.532 29.455,14.326 -3.785,-2.06 -29.363,-14.783 -58.345,0.059"
         style="fill:#a59d89;fill-opacity:1;fill-rule:evenodd;stroke:none"
         id="path90"
         inkscape:connector-curvature="0" />
      <path
         d="m 493.108,531.745 c -10.841,-1.418 -20.948,-7.617 -26.95,-17.756 -6.098,-10.305 -6.597,-22.369 -2.407,-32.665 0.12,4.308 1.967,32.815 29.357,50.421"
         style="fill:#a59d89;fill-opacity:1;fill-rule:evenodd;stroke:none"
         id="path92"
         inkscape:connector-curvature="0" />
      <path
         d="m 502.575,532.014 c 10.843,-1.417 20.948,-7.617 26.95,-17.756 6.1,-10.303 6.597,-22.369 2.408,-32.665 -0.12,4.308 -1.966,32.816 -29.358,50.421"
         style="fill:#a59d89;fill-opacity:1;fill-rule:evenodd;stroke:none"
         id="path94"
         inkscape:connector-curvature="0" />
      <g
         transform="scale(0.1,0.1)"
         id="g406">
        <g
           id="g408"
           clip-path="url(#clipPath410)">
          <path
             d="m 4980.59,4583.3 c -1.01,0 -2.05,0 -3.06,0.01 -112.17,0.92 -212.15,51.94 -279.05,131.6 1.8,-1.88 3.64,-3.76 5.51,-5.62 64.57,-64.29 142.03,-71.08 224.59,-71.08 11.05,0 22.18,0.12 33.39,0.24 11.21,0.13 22.5,0.25 33.83,0.25 45.7,0 92.27,-1.98 138.5,-13.88 l -14.12,-14.11 c -43.07,-17.68 -90.2,-27.41 -139.59,-27.41"
             style="fill:url(#linearGradient5975);fill-opacity:1;fill-rule:nonzero;stroke:none"
             id="path422"
             inkscape:connector-curvature="0" />
        </g>
      </g>
      <g
         transform="scale(0.1,0.1)"
         id="g424">
        <g
           id="g426"
           clip-path="url(#clipPath428)">
          <path
             d="m 4637.51,4813.24 c -39.54,97.16 -37.32,210.09 14.31,309.1 l 62.9,62.89 c 0,0 -138.47,-196.43 -77.21,-371.87 0,-0.04 0,-0.08 0,-0.12"
             style="fill:url(#linearGradient5977);fill-opacity:1;fill-rule:nonzero;stroke:none"
             id="path440"
             inkscape:connector-curvature="0" />
        </g>
      </g>
    </g>
  </g>
</svg>
