<?xml version="1.0" encoding="UTF-8" standalone="no"?>
<!-- Created with Inkscape (http://www.inkscape.org/) -->

<svg
   xmlns:dc="http://purl.org/dc/elements/1.1/"
   xmlns:cc="http://creativecommons.org/ns#"
   xmlns:rdf="http://www.w3.org/1999/02/22-rdf-syntax-ns#"
   xmlns:svg="http://www.w3.org/2000/svg"
   xmlns="http://www.w3.org/2000/svg"
   xmlns:sodipodi="http://sodipodi.sourceforge.net/DTD/sodipodi-0.dtd"
   xmlns:inkscape="http://www.inkscape.org/namespaces/inkscape"
   width="102.535"
   height="102.312"
   viewBox="0 0 102.535 102.312"
   id="svg5143"
   version="1.1"
   inkscape:version="0.91 r13725"
   sodipodi:docname="logo5.svg">
  <defs
     id="defs5145">
    <clipPath
       clipPathUnits="userSpaceOnUse"
       id="clipPath570">
      <path
         d="m 411.207,5010.83 c -20.453,47.96 -20.769,87.48 -4.543,116.04 5.578,9.61 13.82,21.91 19.828,31.28 l 1.953,2.76 c -20.691,-29.02 -22.199,-71.27 0.035,-123.5 43.516,-102.16 165.098,-212.18 297.75,-277.71 11.696,-5.8 23.465,-11.24 35.293,-16.29 l -1.55,-2.19 c -5.739,-8.22 -11.461,-16.07 -17.157,-23.57 -56.261,24.05 -111.625,56.78 -161.086,94.31 l 0.172,0.27 c -78.293,59.37 -141.781,130.73 -170.695,198.6 z"
         id="path572"
         inkscape:connector-curvature="0" />
    </clipPath>
    <linearGradient
       x1="0"
       y1="0"
       x2="1"
       y2="0"
       gradientUnits="userSpaceOnUse"
       gradientTransform="matrix(82.0871,-131.01,135.351,85.5351,412.632,5150.9)"
       spreadMethod="pad"
       id="linearGradient574">
      <stop
         style="stop-opacity:1;stop-color:#ff8183"
         offset="0"
         id="stop576" />
      <stop
         style="stop-opacity:1;stop-color:#ff1e28"
         offset="1"
         id="stop578" />
    </linearGradient>
    <clipPath
       clipPathUnits="userSpaceOnUse"
       id="clipPath592">
      <path
         d="m 931.047,4656.9 0.203,0.19 c 29.219,4.19 52.355,14.46 68.352,30.03 l -12.301,-11.5 c -15.746,-14.1 -37.793,-23.44 -65.223,-27.36 3.02,2.8 6.024,5.68 8.969,8.64 z"
         id="path594"
         inkscape:connector-curvature="0" />
    </clipPath>
    <linearGradient
       x1="0"
       y1="0"
       x2="1"
       y2="0"
       gradientUnits="userSpaceOnUse"
       gradientTransform="matrix(-76.8962,-1.27048,-1.27048,-76.0037,999.287,4668.32)"
       spreadMethod="pad"
       id="linearGradient596">
      <stop
         style="stop-opacity:1;stop-color:#c9e757"
         offset="0"
         id="stop598" />
      <stop
         style="stop-opacity:1;stop-color:#c9e757"
         offset="0.00063959"
         id="stop600" />
      <stop
         style="stop-opacity:1;stop-color:#7cab12"
         offset="1"
         id="stop602" />
    </linearGradient>
    <clipPath
       clipPathUnits="userSpaceOnUse"
       id="clipPath410">
      <path
         d="m 4980.59,4583.3 c -1.01,0 -2.05,0 -3.06,0.01 -112.17,0.92 -212.15,51.94 -279.05,131.6 1.8,-1.88 3.64,-3.76 5.51,-5.62 64.57,-64.29 142.03,-71.08 224.59,-71.08 11.05,0 22.18,0.12 33.39,0.24 11.21,0.13 22.5,0.25 33.83,0.25 45.7,0 92.27,-1.98 138.5,-13.88 l -14.12,-14.11 c -43.07,-17.68 -90.2,-27.41 -139.59,-27.41"
         id="path412"
         inkscape:connector-curvature="0" />
    </clipPath>
    <linearGradient
       x1="0"
       y1="0"
       x2="1"
       y2="0"
       gradientUnits="userSpaceOnUse"
       gradientTransform="matrix(-401.905,-401.905,401.905,-401.905,4768.13,4748.66)"
       spreadMethod="pad"
       id="linearGradient414">
      <stop
         style="stop-opacity:1;stop-color:#a59d8b"
         offset="0"
         id="stop416" />
      <stop
         style="stop-opacity:1;stop-color:#b7b0a0"
         offset="0.85147689"
         id="stop418" />
      <stop
         style="stop-opacity:1;stop-color:#b7b0a0"
         offset="1"
         id="stop420" />
    </linearGradient>
    <clipPath
       clipPathUnits="userSpaceOnUse"
       id="clipPath428">
      <path
         d="m 4637.51,4813.24 c -39.54,97.16 -37.32,210.09 14.31,309.1 l 62.9,62.89 c 0,0 -138.47,-196.43 -77.21,-371.87 0,-0.04 0,-0.08 0,-0.12"
         id="path430"
         inkscape:connector-curvature="0" />
    </clipPath>
  </defs>
  <sodipodi:namedview
     id="base"
     pagecolor="#ffffff"
     bordercolor="#666666"
     borderopacity="1.0"
     inkscape:pageopacity="0.0"
     inkscape:pageshadow="2"
     inkscape:zoom="0.98994949"
     inkscape:cx="390.74194"
     inkscape:cy="-64.941041"
     inkscape:document-units="px"
     inkscape:current-layer="layer1"
     showgrid="false"
     units="px"
     inkscape:window-width="1920"
     inkscape:window-height="1015"
     inkscape:window-x="1280"
     inkscape:window-y="0"
     inkscape:window-maximized="1"
     showborder="false" />
  <metadata
     id="metadata5148">
    <rdf:RDF>
      <cc:Work
         rdf:about="">
        <dc:format>image/svg+xml</dc:format>
        <dc:type
           rdf:resource="http://purl.org/dc/dcmitype/StillImage" />
        <dc:title></dc:title>
      </cc:Work>
    </rdf:RDF>
  </metadata>
  <g
     inkscape:label="Layer 1"
     inkscape:groupmode="layer"
     id="layer1"
     transform="translate(0,-950.05016)">
    <g
       transform="matrix(1.25,0,0,-1.25,-38.337825,1441.201)"
       id="g4948">
      <path
         d="m 103.757,343.139 c -2.071,5.454 -5.4754,9.869 -9.8461,12.769 -0.214,0.142 -0.489,0.146 -0.7035,0.009 -0.2168,-0.139 -0.3304,-0.391 -0.291,-0.644 0.0856,-0.557 0.1406,-1.01 0.1805,-1.432 l 0.016,-0.095 c 0.034,-0.141 0.1168,-0.27 0.2324,-0.36 4.0246,-3.08 6.9947,-7.582 8.5887,-13.01 0.101,-0.355 0.192,-0.711 0.281,-1.072 0.935,-3.851 1.152,-7.921 0.644,-12.094 l 0.014,-0.23 c 0.047,-0.196 0.186,-0.363 0.38,-0.447 0.268,-0.109 0.579,-0.027 0.757,0.201 0.562,0.721 1.11,1.47 1.619,2.225 0.067,0.098 0.106,0.211 0.111,0.328 0.194,3.559 -0.116,7.039 -0.919,10.344 -0.29,1.191 -0.648,2.372 -1.064,3.508 z m -12.5246,20.143 c -0.25,0.061 -0.5105,-0.032 -0.6676,-0.235 -0.1175,-0.159 -0.1582,-0.359 -0.1128,-0.544 l 0.0625,-0.16 c 0.2316,-0.42 0.4507,-0.848 0.6496,-1.276 0.0769,-0.165 0.2191,-0.289 0.3925,-0.343 4.8418,-1.511 9.1794,-4.73 12.5414,-9.303 2.44,-3.373 4.215,-7.291 5.272,-11.644 l 0.093,-0.392 0.003,-0.009 c 0.068,-0.278 0.311,-0.479 0.599,-0.49 0.289,-0.014 0.553,0.169 0.642,0.445 0.284,0.88 0.545,1.782 0.772,2.68 0.025,0.102 0.025,0.21 0.001,0.31 l -0.01,0.036 c -1.403,4.6 -3.686,8.846 -6.605,12.283 -3.815,4.424 -8.5298,7.41 -13.6326,8.642 z m -5.0566,6.012 c -0.2535,-0.03 -0.4656,-0.208 -0.5426,-0.451 -0.034,-0.113 -0.0359,-0.232 -0.0102,-0.343 0.0333,-0.129 0.0997,-0.246 0.2036,-0.335 0.4039,-0.352 0.75,-0.673 1.0601,-0.984 0.1309,-0.129 0.3059,-0.196 0.4871,-0.19 5.0649,0.242 10.245,-1.298 14.9782,-4.447 3.554,-2.416 6.631,-5.593 9.148,-9.441 0.158,-0.242 0.461,-0.349 0.737,-0.263 0.276,0.09 0.46,0.352 0.449,0.641 -0.034,0.901 -0.1,1.822 -0.197,2.739 l -0.013,0.087 -0.112,0.234 c -2.898,3.85 -6.489,7.063 -10.394,9.289 -5.0946,2.878 -10.5563,4.075 -15.7942,3.464 z M 97.977,339.193 c -0.8036,3.31 -2.1711,6.292 -4.0637,8.861 -0.1512,0.207 -0.411,0.304 -0.661,0.246 -0.2496,-0.055 -0.4418,-0.252 -0.4929,-0.504 -0.0934,-0.483 -0.2063,-0.958 -0.3293,-1.413 -0.0262,-0.105 -0.0262,-0.214 -0.002,-0.318 l 0.0817,-0.194 c 1.3218,-2.081 2.3031,-4.423 2.9203,-6.963 0.6308,-2.598 0.8648,-5.351 0.6933,-8.174 -0.3222,-4.317 -1.5492,-8.596 -3.6507,-12.72 -0.0707,-0.143 -0.0848,-0.301 -0.0504,-0.447 0.0289,-0.121 0.0922,-0.233 0.1898,-0.322 0.2145,-0.196 0.5328,-0.227 0.7797,-0.074 0.7699,0.482 1.5406,1 2.2898,1.539 0.095,0.069 0.1692,0.161 0.2172,0.271 1.9,4.446 2.8985,9.192 2.8832,13.727 -0.032,2.232 -0.3019,4.413 -0.805,6.485 z m -18.5762,34.01 c -0.2262,-0.115 -0.368,-0.352 -0.3559,-0.608 l 0.0172,-0.12 c 0.0524,-0.204 0.1953,-0.373 0.3926,-0.453 0.457,-0.179 0.9027,-0.369 1.3266,-0.568 0.1652,-0.076 0.3542,-0.078 0.5234,-0.011 4.6777,1.953 10.0738,2.28 15.5992,0.954 4.1441,-1.04 8.1171,-2.976 11.8131,-5.752 0.231,-0.175 0.553,-0.174 0.782,0.004 0.205,0.157 0.293,0.419 0.233,0.664 l -0.028,0.09 c -0.346,0.853 -0.723,1.7 -1.118,2.517 -0.052,0.106 -0.131,0.196 -0.229,0.258 -4.037,2.625 -8.5078,4.416 -12.9382,5.181 -5.7762,0.939 -11.3176,0.195 -16.018,-2.156 z m -7.8586,0.767 0.032,-0.095 c 0.0996,-0.238 0.3281,-0.392 0.5828,-0.398 0.4551,-0.008 0.9313,-0.038 1.4176,-0.082 0.1844,-0.016 0.3645,0.044 0.4981,0.169 3.7238,3.445 8.6855,5.6 14.3429,6.229 4.259,0.437 8.643,-0.012 13.0324,-1.334 0.28,-0.084 0.578,0.027 0.734,0.273 0.094,0.15 0.119,0.33 0.079,0.498 -0.025,0.102 -0.073,0.198 -0.148,0.282 -0.606,0.667 -1.256,1.337 -1.931,1.991 -0.085,0.081 -0.191,0.137 -0.3054,0.163 -4.7102,1.072 -9.3731,1.207 -13.87,0.402 -5.7437,-1.092 -10.6906,-3.685 -14.3054,-7.499 -0.152,-0.163 -0.2094,-0.389 -0.159,-0.599 z m 11.3129,-61.448 c 0.1144,0.03 0.214,0.094 0.2957,0.18 3.2969,3.521 5.8496,7.637 7.3867,11.907 1.7801,5.104 2.1102,10.315 0.9559,15.068 -0.0829,0.34 -0.1715,0.674 -0.2704,1.008 -0.071,0.244 -0.2816,0.424 -0.5332,0.459 -0.2546,0.032 -0.505,-0.089 -0.6394,-0.306 -0.2203,-0.365 -0.4734,-0.749 -0.793,-1.207 -0.1027,-0.15 -0.1422,-0.332 -0.0996,-0.509 1.0934,-4.941 0.4723,-10.289 -1.7941,-15.462 -1.7586,-3.95 -4.3559,-7.546 -7.7231,-10.689 -0.1711,-0.162 -0.2398,-0.403 -0.1859,-0.628 l 0.0551,-0.144 c 0.134,-0.258 0.4238,-0.393 0.7086,-0.334 0.3816,0.083 0.764,0.168 1.1476,0.264 0.5,0.119 0.9977,0.252 1.4891,0.393 z m -18.8629,60.69 c -0.0551,-0.134 -0.0684,-0.278 -0.0352,-0.412 0.0266,-0.104 0.0766,-0.202 0.152,-0.286 0.1742,-0.186 0.439,-0.255 0.6824,-0.173 0.4277,0.145 0.8879,0.283 1.3691,0.412 0.1774,0.046 0.3254,0.165 0.4098,0.325 2.3235,4.513 6.2449,8.233 11.3352,10.761 3.8511,1.862 8.1215,2.938 12.6886,3.197 0.2899,0.015 0.5344,0.223 0.595,0.508 0.0218,0.099 0.0199,0.196 -0.002,0.289 -0.0426,0.176 -0.1594,0.33 -0.3273,0.419 -0.8153,0.431 -1.6395,0.834 -2.4532,1.195 -0.1058,0.049 -0.2265,0.067 -0.3421,0.051 -4.7618,-0.588 -9.3219,-2.092 -13.1985,-4.347 -5.0191,-2.993 -8.7801,-7.121 -10.8738,-11.939 z m -0.643,11.037 c -3.6976,-4.527 -5.8176,-9.689 -6.1387,-14.932 l 0.0168,-0.19 c 0.0446,-0.179 0.1633,-0.335 0.3301,-0.422 0.2278,-0.118 0.5016,-0.091 0.7028,0.068 0.3644,0.291 0.7398,0.572 1.1531,0.86 0.1488,0.105 0.2472,0.265 0.2715,0.447 0.6504,5.021 3.0632,9.854 6.9679,13.971 2.9938,3.068 6.6469,5.538 10.8602,7.345 0.2676,0.116 0.4258,0.394 0.3859,0.681 l -0.0105,0.067 c -0.0617,0.253 -0.2738,0.449 -0.5387,0.487 -0.8949,0.125 -1.8262,0.22 -2.7726,0.288 -0.1184,0.008 -0.2352,-0.014 -0.3422,-0.07 -4.2539,-2.18 -8.0168,-5.153 -10.8856,-8.6 z m 16.6742,-64.433 c 3.67,4.501 5.7903,9.631 6.1325,14.844 l -0.0164,0.195 c -0.0422,0.177 -0.161,0.332 -0.3297,0.42 -0.2278,0.119 -0.5028,0.091 -0.7008,-0.069 -0.3613,-0.287 -0.7391,-0.569 -1.1559,-0.86 -0.148,-0.104 -0.2465,-0.265 -0.2718,-0.445 -0.6602,-5.008 -3.0715,-9.812 -6.9668,-13.888 -3.0071,-3.104 -6.7067,-5.598 -10.9899,-7.408 -0.2676,-0.113 -0.4277,-0.391 -0.3906,-0.679 l 0.0133,-0.067 c 0.0625,-0.256 0.2738,-0.45 0.5375,-0.49 0.9101,-0.129 1.8332,-0.228 2.7429,-0.296 0.1149,-0.009 0.2344,0.013 0.3387,0.067 4.341,2.188 8.1613,5.188 11.057,8.676 z m -27.1929,59.637 c -1.777,-5.1 -2.1086,-10.301 -0.9575,-15.043 0.0911,-0.365 0.1868,-0.723 0.2903,-1.079 0.0722,-0.244 0.2824,-0.424 0.5363,-0.458 0.2535,-0.033 0.5035,0.089 0.6356,0.305 0.2218,0.366 0.4718,0.742 0.7859,1.188 0.1055,0.149 0.1426,0.335 0.1016,0.515 -1.1188,4.95 -0.5016,10.318 1.7828,15.518 1.7425,3.899 4.3125,7.463 7.6324,10.594 0.173,0.162 0.2394,0.4 0.1851,0.621 l -0.0554,0.149 c -0.1348,0.259 -0.4246,0.393 -0.7067,0.331 -0.3535,-0.074 -0.7074,-0.154 -1.0621,-0.241 -0.5242,-0.127 -1.0418,-0.268 -1.5597,-0.412 -0.1137,-0.033 -0.2161,-0.096 -0.2985,-0.182 -3.2695,-3.514 -5.7953,-7.595 -7.3101,-11.806 z m -7.4328,-14.604 c 0.8019,-3.312 2.1711,-6.294 4.0656,-8.862 0.1519,-0.203 0.4097,-0.301 0.6613,-0.244 0.2484,0.055 0.4406,0.251 0.491,0.5 0.0977,0.479 0.2098,0.946 0.3293,1.393 0.0313,0.107 0.0293,0.216 0.0043,0.321 l -0.0832,0.197 c -1.3351,2.084 -2.3269,4.431 -2.9441,6.974 -0.6321,2.6 -0.8582,5.36 -0.6754,8.196 0.3062,4.258 1.5172,8.502 3.6051,12.62 0.0703,0.141 0.0855,0.298 0.0511,0.443 -0.0293,0.122 -0.0937,0.236 -0.1922,0.325 -0.2132,0.196 -0.5328,0.226 -0.7792,0.071 -0.7911,-0.496 -1.5583,-1.013 -2.2844,-1.539 -0.0942,-0.069 -0.168,-0.162 -0.2145,-0.272 -1.8801,-4.43 -2.8625,-9.14 -2.8418,-13.625 0.0293,-2.235 0.3016,-4.421 0.8071,-6.498 z m 33.9453,-34.09 c 0.0578,0.132 0.0691,0.278 0.0379,0.412 -0.0258,0.104 -0.0762,0.201 -0.152,0.283 -0.173,0.19 -0.4406,0.26 -0.6816,0.177 -0.436,-0.146 -0.8848,-0.28 -1.375,-0.412 -0.1743,-0.048 -0.3223,-0.165 -0.4047,-0.326 -2.3344,-4.482 -6.2434,-8.173 -11.3074,-10.67 -3.8207,-1.859 -8.2508,-2.972 -12.8059,-3.217 -0.2898,-0.017 -0.5348,-0.222 -0.5945,-0.506 -0.0227,-0.097 -0.0188,-0.197 0.0027,-0.291 0.0422,-0.176 0.1578,-0.329 0.3262,-0.418 0.8156,-0.437 1.6308,-0.838 2.4226,-1.193 0.1059,-0.05 0.2246,-0.068 0.3414,-0.052 4.8161,0.573 9.4301,2.081 13.3493,4.361 4.9882,2.974 8.7386,7.072 10.841,11.852 z m -39.727,30.159 c 2.0598,-5.457 5.4602,-9.87 9.8258,-12.764 0.2113,-0.141 0.4902,-0.144 0.7047,-0.006 0.2156,0.14 0.3297,0.391 0.2922,0.643 -0.0774,0.494 -0.1379,0.98 -0.1785,1.441 l -0.0161,0.098 c -0.0332,0.143 -0.1148,0.27 -0.2324,0.36 -4.0035,3.077 -6.9679,7.573 -8.5738,12.99 -0.0984,0.351 -0.1906,0.706 -0.2777,1.063 -0.9301,3.826 -1.1504,7.874 -0.6524,12.031 l -0.014,0.227 c -0.0461,0.198 -0.1872,0.366 -0.3825,0.446 -0.2683,0.112 -0.5765,0.03 -0.755,-0.2 -0.5696,-0.731 -1.1114,-1.477 -1.6145,-2.218 -0.0645,-0.099 -0.1035,-0.212 -0.1109,-0.329 -0.186,-3.542 0.125,-7.003 0.9222,-10.286 0.2907,-1.192 0.6473,-2.365 1.0629,-3.496 z m 32.159,-30.907 -0.0312,0.095 c -0.0977,0.236 -0.3274,0.393 -0.5833,0.4 -0.4597,0.01 -0.9371,0.036 -1.4593,0.084 -0.1801,0.018 -0.3594,-0.043 -0.4938,-0.163 -3.7246,-3.392 -8.6539,-5.522 -14.248,-6.159 -4.3145,-0.43 -8.736,0.03 -13.1442,1.368 -0.2797,0.085 -0.5785,-0.026 -0.7336,-0.271 -0.0961,-0.152 -0.1226,-0.332 -0.0816,-0.499 0.0242,-0.102 0.0738,-0.198 0.1449,-0.279 0.5871,-0.655 1.2051,-1.296 1.886,-1.96 0.0843,-0.082 0.1886,-0.14 0.3015,-0.166 4.7258,-1.106 9.5754,-1.267 14.0309,-0.466 5.7207,1.077 10.6472,3.643 14.2496,7.419 0.1527,0.16 0.2141,0.386 0.1621,0.597 z m -19.6926,10.775 c 0.2469,-0.061 0.5074,0.031 0.6637,0.233 0.1227,0.157 0.1598,0.36 0.1156,0.547 l -0.0594,0.155 c -0.2164,0.399 -0.4277,0.819 -0.6429,1.289 -0.077,0.164 -0.2199,0.291 -0.3938,0.346 -4.8148,1.514 -9.1328,4.724 -12.4879,9.278 -2.4578,3.402 -4.241,7.343 -5.305,11.716 l -0.0657,0.274 c -0.0691,0.28 -0.3109,0.479 -0.5996,0.492 -0.2906,0.013 -0.5515,-0.17 -0.6414,-0.444 -0.2777,-0.854 -0.5332,-1.734 -0.7578,-2.618 -0.0273,-0.102 -0.0273,-0.21 -0.0019,-0.312 l 0.0085,-0.034 c 1.4082,-4.628 3.6875,-8.877 6.595,-12.292 3.8004,-4.415 8.4922,-7.402 13.5726,-8.63 z m 11.7903,-9.974 c 0.2293,0.114 0.3699,0.351 0.3613,0.607 l -0.0184,0.127 c -0.05,0.2 -0.1953,0.37 -0.3926,0.447 -0.446,0.175 -0.8871,0.366 -1.3187,0.568 -0.1629,0.078 -0.3543,0.082 -0.5203,0.013 -4.6586,-1.927 -10.0246,-2.242 -15.5149,-0.91 -4.1785,1.057 -8.1679,2.995 -11.8554,5.762 -0.2324,0.173 -0.55,0.173 -0.7809,-0.005 -0.2055,-0.157 -0.2945,-0.421 -0.2336,-0.665 l 0.0274,-0.088 c 0.3375,-0.842 0.7136,-1.696 1.1183,-2.535 0.0516,-0.11 0.1313,-0.2 0.2309,-0.264 4.0828,-2.653 8.4484,-4.39 12.9785,-5.165 5.7309,-0.928 11.2371,-0.199 15.9184,2.108 z m -6.7797,3.952 c 0.2543,0.028 0.4683,0.204 0.5461,0.448 0.0363,0.114 0.0418,0.234 0.0125,0.346 -0.0305,0.126 -0.0989,0.242 -0.1996,0.332 -0.4016,0.357 -0.7442,0.679 -1.0465,0.985 -0.1301,0.127 -0.3063,0.197 -0.4875,0.189 -5.0434,-0.218 -10.1946,1.322 -14.8926,4.452 -3.5043,2.371 -6.6742,5.647 -9.1625,9.474 -0.1582,0.241 -0.4582,0.351 -0.7359,0.263 -0.277,-0.089 -0.4622,-0.35 -0.4524,-0.639 0.0293,-0.87 0.0949,-1.792 0.1914,-2.74 l 0.0133,-0.087 0.1129,-0.236 c 2.9019,-3.86 6.5,-7.085 10.4156,-9.326 5.0727,-2.833 10.4965,-4.03 15.6852,-3.461"
         style="fill:#a59d89;fill-opacity:1;fill-rule:nonzero;stroke:none"
         id="path1132"
         inkscape:connector-curvature="0" />
      <path
         d="m 95.4578,378.175 c -0.8019,3.304 -2.1226,6.538 -3.9273,9.613 -0.0586,0.101 -0.1453,0.184 -0.2489,0.239 -0.8011,0.437 -1.6296,0.851 -2.4601,1.235 -0.2641,0.119 -0.5758,0.052 -0.7645,-0.171 -0.1347,-0.162 -0.1808,-0.374 -0.1328,-0.57 l 0.0938,-0.211 c 2.366,-3.475 4.0406,-7.19 4.9738,-11.042 0.0887,-0.361 0.1703,-0.72 0.2437,-1.079 1.0731,-5.555 0.5004,-10.918 -1.6628,-15.501 -0.0625,-0.135 -0.0778,-0.286 -0.0422,-0.429 l 0.03,-0.092 c 0.159,-0.39 0.3168,-0.821 0.4954,-1.353 0.0812,-0.243 0.2976,-0.415 0.5546,-0.439 0.254,-0.024 0.4985,0.106 0.6219,0.33 2.552,4.581 3.552,10.068 2.8883,15.863 -0.15,1.202 -0.3727,2.414 -0.6629,3.607 z m 6.9262,-13.318 c 1.016,4.394 1.097,9.213 0.234,13.944 l -0.008,0.037 c -0.025,0.102 -0.074,0.196 -0.143,0.274 -0.613,0.696 -1.259,1.378 -1.916,2.027 -0.205,0.205 -0.524,0.247 -0.774,0.103 -0.2504,-0.142 -0.3754,-0.432 -0.3075,-0.711 l 0.0024,-0.009 0.0972,-0.391 c 1.0569,-4.354 1.2779,-8.648 0.6549,-12.764 -0.8873,-5.606 -3.265,-10.457 -6.876,-14.02 -0.1277,-0.129 -0.198,-0.304 -0.191,-0.486 0.0203,-0.472 0.0223,-0.953 0.0078,-1.43 l 0.0172,-0.172 c 0.0465,-0.185 0.1754,-0.345 0.3528,-0.429 0.2312,-0.112 0.5062,-0.074 0.7007,0.093 3.968,3.436 6.7865,8.253 8.1485,13.934 z m 2.561,-11.269 c 2.447,3.768 4.164,8.27 4.974,13.02 l -0.009,0.259 -0.029,0.084 c -0.334,0.86 -0.698,1.709 -1.08,2.523 -0.122,0.264 -0.405,0.41 -0.693,0.364 -0.285,-0.049 -0.504,-0.284 -0.535,-0.57 -0.471,-4.574 -1.748,-8.81 -3.797,-12.588 -2.761,-4.968 -6.6588,-8.714 -11.2694,-10.823 -0.1636,-0.077 -0.2878,-0.217 -0.3461,-0.392 -0.1308,-0.417 -0.2929,-0.862 -0.4902,-1.359 -0.0508,-0.128 -0.0586,-0.262 -0.0254,-0.392 0.0266,-0.109 0.0824,-0.214 0.1653,-0.3 0.18,-0.182 0.45,-0.241 0.6882,-0.151 4.9356,1.86 9.2376,5.43 12.4466,10.325 z m -18.0278,27.967 c -2.0692,4.036 -5.1324,7.794 -8.8609,10.876 -0.0907,0.075 -0.2004,0.122 -0.3153,0.139 -0.9148,0.136 -1.8363,0.244 -2.741,0.317 -0.2883,0.022 -0.5598,-0.148 -0.6582,-0.423 -0.0453,-0.122 -0.0527,-0.252 -0.0227,-0.374 0.0344,-0.146 0.1235,-0.279 0.2512,-0.373 3.759,-2.701 6.8121,-5.94 9.0777,-9.628 1.4477,-2.429 2.5028,-4.983 3.1336,-7.58 0.6172,-2.541 0.8184,-5.074 0.6012,-7.527 l 0.0152,-0.21 c 0.0262,-0.104 0.0778,-0.202 0.1489,-0.282 0.316,-0.348 0.6332,-0.718 0.9394,-1.106 0.1621,-0.2 0.4231,-0.286 0.6715,-0.221 0.2477,0.064 0.4336,0.27 0.4738,0.523 0.5012,3.151 0.3493,6.426 -0.4558,9.737 -0.5024,2.072 -1.2621,4.136 -2.2586,6.132 z m 16.5768,-39.44 c 3.587,2.711 6.738,6.353 9.12,10.537 0.058,0.1 0.089,0.217 0.084,0.335 -0.021,0.907 -0.077,1.832 -0.161,2.748 l -0.015,0.094 c -0.059,0.246 -0.257,0.437 -0.512,0.483 -0.285,0.052 -0.572,-0.094 -0.697,-0.354 -2.009,-4.161 -4.654,-7.705 -7.859,-10.532 -4.2993,-3.714 -9.2438,-5.897 -14.2981,-6.306 -0.1801,-0.017 -0.3477,-0.108 -0.4582,-0.251 -0.2872,-0.371 -0.5954,-0.746 -0.9196,-1.115 -0.1394,-0.162 -0.1898,-0.378 -0.1414,-0.58 l 0.0403,-0.117 c 0.1078,-0.23 0.339,-0.377 0.5968,-0.375 5.2528,0.067 10.5188,1.948 15.2202,5.433 z M 82.0586,331.937 c 4.9609,-1.732 10.5469,-1.767 16.15,-0.102 4.3654,1.346 8.4474,3.606 12.1404,6.718 0.09,0.077 0.158,0.175 0.195,0.288 0.301,0.889 0.573,1.785 0.803,2.653 0.029,0.108 0.028,0.217 0.004,0.32 -0.042,0.166 -0.147,0.314 -0.301,0.404 -0.249,0.147 -0.567,0.108 -0.776,-0.092 -3.294,-3.189 -6.984,-5.599 -10.9705,-7.163 -5.3129,-2.037 -10.7117,-2.398 -15.6,-1.047 -0.1754,0.048 -0.364,0.021 -0.5195,-0.077 -0.4113,-0.263 -0.8203,-0.507 -1.2238,-0.724 -0.2239,-0.122 -0.3547,-0.365 -0.3332,-0.62 l 0.0152,-0.101 c 0.0492,-0.211 0.2058,-0.384 0.4164,-0.457 z m -20.0598,59.916 c -0.382,-0.093 -0.764,-0.192 -1.1394,-0.296 -0.2797,-0.075 -0.475,-0.329 -0.4762,-0.62 l 0.0191,-0.153 c 0.0547,-0.224 0.2247,-0.406 0.4524,-0.472 4.432,-1.247 8.3926,-3.251 11.7652,-5.955 4.3875,-3.558 7.3903,-8.025 8.6867,-12.916 0.0454,-0.175 0.1629,-0.323 0.3235,-0.406 0.4929,-0.259 0.8937,-0.487 1.259,-0.71 0.2183,-0.133 0.4953,-0.123 0.7047,0.022 0.2093,0.146 0.314,0.402 0.2656,0.654 -0.0656,0.341 -0.1406,0.678 -0.2211,1.016 -1.1547,4.754 -3.8395,9.232 -7.7621,12.953 -3.3254,3.087 -7.4824,5.574 -12.027,7.191 -0.1105,0.04 -0.2304,0.049 -0.3465,0.024 -0.5004,-0.101 -1.0031,-0.211 -1.5039,-0.332 z m 27.7254,-67.869 c 4.4801,-0.225 9.2238,0.531 13.7218,2.192 0.11,0.04 0.208,0.11 0.281,0.202 0.556,0.696 1.105,1.432 1.632,2.188 0.108,0.155 0.139,0.346 0.099,0.522 -0.024,0.093 -0.068,0.18 -0.134,0.259 -0.185,0.223 -0.496,0.296 -0.76,0.177 -4.177,-1.863 -8.4656,-2.865 -12.7417,-2.979 -5.6828,-0.088 -10.8743,1.418 -15.0094,4.359 -0.1469,0.105 -0.334,0.144 -0.5109,0.104 -0.4868,-0.106 -0.9606,-0.195 -1.4067,-0.263 -0.2527,-0.039 -0.4566,-0.221 -0.5265,-0.468 -0.029,-0.108 -0.029,-0.218 -0.0032,-0.323 0.0305,-0.134 0.1071,-0.256 0.2188,-0.349 4.0726,-3.322 9.3051,-5.265 15.1398,-5.621 z m 2.9715,-7.129 c 0.1184,-0.001 0.2328,0.032 0.3356,0.095 0.8089,0.494 1.5949,1.007 2.3304,1.528 0.2176,0.153 0.316,0.425 0.2543,0.68 l -0.0199,0.064 c -0.0965,0.274 -0.3641,0.447 -0.6543,0.427 -4.573,-0.328 -8.9531,0.191 -13.0199,1.545 -5.3594,1.866 -9.7203,5.055 -12.6028,9.217 -0.1023,0.15 -0.2644,0.249 -0.4445,0.272 -0.4984,0.067 -0.9605,0.145 -1.4183,0.237 -0.2528,0.048 -0.5086,-0.053 -0.6555,-0.263 -0.1098,-0.154 -0.143,-0.347 -0.0996,-0.526 l 0.0715,-0.177 c 2.6898,-4.511 6.9425,-8.126 12.3035,-10.451 4.1301,-1.747 8.8383,-2.662 13.6195,-2.648 z m -42.1676,70.187 c -0.1156,0 -0.2336,-0.034 -0.3324,-0.095 -0.7758,-0.477 -1.5488,-0.99 -2.2988,-1.523 -0.2188,-0.156 -0.3164,-0.426 -0.2528,-0.68 l 0.018,-0.067 c 0.0996,-0.274 0.3676,-0.445 0.6586,-0.424 4.6387,0.357 9.0672,-0.163 13.1629,-1.54 5.3332,-1.837 9.6789,-4.998 12.5633,-9.145 0.1035,-0.148 0.2656,-0.248 0.4457,-0.271 0.5023,-0.069 0.9676,-0.145 1.4195,-0.235 0.2496,-0.05 0.5082,0.051 0.6555,0.262 0.1105,0.153 0.1429,0.345 0.0996,0.524 l -0.075,0.179 c -2.6934,4.475 -6.9336,8.062 -12.2586,10.376 -4.1727,1.773 -8.9434,2.686 -13.8055,2.639 z m 28.9145,-75.241 c 0.1105,-0.039 0.2293,-0.047 0.3469,-0.024 0.5265,0.11 1.0511,0.223 1.5765,0.352 0.3543,0.084 0.7047,0.174 1.0528,0.268 0.2808,0.076 0.4742,0.329 0.4781,0.619 l -0.0199,0.16 c -0.0524,0.22 -0.2211,0.403 -0.4497,0.465 -4.3863,1.261 -8.3043,3.25 -11.6421,5.913 -4.4161,3.573 -7.4274,8.059 -8.7028,12.971 -0.0472,0.177 -0.164,0.327 -0.3281,0.41 -0.4816,0.254 -0.877,0.473 -1.2422,0.696 -0.2183,0.132 -0.4949,0.124 -0.7035,-0.021 -0.2125,-0.146 -0.3148,-0.4 -0.2664,-0.652 0.0699,-0.363 0.1476,-0.727 0.2359,-1.091 1.1532,-4.743 3.8328,-9.213 7.7516,-12.928 3.2766,-3.048 7.3937,-5.514 11.9129,-7.138 z M 56.4898,322.36 c 2.0383,-3.995 5.0723,-7.728 8.7758,-10.802 0.0907,-0.075 0.1992,-0.125 0.3149,-0.142 0.8863,-0.135 1.8062,-0.243 2.7363,-0.321 0.2902,-0.022 0.5598,0.148 0.6582,0.421 0.0484,0.123 0.0523,0.254 0.0223,0.376 -0.0356,0.147 -0.1207,0.278 -0.2489,0.37 -3.7433,2.702 -6.7683,5.919 -8.9902,9.563 -1.4668,2.434 -2.5309,4.99 -3.1609,7.591 -0.6192,2.544 -0.8145,5.083 -0.5828,7.547 l -0.018,0.213 c -0.0254,0.104 -0.0766,0.203 -0.1512,0.285 -0.3109,0.339 -0.6242,0.705 -0.9305,1.085 -0.1593,0.199 -0.4203,0.285 -0.6668,0.218 -0.2492,-0.063 -0.4332,-0.269 -0.4746,-0.52 -0.5062,-3.15 -0.3539,-6.427 0.4524,-9.738 0.5023,-2.078 1.2629,-4.146 2.264,-6.146 z m -2.8097,57.566 c -4.5293,0.229 -9.3215,-0.548 -13.8625,-2.246 -0.1102,-0.042 -0.2067,-0.111 -0.2821,-0.204 -0.5382,-0.68 -1.0789,-1.41 -1.6042,-2.173 -0.1083,-0.155 -0.1391,-0.345 -0.0969,-0.52 0.023,-0.093 0.0676,-0.183 0.132,-0.262 0.184,-0.223 0.4949,-0.293 0.7598,-0.174 4.1605,1.871 8.6051,2.914 12.8558,3.015 5.6438,0.103 10.8098,-1.382 14.9399,-4.294 0.1469,-0.104 0.332,-0.141 0.5101,-0.103 0.4969,0.108 0.9567,0.195 1.4082,0.264 0.2539,0.039 0.4606,0.222 0.527,0.47 0.0301,0.107 0.0301,0.217 0.0051,0.32 -0.0332,0.135 -0.1102,0.26 -0.2219,0.351 -4.0613,3.282 -9.2731,5.203 -15.0703,5.556 z m -5.7348,-54.172 c 0.7969,-3.285 2.1098,-6.503 3.8977,-9.566 0.0633,-0.1 0.1476,-0.182 0.2515,-0.239 0.7864,-0.428 1.6086,-0.844 2.4524,-1.233 0.2629,-0.121 0.5726,-0.05 0.7605,0.169 0.1383,0.161 0.186,0.376 0.1375,0.572 l -0.0937,0.209 c -2.3489,3.465 -4.0082,7.162 -4.9387,10.989 -0.0879,0.357 -0.1676,0.717 -0.2426,1.074 -1.057,5.549 -0.4836,10.903 1.6598,15.474 0.0633,0.134 0.0766,0.287 0.0433,0.428 l -0.03,0.092 c -0.1785,0.43 -0.3473,0.889 -0.5055,1.363 -0.0809,0.242 -0.298,0.414 -0.5539,0.439 -0.2531,0.023 -0.4981,-0.107 -0.6238,-0.33 -2.55,-4.576 -3.5465,-10.056 -2.875,-15.848 0.1488,-1.197 0.3695,-2.403 0.6605,-3.593 z m 13.3188,46.266 c -4.9336,1.702 -10.4871,1.721 -16.0637,0.055 -4.3289,-1.333 -8.5633,-3.702 -12.2547,-6.851 -0.0883,-0.076 -0.1559,-0.176 -0.193,-0.289 -0.3,-0.901 -0.5535,-1.754 -0.7754,-2.603 -0.0261,-0.107 -0.0261,-0.215 -7e-4,-0.317 0.039,-0.164 0.1441,-0.316 0.3,-0.405 0.2515,-0.146 0.5687,-0.109 0.7761,0.095 3.3036,3.213 7.0227,5.65 11.0524,7.245 5.2625,2 10.6199,2.369 15.4863,1.065 0.1746,-0.045 0.3613,-0.017 0.5149,0.081 0.439,0.281 0.8515,0.526 1.2566,0.744 0.2234,0.124 0.3562,0.367 0.3344,0.622 l -0.016,0.099 c -0.0508,0.211 -0.2067,0.386 -0.4172,0.459 z M 41.0266,339.058 c -1.0168,-4.365 -1.0934,-9.187 -0.2231,-13.945 l 0.0086,-0.036 c 0.0246,-0.103 0.0731,-0.198 0.1449,-0.278 0.6071,-0.681 1.236,-1.346 1.8735,-1.977 0.2062,-0.202 0.5234,-0.245 0.775,-0.1 0.2504,0.143 0.3746,0.432 0.3062,0.712 l -0.0676,0.275 c -1.0597,4.371 -1.2836,8.692 -0.6593,12.844 0.8918,5.585 3.2578,10.418 6.8402,13.972 0.1277,0.127 0.1961,0.307 0.1895,0.487 -0.0227,0.516 -0.0293,0.988 -0.0196,1.439 l -0.0191,0.167 c -0.0453,0.187 -0.1707,0.349 -0.3531,0.432 -0.2309,0.109 -0.5036,0.072 -0.6965,-0.097 -3.9485,-3.421 -6.7496,-8.226 -8.0996,-13.895 z m -1.1118,22.738 c -3.6683,-2.766 -6.7492,-6.314 -9.1613,-10.543 -0.0594,-0.103 -0.0887,-0.22 -0.0824,-0.341 0.023,-0.931 0.0805,-1.864 0.168,-2.768 l 0.0129,-0.089 c 0.0605,-0.246 0.2589,-0.438 0.5148,-0.482 0.2855,-0.054 0.5672,0.092 0.6961,0.352 2.0094,4.151 4.6641,7.703 7.8922,10.56 4.2683,3.701 9.1777,5.883 14.2012,6.307 0.182,0.017 0.3492,0.107 0.4589,0.251 0.2903,0.377 0.5938,0.75 0.9102,1.109 0.1394,0.161 0.191,0.377 0.1418,0.578 l -0.0422,0.123 c -0.1051,0.229 -0.3414,0.377 -0.5973,0.372 -5.2191,-0.097 -10.4449,-1.976 -15.1129,-5.429 z m -1.4503,-11.463 c -2.4493,-3.791 -4.1676,-8.304 -4.9739,-13.066 l 0.009,-0.261 0.0254,-0.083 c 0.3488,-0.888 0.7168,-1.737 1.0887,-2.522 0.1242,-0.264 0.4078,-0.41 0.6937,-0.361 0.286,0.05 0.5035,0.283 0.534,0.571 0.457,4.543 1.7695,8.908 3.7957,12.622 2.7375,4.936 6.609,8.668 11.1899,10.788 0.1652,0.074 0.2921,0.219 0.3453,0.392 0.13,0.411 0.2863,0.852 0.4804,1.354 0.0485,0.126 0.0551,0.26 0.025,0.385 -0.0273,0.114 -0.0843,0.219 -0.1711,0.303 -0.18,0.182 -0.4519,0.239 -0.6906,0.149 -4.8711,-1.875 -9.1422,-5.427 -12.3515,-10.271"
         style="fill:#00aca4;fill-opacity:1;fill-rule:nonzero;stroke:none"
         id="path1134"
         inkscape:connector-curvature="0" />
    </g>
  </g>
</svg>
