<?xml version="1.0" encoding="UTF-8" standalone="no"?>
<!-- Created with Inkscape (http://www.inkscape.org/) -->

<svg
   xmlns:dc="http://purl.org/dc/elements/1.1/"
   xmlns:cc="http://creativecommons.org/ns#"
   xmlns:rdf="http://www.w3.org/1999/02/22-rdf-syntax-ns#"
   xmlns:svg="http://www.w3.org/2000/svg"
   xmlns="http://www.w3.org/2000/svg"
   xmlns:sodipodi="http://sodipodi.sourceforge.net/DTD/sodipodi-0.dtd"
   xmlns:inkscape="http://www.inkscape.org/namespaces/inkscape"
   width="112.072"
   height="94.478996"
   viewBox="0 0 112.07199 94.479"
   id="svg5143"
   version="1.1"
   inkscape:version="0.91 r13725"
   sodipodi:docname="logo6.svg">
  <defs
     id="defs5145">
    <clipPath
       clipPathUnits="userSpaceOnUse"
       id="clipPath570">
      <path
         d="m 411.207,5010.83 c -20.453,47.96 -20.769,87.48 -4.543,116.04 5.578,9.61 13.82,21.91 19.828,31.28 l 1.953,2.76 c -20.691,-29.02 -22.199,-71.27 0.035,-123.5 43.516,-102.16 165.098,-212.18 297.75,-277.71 11.696,-5.8 23.465,-11.24 35.293,-16.29 l -1.55,-2.19 c -5.739,-8.22 -11.461,-16.07 -17.157,-23.57 -56.261,24.05 -111.625,56.78 -161.086,94.31 l 0.172,0.27 c -78.293,59.37 -141.781,130.73 -170.695,198.6 z"
         id="path572"
         inkscape:connector-curvature="0" />
    </clipPath>
    <linearGradient
       x1="0"
       y1="0"
       x2="1"
       y2="0"
       gradientUnits="userSpaceOnUse"
       gradientTransform="matrix(82.0871,-131.01,135.351,85.5351,412.632,5150.9)"
       spreadMethod="pad"
       id="linearGradient574">
      <stop
         style="stop-opacity:1;stop-color:#ff8183"
         offset="0"
         id="stop576" />
      <stop
         style="stop-opacity:1;stop-color:#ff1e28"
         offset="1"
         id="stop578" />
    </linearGradient>
    <clipPath
       clipPathUnits="userSpaceOnUse"
       id="clipPath592">
      <path
         d="m 931.047,4656.9 0.203,0.19 c 29.219,4.19 52.355,14.46 68.352,30.03 l -12.301,-11.5 c -15.746,-14.1 -37.793,-23.44 -65.223,-27.36 3.02,2.8 6.024,5.68 8.969,8.64 z"
         id="path594"
         inkscape:connector-curvature="0" />
    </clipPath>
    <linearGradient
       x1="0"
       y1="0"
       x2="1"
       y2="0"
       gradientUnits="userSpaceOnUse"
       gradientTransform="matrix(-76.8962,-1.27048,-1.27048,-76.0037,999.287,4668.32)"
       spreadMethod="pad"
       id="linearGradient596">
      <stop
         style="stop-opacity:1;stop-color:#c9e757"
         offset="0"
         id="stop598" />
      <stop
         style="stop-opacity:1;stop-color:#c9e757"
         offset="0.00063959"
         id="stop600" />
      <stop
         style="stop-opacity:1;stop-color:#7cab12"
         offset="1"
         id="stop602" />
    </linearGradient>
    <clipPath
       clipPathUnits="userSpaceOnUse"
       id="clipPath410">
      <path
         d="m 4980.59,4583.3 c -1.01,0 -2.05,0 -3.06,0.01 -112.17,0.92 -212.15,51.94 -279.05,131.6 1.8,-1.88 3.64,-3.76 5.51,-5.62 64.57,-64.29 142.03,-71.08 224.59,-71.08 11.05,0 22.18,0.12 33.39,0.24 11.21,0.13 22.5,0.25 33.83,0.25 45.7,0 92.27,-1.98 138.5,-13.88 l -14.12,-14.11 c -43.07,-17.68 -90.2,-27.41 -139.59,-27.41"
         id="path412"
         inkscape:connector-curvature="0" />
    </clipPath>
    <linearGradient
       x1="0"
       y1="0"
       x2="1"
       y2="0"
       gradientUnits="userSpaceOnUse"
       gradientTransform="matrix(-401.905,-401.905,401.905,-401.905,4768.13,4748.66)"
       spreadMethod="pad"
       id="linearGradient414">
      <stop
         style="stop-opacity:1;stop-color:#a59d8b"
         offset="0"
         id="stop416" />
      <stop
         style="stop-opacity:1;stop-color:#b7b0a0"
         offset="0.85147689"
         id="stop418" />
      <stop
         style="stop-opacity:1;stop-color:#b7b0a0"
         offset="1"
         id="stop420" />
    </linearGradient>
    <clipPath
       clipPathUnits="userSpaceOnUse"
       id="clipPath428">
      <path
         d="m 4637.51,4813.24 c -39.54,97.16 -37.32,210.09 14.31,309.1 l 62.9,62.89 c 0,0 -138.47,-196.43 -77.21,-371.87 0,-0.04 0,-0.08 0,-0.12"
         id="path430"
         inkscape:connector-curvature="0" />
    </clipPath>
    <clipPath
       clipPathUnits="userSpaceOnUse"
       id="clipPath130">
      <path
         d="m 1791.77,3712.35 1.63,2.54 -1.63,-2.54 z"
         id="path132"
         inkscape:connector-curvature="0" />
    </clipPath>
    <linearGradient
       x1="0"
       y1="0"
       x2="1"
       y2="0"
       gradientUnits="userSpaceOnUse"
       gradientTransform="matrix(-285.051,1062.33,1062.33,285.051,1985.15,2995.95)"
       spreadMethod="pad"
       id="linearGradient134">
      <stop
         style="stop-opacity:1;stop-color:#00bfbb"
         offset="0"
         id="stop136" />
      <stop
         style="stop-opacity:1;stop-color:#006fa2"
         offset="0.99991001"
         id="stop138" />
      <stop
         style="stop-opacity:1;stop-color:#006fa2"
         offset="1"
         id="stop140" />
    </linearGradient>
  </defs>
  <sodipodi:namedview
     id="base"
     pagecolor="#ffffff"
     bordercolor="#666666"
     borderopacity="1.0"
     inkscape:pageopacity="0.0"
     inkscape:pageshadow="2"
     inkscape:zoom="0.98994949"
     inkscape:cx="390.74194"
     inkscape:cy="-64.941041"
     inkscape:document-units="px"
     inkscape:current-layer="layer1"
     showgrid="false"
     units="px"
     inkscape:window-width="1920"
     inkscape:window-height="1015"
     inkscape:window-x="1280"
     inkscape:window-y="0"
     inkscape:window-maximized="1"
     showborder="false" />
  <metadata
     id="metadata5148">
    <rdf:RDF>
      <cc:Work
         rdf:about="">
        <dc:format>image/svg+xml</dc:format>
        <dc:type
           rdf:resource="http://purl.org/dc/dcmitype/StillImage" />
        <dc:title></dc:title>
      </cc:Work>
    </rdf:RDF>
  </metadata>
  <g
     inkscape:label="Layer 1"
     inkscape:groupmode="layer"
     id="layer1"
     transform="translate(0,-957.88316)">
    <g
       transform="matrix(1.25,0,0,-1.25,-216.5925,1441.7857)"
       id="g4952">
      <g
         transform="scale(0.1,0.1)"
         id="g126">
        <g
           id="g128"
           clip-path="url(#clipPath130)">
          <path
             d="m 1791.77,3712.35 1.63,2.54 -1.63,-2.54"
             style="fill:url(#linearGradient134);fill-opacity:1;fill-rule:nonzero;stroke:none"
             id="path142"
             inkscape:connector-curvature="0" />
        </g>
      </g>
      <path
         d="m 210.583,312.494 c -4.636,-0.286 -8.546,0.16 -11.502,1.174 0.777,-0.268 1.83,-0.567 2.616,-0.806 1.875,-0.485 2.154,-0.532 4.807,-0.968 1.484,-0.198 1.63,-0.203 4.06,-0.336 1.247,-0.032 1.288,-0.031 3.545,0.058 1.084,0.065 1.164,0.077 3.141,0.322 0.992,0.143 0.992,0.143 2.816,0.512 1.045,0.24 1.045,0.24 2.648,0.685 0.959,0.288 0.959,0.288 2.591,0.865 0.855,0.321 0.919,0.348 2.629,1.1 0.955,0.442 0.955,0.442 2.765,1.412 1.073,0.605 1.073,0.605 3.007,1.877 1.281,0.892 1.358,0.957 3.368,2.61 1.619,1.432 1.784,1.612 3.816,3.804 l 0.539,0.629 c -5.519,-6.582 -18.597,-12.181 -30.846,-12.938"
         style="fill:#452d1c;fill-opacity:1;fill-rule:nonzero;stroke:none"
         id="path1086"
         inkscape:connector-curvature="0" />
      <path
         d="m 203.169,322.022 c -11.894,-0.735 -20.41,1.946 -23.586,6.616 0.567,-0.837 1.4,-1.903 2.008,-2.716 2.663,-3.214 4.425,-4.642 6.869,-6.615 3.64,-2.723 10.119,-4.154 18.52,-3.637 16.585,1.022 34.392,9.238 39.78,18.354 0.321,0.544 0.594,1.079 0.812,1.604 0.491,1.271 1.058,3 1.475,4.3 0.711,2.677 0.76,3.064 1.253,6.812 l 0.112,1.561 c -0.086,-1.648 -0.659,-3.427 -1.766,-5.3 -6.156,-10.418 -26.519,-19.814 -45.477,-20.979"
         style="fill:#9bb52c;fill-opacity:1;fill-rule:nonzero;stroke:none"
         id="path1088"
         inkscape:connector-curvature="0" />
      <path
         d="m 197.483,348.114 c 17.085,1.051 35.437,9.518 40.988,18.909 2.616,4.428 1.918,8.275 -1.339,10.989 -0.659,0.55 -1.581,1.233 -2.258,1.759 -2.926,1.97 -3.698,2.415 -6.888,3.976 -0.526,0.232 -1.18,0.492 -1.795,0.734 4.86,-2.064 6.593,-5.846 3.895,-10.41 -4.414,-7.472 -19.016,-14.21 -32.613,-15.048 -13.592,-0.836 -21.035,4.541 -16.619,12.014 -0.372,-0.462 -0.727,-0.943 -1.063,-1.428 l -0.164,-0.253 c -0.276,-0.413 -0.554,-0.836 -0.807,-1.267 -1.539,-2.719 -1.739,-3.224 -3.073,-6.5 l -0.256,-0.73 c -2.788,-8.138 6.369,-13.71 21.992,-12.745"
         style="fill:#9bb52c;fill-opacity:1;fill-rule:nonzero;stroke:none"
         id="path1090"
         inkscape:connector-curvature="0" />
      <path
         d="m 210.94,381.38 c -1.396,-2.361 -6.015,-4.491 -10.315,-4.757 -4.297,-0.265 -6.648,1.435 -5.252,3.798 1.398,2.363 6.01,4.493 10.313,4.759 4.296,0.263 6.651,-1.435 5.254,-3.8 z m -1.098,5.685 -0.072,-0.006 c -1.086,-0.069 -1.161,-0.077 -3.139,-0.321 -0.993,-0.144 -0.993,-0.144 -2.817,-0.514 -1.047,-0.238 -1.047,-0.238 -2.649,-0.682 -0.957,-0.29 -0.957,-0.29 -2.588,-0.869 -0.923,-0.349 -0.923,-0.349 -2.63,-1.1 -0.479,-0.222 -1.111,-0.541 -1.586,-0.775 -3.528,-1.824 -6.328,-4.067 -7.717,-6.413 -3.134,-5.303 2.149,-9.117 11.792,-8.523 9.647,0.594 20.005,5.374 23.139,10.676 3.126,5.29 -2.126,9.098 -11.733,8.527"
         style="fill:#452d1c;fill-opacity:1;fill-rule:nonzero;stroke:none"
         id="path1092"
         inkscape:connector-curvature="0" />
      <path
         d="m 246.256,368.738 c 1.656,-0.405 4.099,-0.957 5.759,-1.355 -7.858,-12.32 -24.154,-20.596 -29.878,-22.862 -7.388,-2.925 -15.725,-4.912 -23.806,-5.41 -15.533,-0.955 -25.323,3.885 -25.034,11.389 l -0.023,-1.91 c 0.092,-4.263 0.674,-6.753 1.414,-9.905 l 0.318,-1.093 c 1.922,-6.199 12.639,-10.915 26.755,-9.593 36.918,3.455 49.339,25.293 54.826,31.594 0.447,-1.48 0.58,-4.274 1.017,-5.759 2.371,6.267 5.894,13.98 5.25,22.356 -7.96,-2.879 -11.348,-4.403 -16.598,-7.452"
         style="fill:#ee4443;fill-opacity:1;fill-rule:nonzero;stroke:none"
         id="path1094"
         inkscape:connector-curvature="0" />
    </g>
  </g>
</svg>
