<?xml version="1.0" encoding="UTF-8" standalone="no"?>
<!-- Created with Inkscape (http://www.inkscape.org/) -->

<svg
   xmlns:dc="http://purl.org/dc/elements/1.1/"
   xmlns:cc="http://creativecommons.org/ns#"
   xmlns:rdf="http://www.w3.org/1999/02/22-rdf-syntax-ns#"
   xmlns:svg="http://www.w3.org/2000/svg"
   xmlns="http://www.w3.org/2000/svg"
   xmlns:sodipodi="http://sodipodi.sourceforge.net/DTD/sodipodi-0.dtd"
   xmlns:inkscape="http://www.inkscape.org/namespaces/inkscape"
   width="116.311"
   height="91.987999"
   viewBox="0 0 116.311 91.988001"
   id="svg5143"
   version="1.1"
   inkscape:version="0.91 r13725"
   sodipodi:docname="logo2.svg">
  <defs
     id="defs5145">
    <clipPath
       clipPathUnits="userSpaceOnUse"
       id="clipPath570">
      <path
         d="m 411.207,5010.83 c -20.453,47.96 -20.769,87.48 -4.543,116.04 5.578,9.61 13.82,21.91 19.828,31.28 l 1.953,2.76 c -20.691,-29.02 -22.199,-71.27 0.035,-123.5 43.516,-102.16 165.098,-212.18 297.75,-277.71 11.696,-5.8 23.465,-11.24 35.293,-16.29 l -1.55,-2.19 c -5.739,-8.22 -11.461,-16.07 -17.157,-23.57 -56.261,24.05 -111.625,56.78 -161.086,94.31 l 0.172,0.27 c -78.293,59.37 -141.781,130.73 -170.695,198.6 z"
         id="path572"
         inkscape:connector-curvature="0" />
    </clipPath>
    <linearGradient
       x1="0"
       y1="0"
       x2="1"
       y2="0"
       gradientUnits="userSpaceOnUse"
       gradientTransform="matrix(82.0871,-131.01,135.351,85.5351,412.632,5150.9)"
       spreadMethod="pad"
       id="linearGradient574">
      <stop
         style="stop-opacity:1;stop-color:#ff8183"
         offset="0"
         id="stop576" />
      <stop
         style="stop-opacity:1;stop-color:#ff1e28"
         offset="1"
         id="stop578" />
    </linearGradient>
    <clipPath
       clipPathUnits="userSpaceOnUse"
       id="clipPath592">
      <path
         d="m 931.047,4656.9 0.203,0.19 c 29.219,4.19 52.355,14.46 68.352,30.03 l -12.301,-11.5 c -15.746,-14.1 -37.793,-23.44 -65.223,-27.36 3.02,2.8 6.024,5.68 8.969,8.64 z"
         id="path594"
         inkscape:connector-curvature="0" />
    </clipPath>
    <linearGradient
       x1="0"
       y1="0"
       x2="1"
       y2="0"
       gradientUnits="userSpaceOnUse"
       gradientTransform="matrix(-76.8962,-1.27048,-1.27048,-76.0037,999.287,4668.32)"
       spreadMethod="pad"
       id="linearGradient596">
      <stop
         style="stop-opacity:1;stop-color:#c9e757"
         offset="0"
         id="stop598" />
      <stop
         style="stop-opacity:1;stop-color:#c9e757"
         offset="0.00063959"
         id="stop600" />
      <stop
         style="stop-opacity:1;stop-color:#7cab12"
         offset="1"
         id="stop602" />
    </linearGradient>
  </defs>
  <sodipodi:namedview
     id="base"
     pagecolor="#ffffff"
     bordercolor="#666666"
     borderopacity="1.0"
     inkscape:pageopacity="0.0"
     inkscape:pageshadow="2"
     inkscape:zoom="1.4"
     inkscape:cx="379.80586"
     inkscape:cy="73.837815"
     inkscape:document-units="px"
     inkscape:current-layer="layer1"
     showgrid="false"
     units="px"
     inkscape:window-width="1920"
     inkscape:window-height="1015"
     inkscape:window-x="1280"
     inkscape:window-y="0"
     inkscape:window-maximized="1" />
  <metadata
     id="metadata5148">
    <rdf:RDF>
      <cc:Work
         rdf:about="">
        <dc:format>image/svg+xml</dc:format>
        <dc:type
           rdf:resource="http://purl.org/dc/dcmitype/StillImage" />
        <dc:title></dc:title>
      </cc:Work>
    </rdf:RDF>
  </metadata>
  <g
     inkscape:label="Layer 1"
     inkscape:groupmode="layer"
     id="layer1"
     transform="translate(0,-960.37416)">
    <g
       transform="matrix(1.25,0,0,-1.25,-208.11549,1617.6312)"
       id="g4916">
      <path
         d="m 221.235,525.007 c 3.18,-0.424 5.842,-1.211 8.027,-2.192 1.602,-0.723 3.029,-1.554 4.261,-2.509 0.694,-0.602 1.318,-1.258 1.851,-1.987 0.991,-1.356 1.693,-2.95 2.039,-4.848 1.037,-5.842 -4.711,-14.736 -15.673,-18.529 -8.226,-2.827 -15.01,-0.991 -19.061,0.562 -1.177,0.452 -2.128,0.88 -2.811,1.161 -0.873,0.355 -1.406,-1.646 0.043,-3.869 0.445,-0.678 1.074,-1.38 1.937,-2.041 -1.257,0.952 -2.036,1.979 -2.454,2.91 0.196,-0.436 0.396,-0.872 0.593,-1.319 0.61,-1.354 1.939,-2.91 4.36,-4.171 0.574,-0.298 1.209,-0.575 1.906,-0.834 9.362,-3.421 26.173,0.364 34.403,9.332 6.731,7.379 6.487,16.069 -0.353,22.059 -0.267,0.234 -0.532,0.465 -0.801,0.691 0.101,-0.084 0.193,-0.171 0.29,-0.258 -0.266,0.237 -0.539,0.471 -0.828,0.699 -2.416,1.895 -5.743,3.472 -9.62,4.52 -1.117,0.302 -2.277,0.562 -3.48,0.77 -2.36,0.409 -4.908,0.635 -7.574,0.651 -3.304,0.023 -6.486,-0.401 -10.052,-1.06 0.101,-0.042 -0.103,0.049 0,0 5.063,0.774 9.389,0.742 12.997,0.262"
         style="fill:#ee4443;fill-opacity:1;fill-rule:nonzero;stroke:none"
         id="path616"
         inkscape:connector-curvature="0" />
      <path
         d="m 213.83,453.984 c -7.514,2.183 -11.726,5.126 -16.57,8.248 -1.903,1.229 -3.585,2.538 -5.083,3.894 -1.874,1.692 -3.45,3.462 -4.741,5.264 -0.075,0.1 -0.14,0.203 -0.21,0.305 -1.497,2.135 -2.72,4.273 -3.59,6.548 -1.135,3.625 -1.441,7.675 -0.559,12.569 1.37,7.492 8.683,17.238 17.996,21.03 8.671,3.506 16.057,0.929 19.098,-0.096 0.815,-0.273 1.08,0.69 0.178,2.011 -0.587,0.861 -1.418,1.618 -2.113,2.024 -0.666,0.387 -1.513,0.744 -2.591,1.031 -0.483,0.127 -1.009,0.236 -1.583,0.327 -6.94,1.082 -19.735,-2.844 -27.366,-10.05 -8.318,-7.878 -11.863,-18.985 -8.778,-28.628 0.151,-0.471 0.325,-0.939 0.512,-1.404 -0.186,0.465 -0.362,0.932 -0.512,1.404 -0.1,0.302 -0.194,0.608 -0.274,0.913 0.126,-0.458 0.259,-0.917 0.39,-1.38 0.085,-0.315 0.188,-0.625 0.29,-0.937 1.911,-5.771 6.29,-11.135 12.641,-15.412 7.389,-4.969 17.27,-8.406 28.592,-9.33 -0.312,0.618 0.106,-0.53 -0.199,0.091 -0.937,0.177 -3.654,1.034 -5.528,1.578"
         style="fill:#9bb52c;fill-opacity:1;fill-rule:nonzero;stroke:none"
         id="path618"
         inkscape:connector-curvature="0" />
      <path
         d="m 188.328,488.079 c 0.163,-0.446 1.535,-6.094 7.732,-10.27 0.381,-0.255 0.776,-0.503 1.18,-0.736 10.919,-6.405 27.108,-5.866 41.83,1.176 7.318,3.517 12.462,7.946 16.161,13.989 5.038,8.226 4.415,17.012 4.111,17.345 0.007,-0.388 -10e-4,-0.77 -0.025,-1.151 -0.379,-7.128 -5.384,-12.72 -11.834,-17.003 -6.961,-4.614 -14.605,-7.836 -26.741,-8.841 -6.671,-0.545 -14.071,0.754 -19.535,3.652 -0.867,0.459 -1.678,0.964 -2.426,1.502 -1.434,1.037 -2.635,2.214 -3.511,3.536 -0.249,0.379 -0.467,0.77 -0.664,1.174 -0.041,0.126 -0.082,0.252 -0.12,0.38 -1.89,6.751 4.997,13.696 7.446,16.062 l 0.034,0.043 c 0.557,0.504 1.161,0.807 0.261,1.066 -0.76,0.217 -1.548,0.01 -1.884,-0.102 -1.906,-0.544 -5.634,-2.39 -8.718,-6.149 -4.328,-5.305 -4.786,-9.975 -3.297,-15.673 0.349,-1.334 0.907,-2.516 0,0"
         style="fill:#00aca4;fill-opacity:1;fill-rule:nonzero;stroke:none"
         id="path620"
         inkscape:connector-curvature="0" />
      <path
         d="m 232.388,512.974 c -1.035,2.732 -3.087,4.633 -5.146,5.923 -0.989,0.668 -2.11,1.254 -3.377,1.717 -0.48,0.173 -0.984,0.336 -1.507,0.477 -0.133,0.034 -0.272,0.066 -0.407,0.101 -0.366,0.098 -0.582,0.143 -0.582,0.143 -7.929,1.784 -18.881,0.12 -28.774,-5.028 -7.841,-4.087 -15.755,-11.207 -21.276,-19.789 -1.96,-3.048 -3.508,-7.007 -4.755,-10.354 0.01,-0.328 -0.085,0.071 -0.07,-0.264 4.341,10.374 10.889,17.667 17.254,22.546 5.717,4.378 11.498,7.53 19.815,9.396 4.751,1.063 10.309,1.106 14.735,-0.069 2.765,-0.742 5.144,-1.963 6.694,-3.593 l 0.152,-0.209 c 3.169,-4.808 -1.676,-10.214 -4.442,-13.247 l -0.188,-0.198 c -1.06,-0.978 -2.657,-1.428 -1.81,-2.137 0.913,-0.764 2.934,-0.6 3.513,-0.485 2.296,0.376 6.341,2.071 9.097,5.923 1.97,2.77 2.292,6.124 1.074,9.147"
         style="fill:#ffcf2a;fill-opacity:1;fill-rule:nonzero;stroke:none"
         id="path622"
         inkscape:connector-curvature="0" />
      <path
         d="m 203.742,502.357 c 0.852,-2.473 4.479,-3.465 8.103,-2.218 3.623,1.247 5.872,4.262 5.021,6.734 -0.85,2.472 -4.477,3.465 -8.101,2.218 -3.624,-1.248 -5.873,-4.262 -5.023,-6.734"
         style="fill:#173558;fill-opacity:1;fill-rule:nonzero;stroke:none"
         id="path624"
         inkscape:connector-curvature="0" />
    </g>
  </g>
</svg>
