<?xml version="1.0" encoding="UTF-8" standalone="no"?>
<!-- Created with Inkscape (http://www.inkscape.org/) -->

<svg
   xmlns:dc="http://purl.org/dc/elements/1.1/"
   xmlns:cc="http://creativecommons.org/ns#"
   xmlns:rdf="http://www.w3.org/1999/02/22-rdf-syntax-ns#"
   xmlns:svg="http://www.w3.org/2000/svg"
   xmlns="http://www.w3.org/2000/svg"
   xmlns:sodipodi="http://sodipodi.sourceforge.net/DTD/sodipodi-0.dtd"
   xmlns:inkscape="http://www.inkscape.org/namespaces/inkscape"
   width="100.861"
   height="100.861"
   viewBox="0 0 100.86099 100.861"
   id="svg5143"
   version="1.1"
   inkscape:version="0.91 r13725"
   sodipodi:docname="logo11.svg">
  <defs
     id="defs5145">
    <clipPath
       clipPathUnits="userSpaceOnUse"
       id="clipPath570">
      <path
         d="m 411.207,5010.83 c -20.453,47.96 -20.769,87.48 -4.543,116.04 5.578,9.61 13.82,21.91 19.828,31.28 l 1.953,2.76 c -20.691,-29.02 -22.199,-71.27 0.035,-123.5 43.516,-102.16 165.098,-212.18 297.75,-277.71 11.696,-5.8 23.465,-11.24 35.293,-16.29 l -1.55,-2.19 c -5.739,-8.22 -11.461,-16.07 -17.157,-23.57 -56.261,24.05 -111.625,56.78 -161.086,94.31 l 0.172,0.27 c -78.293,59.37 -141.781,130.73 -170.695,198.6 z"
         id="path572"
         inkscape:connector-curvature="0" />
    </clipPath>
    <linearGradient
       x1="0"
       y1="0"
       x2="1"
       y2="0"
       gradientUnits="userSpaceOnUse"
       gradientTransform="matrix(82.0871,-131.01,135.351,85.5351,412.632,5150.9)"
       spreadMethod="pad"
       id="linearGradient574">
      <stop
         style="stop-opacity:1;stop-color:#ff8183"
         offset="0"
         id="stop576" />
      <stop
         style="stop-opacity:1;stop-color:#ff1e28"
         offset="1"
         id="stop578" />
    </linearGradient>
    <clipPath
       clipPathUnits="userSpaceOnUse"
       id="clipPath592">
      <path
         d="m 931.047,4656.9 0.203,0.19 c 29.219,4.19 52.355,14.46 68.352,30.03 l -12.301,-11.5 c -15.746,-14.1 -37.793,-23.44 -65.223,-27.36 3.02,2.8 6.024,5.68 8.969,8.64 z"
         id="path594"
         inkscape:connector-curvature="0" />
    </clipPath>
    <linearGradient
       x1="0"
       y1="0"
       x2="1"
       y2="0"
       gradientUnits="userSpaceOnUse"
       gradientTransform="matrix(-76.8962,-1.27048,-1.27048,-76.0037,999.287,4668.32)"
       spreadMethod="pad"
       id="linearGradient596">
      <stop
         style="stop-opacity:1;stop-color:#c9e757"
         offset="0"
         id="stop598" />
      <stop
         style="stop-opacity:1;stop-color:#c9e757"
         offset="0.00063959"
         id="stop600" />
      <stop
         style="stop-opacity:1;stop-color:#7cab12"
         offset="1"
         id="stop602" />
    </linearGradient>
    <clipPath
       clipPathUnits="userSpaceOnUse"
       id="clipPath410">
      <path
         d="m 4980.59,4583.3 c -1.01,0 -2.05,0 -3.06,0.01 -112.17,0.92 -212.15,51.94 -279.05,131.6 1.8,-1.88 3.64,-3.76 5.51,-5.62 64.57,-64.29 142.03,-71.08 224.59,-71.08 11.05,0 22.18,0.12 33.39,0.24 11.21,0.13 22.5,0.25 33.83,0.25 45.7,0 92.27,-1.98 138.5,-13.88 l -14.12,-14.11 c -43.07,-17.68 -90.2,-27.41 -139.59,-27.41"
         id="path412"
         inkscape:connector-curvature="0" />
    </clipPath>
    <linearGradient
       x1="0"
       y1="0"
       x2="1"
       y2="0"
       gradientUnits="userSpaceOnUse"
       gradientTransform="matrix(-401.905,-401.905,401.905,-401.905,4768.13,4748.66)"
       spreadMethod="pad"
       id="linearGradient414">
      <stop
         style="stop-opacity:1;stop-color:#a59d8b"
         offset="0"
         id="stop416" />
      <stop
         style="stop-opacity:1;stop-color:#b7b0a0"
         offset="0.85147689"
         id="stop418" />
      <stop
         style="stop-opacity:1;stop-color:#b7b0a0"
         offset="1"
         id="stop420" />
    </linearGradient>
    <clipPath
       clipPathUnits="userSpaceOnUse"
       id="clipPath428">
      <path
         d="m 4637.51,4813.24 c -39.54,97.16 -37.32,210.09 14.31,309.1 l 62.9,62.89 c 0,0 -138.47,-196.43 -77.21,-371.87 0,-0.04 0,-0.08 0,-0.12"
         id="path430"
         inkscape:connector-curvature="0" />
    </clipPath>
    <clipPath
       clipPathUnits="userSpaceOnUse"
       id="clipPath130">
      <path
         d="m 1791.77,3712.35 1.63,2.54 -1.63,-2.54 z"
         id="path132"
         inkscape:connector-curvature="0" />
    </clipPath>
    <linearGradient
       x1="0"
       y1="0"
       x2="1"
       y2="0"
       gradientUnits="userSpaceOnUse"
       gradientTransform="matrix(-285.051,1062.33,1062.33,285.051,1985.15,2995.95)"
       spreadMethod="pad"
       id="linearGradient134">
      <stop
         style="stop-opacity:1;stop-color:#00bfbb"
         offset="0"
         id="stop136" />
      <stop
         style="stop-opacity:1;stop-color:#006fa2"
         offset="0.99991001"
         id="stop138" />
      <stop
         style="stop-opacity:1;stop-color:#006fa2"
         offset="1"
         id="stop140" />
    </linearGradient>
    <clipPath
       clipPathUnits="userSpaceOnUse"
       id="clipPath1072">
      <path
         d="m 364.637,2225.04 c 1.593,4.92 5.129,8.73 11.246,11.25 l -11.246,-11.25"
         id="path1074"
         inkscape:connector-curvature="0" />
    </clipPath>
    <linearGradient
       x1="0"
       y1="0"
       x2="1"
       y2="0"
       gradientUnits="userSpaceOnUse"
       gradientTransform="matrix(-403.333,-403.333,-403.333,403.333,468.306,1856.25)"
       spreadMethod="pad"
       id="linearGradient1076">
      <stop
         style="stop-opacity:1;stop-color:#e1ded8"
         offset="0"
         id="stop1078" />
      <stop
         style="stop-opacity:1;stop-color:#f4f1ed"
         offset="0.85147689"
         id="stop1080" />
      <stop
         style="stop-opacity:1;stop-color:#f4f1ed"
         offset="1"
         id="stop1082" />
    </linearGradient>
    <clipPath
       clipPathUnits="userSpaceOnUse"
       id="clipPath874">
      <path
         d="m 2342.85,1771.98 c -0.03,0.08 -0.06,0.16 -0.09,0.25 9.86,7.59 19.33,15.65 28.38,24.16 3.94,1.53 7.87,3.05 11.91,4.68 l -20.45,-20.44 c -6.82,-3.18 -13.77,-6.25 -19.75,-8.65 m -549.37,496.32 c 0.34,1.66 0.75,3.47 1.17,5.2 l 6.12,6.12 c -2.5,-3.73 -4.93,-7.5 -7.29,-11.32"
         id="path876"
         inkscape:connector-curvature="0" />
    </clipPath>
    <linearGradient
       x1="0"
       y1="0"
       x2="1"
       y2="0"
       gradientUnits="userSpaceOnUse"
       gradientTransform="matrix(-425.793,-425.793,-425.793,425.793,1925.35,1873.77)"
       spreadMethod="pad"
       id="linearGradient878">
      <stop
         style="stop-opacity:1;stop-color:#e1ded8"
         offset="0"
         id="stop880" />
      <stop
         style="stop-opacity:1;stop-color:#f4f1ed"
         offset="0.85147689"
         id="stop882" />
      <stop
         style="stop-opacity:1;stop-color:#f4f1ed"
         offset="1"
         id="stop884" />
    </linearGradient>
    <clipPath
       clipPathUnits="userSpaceOnUse"
       id="clipPath892">
      <path
         d="m 1743.8,2140.32 c 1.13,8.04 2.57,16.8 3.91,23.78 -2.3,-1.1 -5.59,-2.35 -8.15,-2.86 4.87,9.54 12.09,21.86 17.91,30.98 -5.75,-16.8 -10.33,-34.13 -13.67,-51.9"
         id="path894"
         inkscape:connector-curvature="0" />
    </clipPath>
    <linearGradient
       x1="0"
       y1="0"
       x2="1"
       y2="0"
       gradientUnits="userSpaceOnUse"
       gradientTransform="matrix(-425.793,-425.793,-425.793,425.793,1925.35,1873.77)"
       spreadMethod="pad"
       id="linearGradient896">
      <stop
         style="stop-opacity:1;stop-color:#5b4738"
         offset="0"
         id="stop898" />
      <stop
         style="stop-opacity:1;stop-color:#6d5a4c"
         offset="0.85147689"
         id="stop900" />
      <stop
         style="stop-opacity:1;stop-color:#6d5a4c"
         offset="1"
         id="stop902" />
    </linearGradient>
    <clipPath
       clipPathUnits="userSpaceOnUse"
       id="clipPath910">
      <path
         d="m 1783.82,2252.76 c -1.68,1.26 -3.47,2.96 -5.12,4.79 l 15.95,15.95 c -0.42,-1.73 -0.83,-3.54 -1.17,-5.2 -2.75,-4.44 -5.41,-8.95 -7.98,-13.51 -0.6,-0.7 -1.16,-1.39 -1.68,-2.03"
         id="path912"
         inkscape:connector-curvature="0" />
    </clipPath>
    <clipPath
       clipPathUnits="userSpaceOnUse"
       id="clipPath928">
      <path
         d="m 1742.5,2191.63 c 2.7,8.06 6.75,18.63 10,26.4 -0.98,3.06 -1.43,7.36 -1.55,10.62 3.82,2.72 9.34,5.77 13.56,7.85 5.29,3.59 11.68,9.36 17.22,12.53 0.03,-0.28 0.07,-0.58 0.11,-0.89 -4.72,-8.79 -9.1,-17.79 -13.12,-26.98 -2.94,-1.52 -5.92,-2.99 -8.5,-4.18 -5.88,-7.2 -12.97,-17.4 -17.72,-25.35"
         id="path930"
         inkscape:connector-curvature="0" />
    </clipPath>
    <clipPath
       clipPathUnits="userSpaceOnUse"
       id="clipPath946">
      <path
         d="m 2262.59,1724.99 c 28.75,12.44 55.66,28.36 80.17,47.24 0.03,-0.09 0.06,-0.17 0.09,-0.25 5.98,2.4 12.93,5.47 19.75,8.65 l -13.45,-13.46 c -2.44,-1.68 -4.8,-3.29 -7.03,-4.79 -1.39,-2.08 -3.43,-4.82 -5.21,-6.67 l -0.12,-0.07 -4.2,-2.05 c -9.11,-4.42 -20.23,-9.06 -28.98,-12.29 -12.18,-4.86 -27.59,-11.19 -41.02,-16.31"
         id="path948"
         inkscape:connector-curvature="0" />
    </clipPath>
  </defs>
  <sodipodi:namedview
     id="base"
     pagecolor="#ffffff"
     bordercolor="#666666"
     borderopacity="1.0"
     inkscape:pageopacity="0.0"
     inkscape:pageshadow="2"
     inkscape:zoom="0.98994949"
     inkscape:cx="390.74194"
     inkscape:cy="-64.941041"
     inkscape:document-units="px"
     inkscape:current-layer="layer1"
     showgrid="false"
     units="px"
     inkscape:window-width="1920"
     inkscape:window-height="1015"
     inkscape:window-x="1280"
     inkscape:window-y="0"
     inkscape:window-maximized="1"
     showborder="false"
     showguides="true"
     inkscape:guide-bbox="true">
    <sodipodi:guide
       position="125.2589,357.59402"
       orientation="0,1"
       id="guide6205" />
  </sodipodi:namedview>
  <metadata
     id="metadata5148">
    <rdf:RDF>
      <cc:Work
         rdf:about="">
        <dc:format>image/svg+xml</dc:format>
        <dc:type
           rdf:resource="http://purl.org/dc/dcmitype/StillImage" />
        <dc:title></dc:title>
      </cc:Work>
    </rdf:RDF>
  </metadata>
  <g
     inkscape:label="Layer 1"
     inkscape:groupmode="layer"
     id="layer1"
     transform="translate(0,-951.50116)">
    <g
       transform="matrix(1.2500001,0,0,-1.2500001,-393.56879,1264.6947)"
       id="g5047">
      <path
         d="m 319.742,222.093 -1.724,-3.256 c -1.215,-2.747 -1.821,-5.623 -1.821,-8.626 0,-3.002 0.606,-5.878 1.821,-8.625 l 1.724,-3.258 0,2.395 c 0.129,0.832 0.353,1.935 0.671,3.309 0.32,1.373 0.669,2.474 1.053,3.303 l 1.439,2.876 -1.439,2.876 c -0.512,1.15 -0.876,2.188 -1.101,3.113 -0.221,0.929 -0.43,2.095 -0.623,3.498 l 0,2.395 z m 12.171,9.297 -2.108,-0.576 c -2.876,-1.341 -5.241,-2.97 -7.093,-4.886 l -1.437,-1.823 -0.098,-1.052 c 0,-0.319 -0.03,-0.767 -0.095,-1.341 0,-1.278 0.145,-2.621 0.432,-4.026 0.289,-1.404 0.69,-2.779 1.198,-4.119 l 1.056,-1.917 2.873,3.544 c 1.024,1.022 2.111,1.917 3.261,2.683 l 2.872,1.629 -0.957,3.164 c -0.062,0.447 -0.146,1.086 -0.24,1.916 -0.097,0.831 -0.144,1.597 -0.144,2.299 0,1.086 0.064,1.886 0.191,2.395 l 0.289,2.11 z m -8.145,-22.615 -1.056,-1.917 c -1.085,-2.557 -1.63,-5.144 -1.63,-7.762 0,-0.768 0.035,-1.343 0.095,-1.725 l 0.098,-1.055 1.437,-1.82 c 1.852,-1.917 4.217,-3.547 7.093,-4.889 l 2.108,-0.574 -0.289,2.108 c -0.127,0.513 -0.191,1.31 -0.191,2.395 0,0.834 0.017,1.455 0.047,1.871 0.034,0.414 0.144,1.196 0.337,2.346 l 0.957,3.162 -2.872,1.63 c -1.15,0.767 -2.237,1.662 -3.261,2.683 l -2.873,3.547 z m 9.295,9.392 c -1.021,-0.512 -1.95,-1.071 -2.778,-1.678 -0.831,-0.606 -1.726,-1.356 -2.683,-2.252 -0.832,-0.894 -1.392,-1.534 -1.681,-1.917 -0.282,-0.384 -0.683,-0.958 -1.193,-1.726 l -0.194,-0.383 0.194,-0.384 c 0.191,-0.318 0.51,-0.828 0.959,-1.532 0.059,-0.127 0.701,-0.83 1.915,-2.109 0.957,-0.892 1.852,-1.66 2.683,-2.298 0.828,-0.638 1.788,-1.214 2.874,-1.725 l 1.438,3.161 2.298,3.258 1.439,1.629 -1.439,1.63 -2.298,3.257 -1.534,3.069 z m -11.405,-24.631 0.67,-2.491 c 0.642,-1.661 1.376,-3.176 2.206,-4.552 0.83,-1.371 1.854,-2.635 3.068,-3.783 2.107,-2.111 4.566,-3.772 7.377,-4.985 l 3.451,-0.959 c -1.343,1.279 -2.509,2.75 -3.497,4.408 -0.992,1.663 -1.806,3.418 -2.445,5.27 l -0.192,0.96 -3.066,0.961 c -2.748,1.146 -5.272,2.871 -7.572,5.171 z m 13.275,45.76 c 0.923,1.566 2.122,3.049 3.592,4.456 l -1.438,-0.288 c -3.702,-1.087 -6.867,-3.004 -9.485,-5.75 -1.214,-1.149 -2.238,-2.409 -3.068,-3.786 -0.83,-1.373 -1.564,-2.889 -2.206,-4.55 l -0.574,-2.398 c 2.24,2.238 4.728,3.93 7.476,5.08 l 3.066,0.96 0.192,0.957 c 0.704,1.982 1.516,3.755 2.445,5.319 z m 8.383,-18.542 -4.12,-0.386 -3.163,-0.862 -1.628,-0.764 0.671,-1.44 1.628,-2.876 2.686,-3.256 0.761,0.671 2.4,1.726 1.916,1.053 -0.384,1.149 c -0.256,0.768 -0.43,1.486 -0.527,2.155 -0.096,0.671 -0.144,1.262 -0.144,1.774 l -0.096,1.056 z m -3.926,-11.5 -2.686,-3.259 -1.628,-2.876 -0.671,-1.436 1.628,-0.768 3.163,-0.862 4.12,-0.382 0.096,1.052 c 0,1.025 0.223,2.334 0.671,3.931 l 0.479,1.148 -1.15,0.481 -3.261,2.299 -0.761,0.672 z m 2.44,22.998 c -1.18,0.193 -2.283,0.288 -3.305,0.288 -0.384,0 -0.877,-0.016 -1.486,-0.048 -0.606,-0.032 -1.615,-0.175 -3.018,-0.432 l -0.577,-0.096 -0.094,-0.574 c -0.191,-1.087 -0.318,-1.885 -0.382,-2.396 -0.064,-0.511 -0.098,-1.213 -0.098,-2.109 0,-2.107 0.354,-4.375 1.056,-6.803 l 3.257,1.247 c 0.768,0.255 1.485,0.427 2.157,0.526 0.669,0.095 1.261,0.144 1.771,0.144 l 2.205,0.094 0.096,2.11 c 0,0.766 0.067,1.437 0.192,2.011 0.127,0.575 0.289,1.246 0.479,2.014 l 1.053,3.257 c -1.021,0.318 -2.121,0.575 -3.306,0.767 z m -7.904,-32.102 c -0.319,-1.022 -0.576,-2.124 -0.767,-3.307 -0.191,-1.181 -0.289,-2.284 -0.289,-3.307 0,-1.085 0.048,-1.963 0.146,-2.634 0.094,-0.67 0.208,-1.295 0.334,-1.869 l 0.094,-0.573 0.577,-0.095 c 1.086,-0.193 1.884,-0.322 2.395,-0.386 0.513,-0.063 1.216,-0.096 2.109,-0.096 2.107,0 4.377,0.352 6.802,1.053 l -1.244,3.26 c -0.256,0.768 -0.43,1.484 -0.527,2.157 -0.096,0.67 -0.144,1.292 -0.144,1.868 l -0.096,2.107 -2.205,0.095 c -0.702,0 -1.34,0.067 -1.915,0.193 -0.574,0.129 -1.245,0.287 -2.013,0.48 l -3.257,1.054 z m 11.017,13.126 -2.202,-1.244 -2.206,-1.821 2.206,-1.822 2.202,-1.244 0.578,1.244 0.957,1.822 -0.957,1.821 -0.578,1.244 z m 3.646,1.534 -2.398,-0.86 1.054,-2.398 0.288,0.48 0.769,1.055 0.287,1.339 0,0.384 z m -1.441,-5.94 -0.957,-2.395 2.493,-0.865 -0.095,0.385 -0.287,1.34 -0.769,1.054 -0.385,0.481 z m -2.3,11.691 0.191,-2.875 0.673,-2.394 2.301,0.862 1.054,0.287 0.573,1.916 0.479,1.245 -2.491,0.766 -2.78,0.193 z m 0.959,-15.429 -0.768,-2.397 -0.191,-2.872 2.78,0.19 2.491,0.767 -0.479,1.247 -0.573,2.011 -2.013,0.576 -1.247,0.478 z m -2.395,39.099 -2.206,-0.192 -1.816,-1.342 c -2.62,-2.684 -4.443,-5.749 -5.464,-9.2 l 4.599,0.48 c 0.829,0 1.453,-0.032 1.869,-0.096 0.416,-0.062 1.197,-0.159 2.347,-0.287 l 3.161,-0.958 1.631,2.873 c 0.769,1.151 1.661,2.239 2.681,3.258 l 3.55,2.876 -1.919,1.054 c -2.682,1.023 -5.493,1.534 -8.433,1.534 z m 8.05,-25.013 -0.863,-2.491 0.383,0.097 1.343,0.095 1.054,0.958 0.385,0.29 -2.302,1.051 z m -5.56,-31.431 -3.161,-0.957 c -1.213,-0.194 -2.043,-0.304 -2.491,-0.337 -0.447,-0.03 -1.022,-0.049 -1.725,-0.049 l -4.599,0.48 c 1.021,-3.449 2.844,-6.516 5.464,-9.199 l 1.816,-1.342 2.206,-0.19 c 1.404,0 2.843,0.126 4.313,0.383 1.469,0.255 2.842,0.638 4.12,1.149 l 1.919,1.055 -3.55,2.875 c -1.02,1.023 -1.912,2.108 -2.681,3.258 l -1.631,2.874 z m 4.697,15.813 0.863,-2.397 2.397,1.054 -0.48,0.288 -1.054,0.958 -1.343,0.097 -0.383,0 z m -3.928,27.31 -0.769,-1.532 -0.863,-3.164 -0.383,-4.121 1.056,-0.094 c 1.024,0 2.332,-0.223 3.928,-0.67 l 1.149,-0.481 0.481,1.151 2.301,3.258 0.668,0.766 -3.257,2.682 -2.874,1.63 -1.437,0.575 z m 4.118,-31.432 -0.67,-0.191 c -1.723,-0.575 -3.193,-0.864 -4.407,-0.864 l -1.056,-0.095 0.383,-4.121 0.863,-3.162 0.769,-1.534 1.437,0.577 2.874,1.628 3.257,2.684 -0.668,0.766 -2.301,3.257 -0.481,1.055 z m 4.41,25.395 -1.82,-2.203 -1.342,-2.206 1.342,-0.573 1.82,-0.959 0.863,0.574 2.206,0.958 -1.247,2.206 -1.822,2.203 z m 0,-23.381 -0.864,-0.577 -2.201,-0.957 1.245,-2.205 1.82,-2.205 1.822,2.205 1.247,2.205 -1.247,0.575 -1.822,0.959 z m 3.736,17.726 -2.395,-1.051 0.384,-0.29 1.151,-0.958 1.339,-0.095 0.384,0 -0.863,2.394 z m 0.863,-15.523 -0.384,-0.095 -1.339,-0.097 -1.151,-0.958 -0.384,-0.288 2.395,-1.054 0.863,2.492 z m -4.599,37.182 -0.576,-0.288 c -1.148,-0.766 -2.298,-1.725 -3.45,-2.875 -1.726,-1.724 -3.065,-3.545 -4.025,-5.462 l 3.164,-1.438 3.259,-2.301 1.628,-1.436 1.63,1.436 3.257,2.301 3.067,1.535 c -0.892,1.853 -2.204,3.641 -3.93,5.365 -1.148,1.15 -2.299,2.109 -3.45,2.875 l -0.574,0.288 z m 0,-47.532 -1.628,-1.438 -3.259,-2.3 -3.164,-1.531 c 0.96,-1.854 2.299,-3.644 4.025,-5.366 1.152,-1.153 2.302,-2.111 3.45,-2.877 l 0.576,-0.288 0.383,0.288 c 1.216,0.703 2.429,1.664 3.641,2.877 1.726,1.722 3.069,3.545 4.027,5.462 l -3.164,1.435 -3.257,2.3 -1.63,1.438 z m 6.516,21.465 0.096,-0.384 0.096,-1.339 0.959,-1.055 0.287,-0.48 1.053,2.398 -2.491,0.86 z m 1.438,-5.94 -0.287,-0.481 -0.959,-1.054 -0.096,-1.34 0,-0.385 2.395,0.865 -1.053,2.395 z m 2.395,11.691 -2.873,-0.193 -2.494,-0.766 0.576,-1.245 0.576,-2.014 2.01,-0.574 1.248,-0.477 0.765,2.394 0.192,2.875 z m -0.957,-15.429 -2.204,-0.862 -1.054,-0.287 -0.576,-1.916 -0.576,-1.247 2.494,-0.767 2.873,-0.19 -0.192,2.872 -0.765,2.397 z m -0.864,25.778 -1.531,-0.575 -2.782,-1.63 -3.256,-2.682 0.671,-0.766 2.298,-3.258 0.477,-1.055 0.673,0.192 c 1.726,0.576 3.196,0.863 4.408,0.863 l 0.96,0.094 -0.289,4.121 -0.861,3.164 -0.768,1.532 z m -4.123,-31.336 -0.477,-1.151 -2.298,-3.257 -0.671,-0.766 3.256,-2.684 2.782,-1.628 1.531,-0.577 0.768,1.534 0.861,3.162 0.289,4.121 -0.96,0.095 c -1.02,0 -2.33,0.227 -3.928,0.673 l -1.153,0.478 z m -4.405,49.64 c -3.003,0 -5.879,-0.607 -8.626,-1.822 l -3.161,-1.629 c 3.004,0 5.974,-0.606 8.913,-1.819 l 2.874,-1.439 2.876,1.439 c 1.47,0.636 2.956,1.101 4.455,1.388 1.502,0.288 2.988,0.431 4.457,0.431 l -3.166,1.629 c -2.743,1.215 -5.619,1.822 -8.622,1.822 z m 0,-71.297 -2.874,-1.436 c -1.47,-0.639 -2.956,-1.102 -4.456,-1.392 -1.5,-0.287 -2.987,-0.431 -4.457,-0.431 l 3.161,-1.628 c 2.747,-1.212 5.623,-1.822 8.626,-1.822 3.003,0 5.879,0.61 8.622,1.822 l 3.166,1.628 c -3.004,0 -5.973,0.607 -8.912,1.823 l -2.876,1.436 z m 10.253,35.359 -0.575,-1.244 -1.056,-1.821 1.056,-1.822 0.575,-1.244 2.206,1.244 2.202,1.822 -2.202,1.821 -2.206,1.244 z m 1.535,7.478 0,-1.056 c 0,-1.02 -0.222,-2.331 -0.673,-3.929 l -0.477,-1.149 1.15,-0.479 3.256,-2.3 0.769,-0.671 2.681,3.256 1.629,2.876 0.576,1.44 -1.534,0.764 -3.16,0.862 -4.217,0.386 z m 4.025,-11.5 -0.769,-0.672 -2.394,-1.724 -2.012,-1.056 0.477,-1.148 c 0.259,-0.766 0.434,-1.486 0.53,-2.156 0.094,-0.671 0.143,-1.262 0.143,-1.775 l 0,-1.052 4.217,0.382 3.16,0.862 1.534,0.768 -0.576,1.436 -1.629,2.876 -2.681,3.259 z m -4.025,34.977 c -1.404,0 -2.843,-0.129 -4.312,-0.384 -1.47,-0.257 -2.843,-0.638 -4.121,-1.15 l -1.917,-1.054 3.544,-2.876 c 1.024,-1.019 1.919,-2.107 2.685,-3.258 l 1.629,-2.873 3.163,0.958 c 0.446,0.064 1.085,0.143 1.914,0.239 0.834,0.095 1.6,0.144 2.302,0.144 l 4.601,-0.48 c -1.022,3.259 -2.844,6.326 -5.463,9.2 l -1.824,1.342 -2.201,0.192 z m -2.492,-56.444 -1.629,-2.874 c -0.766,-1.15 -1.661,-2.235 -2.685,-3.258 l -3.544,-2.875 1.917,-1.055 c 2.682,-1.02 5.495,-1.532 8.433,-1.532 l 2.201,0.19 1.824,1.342 c 1.277,1.406 2.38,2.874 3.305,4.407 0.927,1.536 1.646,3.131 2.158,4.792 l -4.601,-0.48 c -0.828,0 -1.468,0.019 -1.917,0.049 -0.446,0.033 -1.214,0.143 -2.299,0.337 l -3.163,0.957 z m 9.486,44.658 c -0.51,0.063 -1.212,0.095 -2.107,0.095 -2.109,0 -4.377,-0.352 -6.804,-1.055 l 1.244,-3.257 c 0.259,-0.768 0.434,-1.486 0.53,-2.157 0.094,-0.67 0.143,-1.293 0.143,-1.868 l 0.096,-2.11 2.105,-0.094 c 0.769,0 1.44,-0.064 2.016,-0.193 0.574,-0.127 1.244,-0.288 2.01,-0.477 l 3.261,-1.056 c 0.636,1.982 0.956,4.186 0.956,6.612 0,1.725 -0.128,3.227 -0.382,4.505 l -0.096,0.574 -0.575,0.096 c -1.086,0.192 -1.883,0.321 -2.397,0.385 z m 2.397,-32.105 -3.164,-1.244 c -0.766,-0.257 -1.484,-0.431 -2.154,-0.527 -0.673,-0.098 -1.295,-0.146 -1.872,-0.146 l -2.105,-0.095 -0.096,-2.107 c 0,-0.768 -0.064,-1.438 -0.191,-2.014 -0.129,-0.575 -0.289,-1.243 -0.482,-2.011 l -1.053,-3.26 c 1.023,-0.318 2.123,-0.571 3.304,-0.764 1.186,-0.193 2.288,-0.289 3.309,-0.289 0.384,0 0.877,0.016 1.483,0.049 0.611,0.032 1.617,0.176 3.021,0.433 l 0.575,0.095 0.096,0.573 c 0.254,1.279 0.382,2.778 0.382,4.503 0,2.428 -0.352,4.696 -1.053,6.804 z m 0.862,17.921 -1.436,-3.163 -2.302,-3.257 -1.437,-1.63 1.437,-1.629 2.302,-3.258 1.533,-3.067 c 1.854,0.898 3.641,2.206 5.363,3.929 1.216,1.215 2.176,2.43 2.877,3.641 l 0.289,0.384 -0.289,0.383 c -0.701,1.215 -1.661,2.429 -2.877,3.643 -1.722,1.725 -3.545,3.065 -5.46,4.024 z m 11.402,-24.821 c -2.236,-2.234 -4.726,-3.929 -7.471,-5.075 l -3.069,-0.961 -0.193,-0.96 c -1.213,-3.64 -3.222,-6.899 -6.035,-9.772 l 1.436,0.286 c 3.706,1.087 6.838,3.004 9.39,5.752 1.279,1.213 2.335,2.474 3.166,3.783 0.828,1.311 1.531,2.826 2.106,4.552 l 0.67,2.395 z m -16.671,50.217 c 2.746,-2.813 4.725,-6.038 5.938,-9.68 l 0.193,-0.957 3.069,-0.96 c 2.745,-1.15 5.27,-2.875 7.568,-5.175 l -0.767,2.493 c -0.512,1.469 -1.23,2.955 -2.155,4.455 -0.925,1.503 -1.965,2.796 -3.117,3.881 -2.168,2.299 -4.631,3.96 -7.378,4.983 l -3.351,0.96 z m 6.513,-12.267 0.287,-2.11 c 0.13,-0.509 0.194,-1.309 0.194,-2.395 0,-1.34 -0.159,-2.745 -0.481,-4.215 l -0.864,-3.164 2.878,-1.629 c 1.151,-0.766 2.236,-1.661 3.257,-2.683 l 2.877,-3.544 1.051,1.917 c 0.577,1.597 0.977,3.098 1.201,4.501 0.225,1.407 0.334,3.068 0.334,4.985 l -0.096,1.052 -1.439,1.823 c -0.954,1.024 -2.058,1.932 -3.304,2.731 -1.246,0.8 -2.537,1.517 -3.881,2.155 l -2.014,0.576 z m 8.148,-22.615 -2.877,-3.547 c -1.021,-1.021 -2.106,-1.916 -3.257,-2.683 l -2.878,-1.63 0.864,-3.162 c 0.322,-1.468 0.481,-2.874 0.481,-4.217 0,-1.085 -0.064,-1.882 -0.194,-2.395 l -0.287,-2.108 2.014,0.574 c 2.94,1.342 5.337,2.972 7.185,4.889 l 1.439,1.82 0.096,1.055 c 0,1.468 -0.126,3.082 -0.384,4.84 -0.254,1.756 -0.636,3.303 -1.151,4.647 l -1.051,1.917 z m 4.025,13.318 0,-2.395 c -0.127,-0.83 -0.353,-1.932 -0.671,-3.305 -0.32,-1.374 -0.673,-2.477 -1.053,-3.306 l -1.44,-2.876 1.44,-2.876 c 0.51,-1.149 0.877,-2.185 1.1,-3.113 0.222,-0.924 0.431,-2.091 0.624,-3.499 l 0,-2.395 1.722,3.258 c 1.217,2.747 1.823,5.623 1.823,8.625 0,3.003 -0.606,5.879 -1.823,8.626 l -1.722,3.256 z m -35.458,28.462 c 4.856,0 9.296,-1.31 13.319,-3.929 l 1.247,-1.245 1.822,-0.097 c 2.429,-0.512 4.63,-1.292 6.61,-2.347 1.983,-1.053 3.835,-2.444 5.558,-4.17 1.726,-1.723 3.113,-3.607 4.169,-5.653 1.055,-2.044 1.839,-4.216 2.349,-6.516 l 0.29,-1.82 1.05,-1.247 c 2.622,-4.025 3.931,-8.464 3.931,-13.32 0,-4.855 -1.309,-9.296 -3.931,-13.32 l -1.05,-1.246 -0.29,-1.822 c -0.51,-2.425 -1.294,-4.629 -2.349,-6.611 -1.056,-1.979 -2.443,-3.832 -4.169,-5.557 -1.723,-1.726 -3.607,-3.115 -5.653,-4.17 -2.043,-1.054 -4.217,-1.836 -6.515,-2.348 l -1.918,-0.286 -1.151,-1.054 c -4.023,-2.619 -8.463,-3.931 -13.319,-3.931 -4.854,0 -9.297,1.312 -13.321,3.931 l -1.246,1.245 -1.82,0.095 c -2.428,0.512 -4.629,1.294 -6.613,2.348 -1.979,1.055 -3.832,2.444 -5.558,4.17 -3.576,3.578 -5.747,7.634 -6.515,12.168 l -0.288,1.822 -1.053,1.246 c -2.621,4.024 -3.93,8.465 -3.93,13.32 0,4.856 1.309,9.295 3.93,13.32 l 1.053,1.247 0.288,1.82 c 0.768,4.535 2.939,8.592 6.515,12.169 1.726,1.726 3.61,3.117 5.655,4.17 2.045,1.055 4.215,1.835 6.516,2.347 l 1.916,0.288 1.15,1.054 c 4.024,2.619 8.467,3.929 13.321,3.929"
         style="fill:#3f3f3f;fill-opacity:1;fill-rule:nonzero;stroke:none"
         id="path1216"
         inkscape:connector-curvature="0" />
      <path
         d="m 363.91,209.969 -0.96,1.844 c 8.643,18.956 -7.049,28.66 -7.731,29.085 l 1.486,0.844 c 0.18,-0.112 17.686,-11.183 7.205,-31.773"
         style="fill:#fbb015;fill-opacity:1;fill-rule:nonzero;stroke:none"
         id="path1218"
         inkscape:connector-curvature="0" />
      <path
         d="m 346.406,210.412 0.961,-1.844 c -8.643,-18.956 7.048,-28.66 7.731,-29.085 l -1.486,-0.844 c -0.18,0.113 -17.686,11.182 -7.206,31.773"
         style="fill:#e1735e;fill-opacity:1;fill-rule:nonzero;stroke:none"
         id="path1220"
         inkscape:connector-curvature="0" />
      <path
         d="m 388.439,193.202 c -1.225,-5.646 -5.041,-13.472 -16.505,-16.468 -0.659,-0.597 -1.563,-1.404 -2.507,-2.21 16.318,2.837 20.118,14.399 20.955,20.793 -0.519,-0.62 -1.18,-1.361 -1.943,-2.115"
         style="fill:#173558;fill-opacity:1;fill-rule:nonzero;stroke:none"
         id="path1222"
         inkscape:connector-curvature="0" />
      <path
         d="m 321.81,227.009 c 1.225,5.646 5.04,13.472 16.504,16.468 0.659,0.598 1.563,1.404 2.507,2.21 -16.317,-2.837 -20.118,-14.399 -20.954,-20.793 0.518,0.62 1.179,1.362 1.943,2.115"
         style="fill:#af3e3e;fill-opacity:1;fill-rule:nonzero;stroke:none"
         id="path1224"
         inkscape:connector-curvature="0" />
      <path
         d="m 324.648,210.025 c 2.734,4.787 8.194,10.453 18.675,10.707 -0.01,0.322 -0.029,0.974 -0.032,1.648 -10.537,-0.261 -16.369,-5.805 -19.492,-10.773 0.228,-0.441 0.542,-1.037 0.849,-1.582"
         style="fill:#173558;fill-opacity:1;fill-rule:nonzero;stroke:none"
         id="path1226"
         inkscape:connector-curvature="0" />
      <path
         d="m 355.134,179.504 c 4.74,2.811 10.312,8.368 10.387,18.851 0.324,-0.005 0.975,-0.013 1.646,-0.005 -0.08,-10.54 -5.526,-16.466 -10.438,-19.672 -0.447,0.222 -1.045,0.525 -1.595,0.826"
         style="fill:#9bb52c;fill-opacity:1;fill-rule:nonzero;stroke:none"
         id="path1228"
         inkscape:connector-curvature="0" />
      <path
         d="m 364.689,210.715 c 0,-5.071 -4.112,-9.182 -9.183,-9.182 -5.071,0 -9.183,4.111 -9.183,9.182 0,5.073 4.112,9.184 9.183,9.184 5.071,0 9.183,-4.111 9.183,-9.184"
         style="fill:#f4efe6;fill-opacity:1;fill-rule:nonzero;stroke:none"
         id="path1230"
         inkscape:connector-curvature="0" />
    </g>
  </g>
</svg>
