<?xml version="1.0" encoding="UTF-8" standalone="no"?>
<!-- Created with Inkscape (http://www.inkscape.org/) -->

<svg
   xmlns:dc="http://purl.org/dc/elements/1.1/"
   xmlns:cc="http://creativecommons.org/ns#"
   xmlns:rdf="http://www.w3.org/1999/02/22-rdf-syntax-ns#"
   xmlns:svg="http://www.w3.org/2000/svg"
   xmlns="http://www.w3.org/2000/svg"
   xmlns:sodipodi="http://sodipodi.sourceforge.net/DTD/sodipodi-0.dtd"
   xmlns:inkscape="http://www.inkscape.org/namespaces/inkscape"
   width="93.806999"
   height="112.633"
   viewBox="0 0 93.806991 112.633"
   id="svg5143"
   version="1.1"
   inkscape:version="0.91 r13725"
   sodipodi:docname="logo14.svg">
  <defs
     id="defs5145">
    <clipPath
       clipPathUnits="userSpaceOnUse"
       id="clipPath570">
      <path
         d="m 411.207,5010.83 c -20.453,47.96 -20.769,87.48 -4.543,116.04 5.578,9.61 13.82,21.91 19.828,31.28 l 1.953,2.76 c -20.691,-29.02 -22.199,-71.27 0.035,-123.5 43.516,-102.16 165.098,-212.18 297.75,-277.71 11.696,-5.8 23.465,-11.24 35.293,-16.29 l -1.55,-2.19 c -5.739,-8.22 -11.461,-16.07 -17.157,-23.57 -56.261,24.05 -111.625,56.78 -161.086,94.31 l 0.172,0.27 c -78.293,59.37 -141.781,130.73 -170.695,198.6 z"
         id="path572"
         inkscape:connector-curvature="0" />
    </clipPath>
    <linearGradient
       x1="0"
       y1="0"
       x2="1"
       y2="0"
       gradientUnits="userSpaceOnUse"
       gradientTransform="matrix(82.0871,-131.01,135.351,85.5351,412.632,5150.9)"
       spreadMethod="pad"
       id="linearGradient574">
      <stop
         style="stop-opacity:1;stop-color:#ff8183"
         offset="0"
         id="stop576" />
      <stop
         style="stop-opacity:1;stop-color:#ff1e28"
         offset="1"
         id="stop578" />
    </linearGradient>
    <clipPath
       clipPathUnits="userSpaceOnUse"
       id="clipPath592">
      <path
         d="m 931.047,4656.9 0.203,0.19 c 29.219,4.19 52.355,14.46 68.352,30.03 l -12.301,-11.5 c -15.746,-14.1 -37.793,-23.44 -65.223,-27.36 3.02,2.8 6.024,5.68 8.969,8.64 z"
         id="path594"
         inkscape:connector-curvature="0" />
    </clipPath>
    <linearGradient
       x1="0"
       y1="0"
       x2="1"
       y2="0"
       gradientUnits="userSpaceOnUse"
       gradientTransform="matrix(-76.8962,-1.27048,-1.27048,-76.0037,999.287,4668.32)"
       spreadMethod="pad"
       id="linearGradient596">
      <stop
         style="stop-opacity:1;stop-color:#c9e757"
         offset="0"
         id="stop598" />
      <stop
         style="stop-opacity:1;stop-color:#c9e757"
         offset="0.00063959"
         id="stop600" />
      <stop
         style="stop-opacity:1;stop-color:#7cab12"
         offset="1"
         id="stop602" />
    </linearGradient>
    <clipPath
       clipPathUnits="userSpaceOnUse"
       id="clipPath410">
      <path
         d="m 4980.59,4583.3 c -1.01,0 -2.05,0 -3.06,0.01 -112.17,0.92 -212.15,51.94 -279.05,131.6 1.8,-1.88 3.64,-3.76 5.51,-5.62 64.57,-64.29 142.03,-71.08 224.59,-71.08 11.05,0 22.18,0.12 33.39,0.24 11.21,0.13 22.5,0.25 33.83,0.25 45.7,0 92.27,-1.98 138.5,-13.88 l -14.12,-14.11 c -43.07,-17.68 -90.2,-27.41 -139.59,-27.41"
         id="path412"
         inkscape:connector-curvature="0" />
    </clipPath>
    <linearGradient
       x1="0"
       y1="0"
       x2="1"
       y2="0"
       gradientUnits="userSpaceOnUse"
       gradientTransform="matrix(-401.905,-401.905,401.905,-401.905,4768.13,4748.66)"
       spreadMethod="pad"
       id="linearGradient414">
      <stop
         style="stop-opacity:1;stop-color:#a59d8b"
         offset="0"
         id="stop416" />
      <stop
         style="stop-opacity:1;stop-color:#b7b0a0"
         offset="0.85147689"
         id="stop418" />
      <stop
         style="stop-opacity:1;stop-color:#b7b0a0"
         offset="1"
         id="stop420" />
    </linearGradient>
    <clipPath
       clipPathUnits="userSpaceOnUse"
       id="clipPath428">
      <path
         d="m 4637.51,4813.24 c -39.54,97.16 -37.32,210.09 14.31,309.1 l 62.9,62.89 c 0,0 -138.47,-196.43 -77.21,-371.87 0,-0.04 0,-0.08 0,-0.12"
         id="path430"
         inkscape:connector-curvature="0" />
    </clipPath>
    <clipPath
       clipPathUnits="userSpaceOnUse"
       id="clipPath130">
      <path
         d="m 1791.77,3712.35 1.63,2.54 -1.63,-2.54 z"
         id="path132"
         inkscape:connector-curvature="0" />
    </clipPath>
    <linearGradient
       x1="0"
       y1="0"
       x2="1"
       y2="0"
       gradientUnits="userSpaceOnUse"
       gradientTransform="matrix(-285.051,1062.33,1062.33,285.051,1985.15,2995.95)"
       spreadMethod="pad"
       id="linearGradient134">
      <stop
         style="stop-opacity:1;stop-color:#00bfbb"
         offset="0"
         id="stop136" />
      <stop
         style="stop-opacity:1;stop-color:#006fa2"
         offset="0.99991001"
         id="stop138" />
      <stop
         style="stop-opacity:1;stop-color:#006fa2"
         offset="1"
         id="stop140" />
    </linearGradient>
    <clipPath
       clipPathUnits="userSpaceOnUse"
       id="clipPath1072">
      <path
         d="m 364.637,2225.04 c 1.593,4.92 5.129,8.73 11.246,11.25 l -11.246,-11.25"
         id="path1074"
         inkscape:connector-curvature="0" />
    </clipPath>
    <linearGradient
       x1="0"
       y1="0"
       x2="1"
       y2="0"
       gradientUnits="userSpaceOnUse"
       gradientTransform="matrix(-403.333,-403.333,-403.333,403.333,468.306,1856.25)"
       spreadMethod="pad"
       id="linearGradient1076">
      <stop
         style="stop-opacity:1;stop-color:#e1ded8"
         offset="0"
         id="stop1078" />
      <stop
         style="stop-opacity:1;stop-color:#f4f1ed"
         offset="0.85147689"
         id="stop1080" />
      <stop
         style="stop-opacity:1;stop-color:#f4f1ed"
         offset="1"
         id="stop1082" />
    </linearGradient>
    <clipPath
       clipPathUnits="userSpaceOnUse"
       id="clipPath874">
      <path
         d="m 2342.85,1771.98 c -0.03,0.08 -0.06,0.16 -0.09,0.25 9.86,7.59 19.33,15.65 28.38,24.16 3.94,1.53 7.87,3.05 11.91,4.68 l -20.45,-20.44 c -6.82,-3.18 -13.77,-6.25 -19.75,-8.65 m -549.37,496.32 c 0.34,1.66 0.75,3.47 1.17,5.2 l 6.12,6.12 c -2.5,-3.73 -4.93,-7.5 -7.29,-11.32"
         id="path876"
         inkscape:connector-curvature="0" />
    </clipPath>
    <linearGradient
       x1="0"
       y1="0"
       x2="1"
       y2="0"
       gradientUnits="userSpaceOnUse"
       gradientTransform="matrix(-425.793,-425.793,-425.793,425.793,1925.35,1873.77)"
       spreadMethod="pad"
       id="linearGradient878">
      <stop
         style="stop-opacity:1;stop-color:#e1ded8"
         offset="0"
         id="stop880" />
      <stop
         style="stop-opacity:1;stop-color:#f4f1ed"
         offset="0.85147689"
         id="stop882" />
      <stop
         style="stop-opacity:1;stop-color:#f4f1ed"
         offset="1"
         id="stop884" />
    </linearGradient>
    <clipPath
       clipPathUnits="userSpaceOnUse"
       id="clipPath892">
      <path
         d="m 1743.8,2140.32 c 1.13,8.04 2.57,16.8 3.91,23.78 -2.3,-1.1 -5.59,-2.35 -8.15,-2.86 4.87,9.54 12.09,21.86 17.91,30.98 -5.75,-16.8 -10.33,-34.13 -13.67,-51.9"
         id="path894"
         inkscape:connector-curvature="0" />
    </clipPath>
    <linearGradient
       x1="0"
       y1="0"
       x2="1"
       y2="0"
       gradientUnits="userSpaceOnUse"
       gradientTransform="matrix(-425.793,-425.793,-425.793,425.793,1925.35,1873.77)"
       spreadMethod="pad"
       id="linearGradient896">
      <stop
         style="stop-opacity:1;stop-color:#5b4738"
         offset="0"
         id="stop898" />
      <stop
         style="stop-opacity:1;stop-color:#6d5a4c"
         offset="0.85147689"
         id="stop900" />
      <stop
         style="stop-opacity:1;stop-color:#6d5a4c"
         offset="1"
         id="stop902" />
    </linearGradient>
    <clipPath
       clipPathUnits="userSpaceOnUse"
       id="clipPath910">
      <path
         d="m 1783.82,2252.76 c -1.68,1.26 -3.47,2.96 -5.12,4.79 l 15.95,15.95 c -0.42,-1.73 -0.83,-3.54 -1.17,-5.2 -2.75,-4.44 -5.41,-8.95 -7.98,-13.51 -0.6,-0.7 -1.16,-1.39 -1.68,-2.03"
         id="path912"
         inkscape:connector-curvature="0" />
    </clipPath>
    <clipPath
       clipPathUnits="userSpaceOnUse"
       id="clipPath928">
      <path
         d="m 1742.5,2191.63 c 2.7,8.06 6.75,18.63 10,26.4 -0.98,3.06 -1.43,7.36 -1.55,10.62 3.82,2.72 9.34,5.77 13.56,7.85 5.29,3.59 11.68,9.36 17.22,12.53 0.03,-0.28 0.07,-0.58 0.11,-0.89 -4.72,-8.79 -9.1,-17.79 -13.12,-26.98 -2.94,-1.52 -5.92,-2.99 -8.5,-4.18 -5.88,-7.2 -12.97,-17.4 -17.72,-25.35"
         id="path930"
         inkscape:connector-curvature="0" />
    </clipPath>
    <clipPath
       clipPathUnits="userSpaceOnUse"
       id="clipPath946">
      <path
         d="m 2262.59,1724.99 c 28.75,12.44 55.66,28.36 80.17,47.24 0.03,-0.09 0.06,-0.17 0.09,-0.25 5.98,2.4 12.93,5.47 19.75,8.65 l -13.45,-13.46 c -2.44,-1.68 -4.8,-3.29 -7.03,-4.79 -1.39,-2.08 -3.43,-4.82 -5.21,-6.67 l -0.12,-0.07 -4.2,-2.05 c -9.11,-4.42 -20.23,-9.06 -28.98,-12.29 -12.18,-4.86 -27.59,-11.19 -41.02,-16.31"
         id="path948"
         inkscape:connector-curvature="0" />
    </clipPath>
  </defs>
  <sodipodi:namedview
     id="base"
     pagecolor="#ffffff"
     bordercolor="#666666"
     borderopacity="1.0"
     inkscape:pageopacity="0.0"
     inkscape:pageshadow="2"
     inkscape:zoom="0.98994949"
     inkscape:cx="390.74194"
     inkscape:cy="-64.941041"
     inkscape:document-units="px"
     inkscape:current-layer="layer1"
     showgrid="false"
     units="px"
     inkscape:window-width="1920"
     inkscape:window-height="1015"
     inkscape:window-x="1280"
     inkscape:window-y="0"
     inkscape:window-maximized="1"
     showborder="true"
     showguides="true"
     inkscape:guide-bbox="true"
     borderlayer="false"
     inkscape:showpageshadow="true">
    <sodipodi:guide
       position="125.2589,357.59402"
       orientation="0,1"
       id="guide6205" />
  </sodipodi:namedview>
  <metadata
     id="metadata5148">
    <rdf:RDF>
      <cc:Work
         rdf:about="">
        <dc:format>image/svg+xml</dc:format>
        <dc:type
           rdf:resource="http://purl.org/dc/dcmitype/StillImage" />
        <dc:title></dc:title>
      </cc:Work>
    </rdf:RDF>
  </metadata>
  <g
     inkscape:label="Layer 1"
     inkscape:groupmode="layer"
     id="layer1"
     transform="translate(0,-939.72916)">
    <g
       transform="matrix(1.25,0,0,-1.25,-216.9975,1091.6922)"
       id="g5068">
      <path
         d="m 229.401,56.552 c -3.978,-2.1391 -13.343,-2.518 -18.529,2.7351 -2.455,10.191 -5.385,21.5738 -20.506,27.5098 6.899,6.859 13.074,8.4062 18.139,11.7101 10.047,6.558 18.018,13.838 22.397,22.705 0.14,0.287 0.484,0.418 0.775,0.332 0.297,-0.09 0.506,-0.387 0.465,-0.705 -0.631,-5.099 -0.204,-10.377 1.02,-15.812 2.587,-11.5071 8.729,-23.4391 5.783,-35.1782 -1.527,-6.0847 -4.042,-10.334 -9.544,-13.2968"
         style="fill:#69bfc5;fill-opacity:1;fill-rule:nonzero;stroke:none"
         id="path1624"
         inkscape:connector-curvature="0" />
      <path
         d="m 238.157,57.1289 c 7.608,10.0063 5.619,23.1719 1.748,31.9191 4.394,-5.6519 7.245,-12.1628 8.283,-19.2039 0.966,-6.5332 0.626,-13.3703 -3.287,-18.7953 -3.628,-5.0226 -8.738,-9.0457 -17.731,-7.6886 -6.461,0.9769 -11.863,6.0128 -14.196,10.4429 7.232,-3.9492 19.237,-4.5011 25.183,3.3258"
         style="fill:#fbb015;fill-opacity:1;fill-rule:nonzero;stroke:none"
         id="path1626"
         inkscape:connector-curvature="0" />
      <path
         d="m 222.913,40.398 c 6.43,-2.1699 13.622,-1.5812 20.009,3.0122 -5.535,-5.3282 -13.609,-9.1082 -21.242,-9.0582 -20.658,0.1261 -32.023,16.073 -35.8,33.1261 0.326,-10.1082 3.927,-21.3703 12.627,-28.2562 5.984,-4.736 14.875,-6.484 21.207,-7.1688 -8.625,-1.625 -19.442,0.152 -26.927,4.8367 -6.009,3.7633 -11.449,8.6891 -13.555,16.4 -2.003,7.327 -1.426,11.2692 -0.251,20.0602 1.07,8.0051 -1.977,11.623 -5.383,13.348 5.796,0.4098 14.184,-1.0402 20.215,-4.95 5.3,-3.4402 9.428,-11.7832 10.837,-17.2878 2.802,-10.9602 7.624,-20.4723 18.263,-24.0622"
         style="fill:#9bb52c;fill-opacity:1;fill-rule:nonzero;stroke:none"
         id="path1628"
         inkscape:connector-curvature="0" />
    </g>
  </g>
</svg>
