<?xml version="1.0" encoding="UTF-8" standalone="no"?>
<!-- Created with Inkscape (http://www.inkscape.org/) -->

<svg
   xmlns:dc="http://purl.org/dc/elements/1.1/"
   xmlns:cc="http://creativecommons.org/ns#"
   xmlns:rdf="http://www.w3.org/1999/02/22-rdf-syntax-ns#"
   xmlns:svg="http://www.w3.org/2000/svg"
   xmlns="http://www.w3.org/2000/svg"
   xmlns:sodipodi="http://sodipodi.sourceforge.net/DTD/sodipodi-0.dtd"
   xmlns:inkscape="http://www.inkscape.org/namespaces/inkscape"
   width="102.902"
   height="95.568001"
   viewBox="0 0 102.90199 95.568005"
   id="svg5143"
   version="1.1"
   inkscape:version="0.91 r13725"
   sodipodi:docname="logo7.svg">
  <defs
     id="defs5145">
    <clipPath
       clipPathUnits="userSpaceOnUse"
       id="clipPath570">
      <path
         d="m 411.207,5010.83 c -20.453,47.96 -20.769,87.48 -4.543,116.04 5.578,9.61 13.82,21.91 19.828,31.28 l 1.953,2.76 c -20.691,-29.02 -22.199,-71.27 0.035,-123.5 43.516,-102.16 165.098,-212.18 297.75,-277.71 11.696,-5.8 23.465,-11.24 35.293,-16.29 l -1.55,-2.19 c -5.739,-8.22 -11.461,-16.07 -17.157,-23.57 -56.261,24.05 -111.625,56.78 -161.086,94.31 l 0.172,0.27 c -78.293,59.37 -141.781,130.73 -170.695,198.6 z"
         id="path572"
         inkscape:connector-curvature="0" />
    </clipPath>
    <linearGradient
       x1="0"
       y1="0"
       x2="1"
       y2="0"
       gradientUnits="userSpaceOnUse"
       gradientTransform="matrix(82.0871,-131.01,135.351,85.5351,412.632,5150.9)"
       spreadMethod="pad"
       id="linearGradient574">
      <stop
         style="stop-opacity:1;stop-color:#ff8183"
         offset="0"
         id="stop576" />
      <stop
         style="stop-opacity:1;stop-color:#ff1e28"
         offset="1"
         id="stop578" />
    </linearGradient>
    <clipPath
       clipPathUnits="userSpaceOnUse"
       id="clipPath592">
      <path
         d="m 931.047,4656.9 0.203,0.19 c 29.219,4.19 52.355,14.46 68.352,30.03 l -12.301,-11.5 c -15.746,-14.1 -37.793,-23.44 -65.223,-27.36 3.02,2.8 6.024,5.68 8.969,8.64 z"
         id="path594"
         inkscape:connector-curvature="0" />
    </clipPath>
    <linearGradient
       x1="0"
       y1="0"
       x2="1"
       y2="0"
       gradientUnits="userSpaceOnUse"
       gradientTransform="matrix(-76.8962,-1.27048,-1.27048,-76.0037,999.287,4668.32)"
       spreadMethod="pad"
       id="linearGradient596">
      <stop
         style="stop-opacity:1;stop-color:#c9e757"
         offset="0"
         id="stop598" />
      <stop
         style="stop-opacity:1;stop-color:#c9e757"
         offset="0.00063959"
         id="stop600" />
      <stop
         style="stop-opacity:1;stop-color:#7cab12"
         offset="1"
         id="stop602" />
    </linearGradient>
    <clipPath
       clipPathUnits="userSpaceOnUse"
       id="clipPath410">
      <path
         d="m 4980.59,4583.3 c -1.01,0 -2.05,0 -3.06,0.01 -112.17,0.92 -212.15,51.94 -279.05,131.6 1.8,-1.88 3.64,-3.76 5.51,-5.62 64.57,-64.29 142.03,-71.08 224.59,-71.08 11.05,0 22.18,0.12 33.39,0.24 11.21,0.13 22.5,0.25 33.83,0.25 45.7,0 92.27,-1.98 138.5,-13.88 l -14.12,-14.11 c -43.07,-17.68 -90.2,-27.41 -139.59,-27.41"
         id="path412"
         inkscape:connector-curvature="0" />
    </clipPath>
    <linearGradient
       x1="0"
       y1="0"
       x2="1"
       y2="0"
       gradientUnits="userSpaceOnUse"
       gradientTransform="matrix(-401.905,-401.905,401.905,-401.905,4768.13,4748.66)"
       spreadMethod="pad"
       id="linearGradient414">
      <stop
         style="stop-opacity:1;stop-color:#a59d8b"
         offset="0"
         id="stop416" />
      <stop
         style="stop-opacity:1;stop-color:#b7b0a0"
         offset="0.85147689"
         id="stop418" />
      <stop
         style="stop-opacity:1;stop-color:#b7b0a0"
         offset="1"
         id="stop420" />
    </linearGradient>
    <clipPath
       clipPathUnits="userSpaceOnUse"
       id="clipPath428">
      <path
         d="m 4637.51,4813.24 c -39.54,97.16 -37.32,210.09 14.31,309.1 l 62.9,62.89 c 0,0 -138.47,-196.43 -77.21,-371.87 0,-0.04 0,-0.08 0,-0.12"
         id="path430"
         inkscape:connector-curvature="0" />
    </clipPath>
    <clipPath
       clipPathUnits="userSpaceOnUse"
       id="clipPath130">
      <path
         d="m 1791.77,3712.35 1.63,2.54 -1.63,-2.54 z"
         id="path132"
         inkscape:connector-curvature="0" />
    </clipPath>
    <linearGradient
       x1="0"
       y1="0"
       x2="1"
       y2="0"
       gradientUnits="userSpaceOnUse"
       gradientTransform="matrix(-285.051,1062.33,1062.33,285.051,1985.15,2995.95)"
       spreadMethod="pad"
       id="linearGradient134">
      <stop
         style="stop-opacity:1;stop-color:#00bfbb"
         offset="0"
         id="stop136" />
      <stop
         style="stop-opacity:1;stop-color:#006fa2"
         offset="0.99991001"
         id="stop138" />
      <stop
         style="stop-opacity:1;stop-color:#006fa2"
         offset="1"
         id="stop140" />
    </linearGradient>
  </defs>
  <sodipodi:namedview
     id="base"
     pagecolor="#ffffff"
     bordercolor="#666666"
     borderopacity="1.0"
     inkscape:pageopacity="0.0"
     inkscape:pageshadow="2"
     inkscape:zoom="0.98994949"
     inkscape:cx="390.74194"
     inkscape:cy="-64.941041"
     inkscape:document-units="px"
     inkscape:current-layer="layer1"
     showgrid="false"
     units="px"
     inkscape:window-width="1920"
     inkscape:window-height="1015"
     inkscape:window-x="1280"
     inkscape:window-y="0"
     inkscape:window-maximized="1"
     showborder="false" />
  <metadata
     id="metadata5148">
    <rdf:RDF>
      <cc:Work
         rdf:about="">
        <dc:format>image/svg+xml</dc:format>
        <dc:type
           rdf:resource="http://purl.org/dc/dcmitype/StillImage" />
        <dc:title></dc:title>
      </cc:Work>
    </rdf:RDF>
  </metadata>
  <g
     inkscape:label="Layer 1"
     inkscape:groupmode="layer"
     id="layer1"
     transform="translate(0,-956.79416)">
    <g
       transform="matrix(1.25,0,0,-1.25,-389.86707,1446.0256)"
       id="g4962">
      <path
         d="m 327.823,346.052 4.839,1.926 c -4.17,10.426 0.217,22.463 10.419,27.667 3.99,2.034 8.303,2.735 12.436,2.267 l 0.585,5.179 c -5.117,0.586 -10.458,-0.273 -15.396,-2.793 -12.615,-6.433 -18.03,-21.362 -12.883,-34.246"
         style="fill:#69bfc5;fill-opacity:1;fill-rule:nonzero;stroke:none"
         id="path724"
         inkscape:connector-curvature="0" />
      <path
         d="m 368.85,355.928 c -0.092,-8.722 -7.221,-15.722 -15.963,-15.63 l -0.064,-6.149 c 12.138,-0.129 22.048,9.576 22.176,21.714 0.08,7.661 -3.756,14.433 -9.647,18.419 l -3.447,-5.098 c 4.242,-2.871 7.003,-7.751 6.945,-13.256"
         style="fill:#69bfc5;fill-opacity:1;fill-rule:nonzero;stroke:none"
         id="path726"
         inkscape:connector-curvature="0" />
      <path
         d="m 353.219,371.889 c 3.222,-0.033 6.208,-1.026 8.686,-2.705 l 3.447,5.098 c -3.443,2.331 -7.591,3.71 -12.069,3.757 -11.453,0.121 -20.92,-8.51 -22.06,-19.681 l 6.117,-0.635 c 0.822,8.03 7.631,14.253 15.879,14.166"
         style="fill:#ee4443;fill-opacity:1;fill-rule:nonzero;stroke:none"
         id="path728"
         inkscape:connector-curvature="0" />
      <path
         d="m 374.607,387.97 -1.778,-2.631 c 9.483,-6.414 15.664,-17.312 15.534,-29.616 -0.203,-19.494 -16.167,-35.123 -35.679,-34.92 l -0.035,-3.176 c 21.263,-0.223 38.648,16.801 38.87,38.063 0.139,13.416 -6.586,25.289 -16.912,32.28"
         style="fill:#173558;fill-opacity:1;fill-rule:nonzero;stroke:none"
         id="path730"
         inkscape:connector-curvature="0" />
      <path
         d="m 317.927,359.739 3.719,-0.387 c 1.645,16.054 15.281,28.467 31.737,28.294 6.435,-0.068 12.399,-2.049 17.352,-5.4 l 2.094,3.093 c -5.541,3.75 -12.209,5.97 -19.407,6.044 -18.406,0.195 -33.654,-13.705 -35.495,-31.644"
         style="fill:#173558;fill-opacity:1;fill-rule:nonzero;stroke:none"
         id="path732"
         inkscape:connector-curvature="0" />
      <path
         d="m 357.851,363.188 c 2.296,-1.555 3.795,-4.193 3.762,-7.184 -0.048,-4.744 -3.927,-8.521 -8.651,-8.473 l -0.075,-7.233 c 8.742,-0.092 15.871,6.908 15.963,15.63 0.058,5.505 -2.703,10.385 -6.945,13.256 -2.478,1.679 -5.464,2.672 -8.686,2.705 -8.248,0.087 -15.057,-6.136 -15.879,-14.166 l 7.196,-0.746 c 0.446,4.364 4.151,7.726 8.606,7.678 1.747,-0.019 3.364,-0.557 4.709,-1.467"
         style="fill:#173558;fill-opacity:1;fill-rule:nonzero;stroke:none"
         id="path734"
         inkscape:connector-curvature="0" />
      <path
         d="m 317.742,356.465 c 0.012,1.103 0.074,2.196 0.185,3.274 l -3.139,0.326 c -0.122,-1.176 -0.188,-2.364 -0.202,-3.568 -0.22,-21.262 16.802,-38.647 38.063,-38.87 l 0.035,3.176 c -19.515,0.204 -35.145,16.165 -34.942,35.662 z m 47.656,-24.578 0.002,0 -2.376,4.657 c -10.813,-5.517 -24.007,-1.236 -29.522,9.579 -0.311,0.611 -0.594,1.23 -0.84,1.855 l -4.839,-1.926 c 0.31,-0.772 0.656,-1.539 1.042,-2.296 6.813,-13.354 23.159,-18.691 36.533,-11.869 z m -12.436,15.644 c 4.724,-0.048 8.603,3.729 8.651,8.473 0.033,2.991 -1.466,5.629 -3.762,7.184 -1.345,0.91 -2.962,1.448 -4.709,1.467 -4.455,0.048 -8.16,-3.314 -8.606,-7.678 -0.025,-0.262 -0.041,-0.525 -0.044,-0.794 -0.05,-4.743 3.748,-8.602 8.47,-8.652 z m 23.153,42.67 -0.011,-0.02 -1.497,-2.211 c 10.326,-6.991 17.051,-18.864 16.912,-32.28 -0.222,-21.262 -17.607,-38.286 -38.87,-38.063 l -0.028,-2.694 c 22.75,-0.236 41.352,17.98 41.592,40.73 0.148,14.354 -7.049,27.058 -18.098,34.538"
         style="fill:#00aca4;fill-opacity:1;fill-rule:nonzero;stroke:none"
         id="path736"
         inkscape:connector-curvature="0" />
      <path
         d="m 370.735,382.246 c -4.953,3.351 -10.917,5.332 -17.352,5.4 -16.456,0.173 -30.092,-12.24 -31.737,-28.294 l 4.398,-0.457 c 1.413,13.802 13.132,24.519 27.294,24.37 5.541,-0.057 10.674,-1.772 14.934,-4.665 7.288,-4.942 12.031,-13.332 11.931,-22.792 -0.156,-14.992 -12.422,-27.043 -27.434,-26.885 l -0.048,-4.381 c 17.445,-0.184 31.722,13.777 31.905,31.22 0.114,11.011 -5.411,20.75 -13.891,26.484"
         style="fill:#a59d89;fill-opacity:1;fill-rule:nonzero;stroke:none"
         id="path738"
         inkscape:connector-curvature="0" />
      <path
         d="m 331.223,358.358 c -0.069,-0.668 -0.109,-1.347 -0.117,-2.035 -0.127,-12.137 9.579,-22.049 21.717,-22.174 l 0.064,6.149 c -8.741,0.091 -15.722,7.238 -15.63,15.962 0.004,0.494 0.033,0.983 0.083,1.463 l -6.117,0.635"
         style="fill:#9bb52c;fill-opacity:1;fill-rule:nonzero;stroke:none"
         id="path740"
         inkscape:connector-curvature="0" />
      <path
         d="m 314.586,356.497 c 0.014,1.204 0.08,2.392 0.202,3.568 l -2.674,0.275 -0.006,0.001 c -0.129,-1.256 -0.201,-2.529 -0.212,-3.817 -0.24,-22.748 17.976,-41.351 40.725,-41.591 l 0.028,2.694 c -21.261,0.223 -38.283,17.608 -38.063,38.87"
         style="fill:#9bb52c;fill-opacity:1;fill-rule:nonzero;stroke:none"
         id="path742"
         inkscape:connector-curvature="0" />
    </g>
  </g>
</svg>
