<?xml version="1.0" encoding="UTF-8" standalone="no"?>
<!-- Created with Inkscape (http://www.inkscape.org/) -->

<svg
   xmlns:dc="http://purl.org/dc/elements/1.1/"
   xmlns:cc="http://creativecommons.org/ns#"
   xmlns:rdf="http://www.w3.org/1999/02/22-rdf-syntax-ns#"
   xmlns:svg="http://www.w3.org/2000/svg"
   xmlns="http://www.w3.org/2000/svg"
   xmlns:sodipodi="http://sodipodi.sourceforge.net/DTD/sodipodi-0.dtd"
   xmlns:inkscape="http://www.inkscape.org/namespaces/inkscape"
   width="102.14"
   height="102.14"
   viewBox="0 0 102.13999 102.14"
   id="svg5143"
   version="1.1"
   inkscape:version="0.91 r13725"
   sodipodi:docname="logo13.svg">
  <defs
     id="defs5145">
    <clipPath
       clipPathUnits="userSpaceOnUse"
       id="clipPath570">
      <path
         d="m 411.207,5010.83 c -20.453,47.96 -20.769,87.48 -4.543,116.04 5.578,9.61 13.82,21.91 19.828,31.28 l 1.953,2.76 c -20.691,-29.02 -22.199,-71.27 0.035,-123.5 43.516,-102.16 165.098,-212.18 297.75,-277.71 11.696,-5.8 23.465,-11.24 35.293,-16.29 l -1.55,-2.19 c -5.739,-8.22 -11.461,-16.07 -17.157,-23.57 -56.261,24.05 -111.625,56.78 -161.086,94.31 l 0.172,0.27 c -78.293,59.37 -141.781,130.73 -170.695,198.6 z"
         id="path572"
         inkscape:connector-curvature="0" />
    </clipPath>
    <linearGradient
       x1="0"
       y1="0"
       x2="1"
       y2="0"
       gradientUnits="userSpaceOnUse"
       gradientTransform="matrix(82.0871,-131.01,135.351,85.5351,412.632,5150.9)"
       spreadMethod="pad"
       id="linearGradient574">
      <stop
         style="stop-opacity:1;stop-color:#ff8183"
         offset="0"
         id="stop576" />
      <stop
         style="stop-opacity:1;stop-color:#ff1e28"
         offset="1"
         id="stop578" />
    </linearGradient>
    <clipPath
       clipPathUnits="userSpaceOnUse"
       id="clipPath592">
      <path
         d="m 931.047,4656.9 0.203,0.19 c 29.219,4.19 52.355,14.46 68.352,30.03 l -12.301,-11.5 c -15.746,-14.1 -37.793,-23.44 -65.223,-27.36 3.02,2.8 6.024,5.68 8.969,8.64 z"
         id="path594"
         inkscape:connector-curvature="0" />
    </clipPath>
    <linearGradient
       x1="0"
       y1="0"
       x2="1"
       y2="0"
       gradientUnits="userSpaceOnUse"
       gradientTransform="matrix(-76.8962,-1.27048,-1.27048,-76.0037,999.287,4668.32)"
       spreadMethod="pad"
       id="linearGradient596">
      <stop
         style="stop-opacity:1;stop-color:#c9e757"
         offset="0"
         id="stop598" />
      <stop
         style="stop-opacity:1;stop-color:#c9e757"
         offset="0.00063959"
         id="stop600" />
      <stop
         style="stop-opacity:1;stop-color:#7cab12"
         offset="1"
         id="stop602" />
    </linearGradient>
    <clipPath
       clipPathUnits="userSpaceOnUse"
       id="clipPath410">
      <path
         d="m 4980.59,4583.3 c -1.01,0 -2.05,0 -3.06,0.01 -112.17,0.92 -212.15,51.94 -279.05,131.6 1.8,-1.88 3.64,-3.76 5.51,-5.62 64.57,-64.29 142.03,-71.08 224.59,-71.08 11.05,0 22.18,0.12 33.39,0.24 11.21,0.13 22.5,0.25 33.83,0.25 45.7,0 92.27,-1.98 138.5,-13.88 l -14.12,-14.11 c -43.07,-17.68 -90.2,-27.41 -139.59,-27.41"
         id="path412"
         inkscape:connector-curvature="0" />
    </clipPath>
    <linearGradient
       x1="0"
       y1="0"
       x2="1"
       y2="0"
       gradientUnits="userSpaceOnUse"
       gradientTransform="matrix(-401.905,-401.905,401.905,-401.905,4768.13,4748.66)"
       spreadMethod="pad"
       id="linearGradient414">
      <stop
         style="stop-opacity:1;stop-color:#a59d8b"
         offset="0"
         id="stop416" />
      <stop
         style="stop-opacity:1;stop-color:#b7b0a0"
         offset="0.85147689"
         id="stop418" />
      <stop
         style="stop-opacity:1;stop-color:#b7b0a0"
         offset="1"
         id="stop420" />
    </linearGradient>
    <clipPath
       clipPathUnits="userSpaceOnUse"
       id="clipPath428">
      <path
         d="m 4637.51,4813.24 c -39.54,97.16 -37.32,210.09 14.31,309.1 l 62.9,62.89 c 0,0 -138.47,-196.43 -77.21,-371.87 0,-0.04 0,-0.08 0,-0.12"
         id="path430"
         inkscape:connector-curvature="0" />
    </clipPath>
    <clipPath
       clipPathUnits="userSpaceOnUse"
       id="clipPath130">
      <path
         d="m 1791.77,3712.35 1.63,2.54 -1.63,-2.54 z"
         id="path132"
         inkscape:connector-curvature="0" />
    </clipPath>
    <linearGradient
       x1="0"
       y1="0"
       x2="1"
       y2="0"
       gradientUnits="userSpaceOnUse"
       gradientTransform="matrix(-285.051,1062.33,1062.33,285.051,1985.15,2995.95)"
       spreadMethod="pad"
       id="linearGradient134">
      <stop
         style="stop-opacity:1;stop-color:#00bfbb"
         offset="0"
         id="stop136" />
      <stop
         style="stop-opacity:1;stop-color:#006fa2"
         offset="0.99991001"
         id="stop138" />
      <stop
         style="stop-opacity:1;stop-color:#006fa2"
         offset="1"
         id="stop140" />
    </linearGradient>
    <clipPath
       clipPathUnits="userSpaceOnUse"
       id="clipPath1072">
      <path
         d="m 364.637,2225.04 c 1.593,4.92 5.129,8.73 11.246,11.25 l -11.246,-11.25"
         id="path1074"
         inkscape:connector-curvature="0" />
    </clipPath>
    <linearGradient
       x1="0"
       y1="0"
       x2="1"
       y2="0"
       gradientUnits="userSpaceOnUse"
       gradientTransform="matrix(-403.333,-403.333,-403.333,403.333,468.306,1856.25)"
       spreadMethod="pad"
       id="linearGradient1076">
      <stop
         style="stop-opacity:1;stop-color:#e1ded8"
         offset="0"
         id="stop1078" />
      <stop
         style="stop-opacity:1;stop-color:#f4f1ed"
         offset="0.85147689"
         id="stop1080" />
      <stop
         style="stop-opacity:1;stop-color:#f4f1ed"
         offset="1"
         id="stop1082" />
    </linearGradient>
    <clipPath
       clipPathUnits="userSpaceOnUse"
       id="clipPath874">
      <path
         d="m 2342.85,1771.98 c -0.03,0.08 -0.06,0.16 -0.09,0.25 9.86,7.59 19.33,15.65 28.38,24.16 3.94,1.53 7.87,3.05 11.91,4.68 l -20.45,-20.44 c -6.82,-3.18 -13.77,-6.25 -19.75,-8.65 m -549.37,496.32 c 0.34,1.66 0.75,3.47 1.17,5.2 l 6.12,6.12 c -2.5,-3.73 -4.93,-7.5 -7.29,-11.32"
         id="path876"
         inkscape:connector-curvature="0" />
    </clipPath>
    <linearGradient
       x1="0"
       y1="0"
       x2="1"
       y2="0"
       gradientUnits="userSpaceOnUse"
       gradientTransform="matrix(-425.793,-425.793,-425.793,425.793,1925.35,1873.77)"
       spreadMethod="pad"
       id="linearGradient878">
      <stop
         style="stop-opacity:1;stop-color:#e1ded8"
         offset="0"
         id="stop880" />
      <stop
         style="stop-opacity:1;stop-color:#f4f1ed"
         offset="0.85147689"
         id="stop882" />
      <stop
         style="stop-opacity:1;stop-color:#f4f1ed"
         offset="1"
         id="stop884" />
    </linearGradient>
    <clipPath
       clipPathUnits="userSpaceOnUse"
       id="clipPath892">
      <path
         d="m 1743.8,2140.32 c 1.13,8.04 2.57,16.8 3.91,23.78 -2.3,-1.1 -5.59,-2.35 -8.15,-2.86 4.87,9.54 12.09,21.86 17.91,30.98 -5.75,-16.8 -10.33,-34.13 -13.67,-51.9"
         id="path894"
         inkscape:connector-curvature="0" />
    </clipPath>
    <linearGradient
       x1="0"
       y1="0"
       x2="1"
       y2="0"
       gradientUnits="userSpaceOnUse"
       gradientTransform="matrix(-425.793,-425.793,-425.793,425.793,1925.35,1873.77)"
       spreadMethod="pad"
       id="linearGradient896">
      <stop
         style="stop-opacity:1;stop-color:#5b4738"
         offset="0"
         id="stop898" />
      <stop
         style="stop-opacity:1;stop-color:#6d5a4c"
         offset="0.85147689"
         id="stop900" />
      <stop
         style="stop-opacity:1;stop-color:#6d5a4c"
         offset="1"
         id="stop902" />
    </linearGradient>
    <clipPath
       clipPathUnits="userSpaceOnUse"
       id="clipPath910">
      <path
         d="m 1783.82,2252.76 c -1.68,1.26 -3.47,2.96 -5.12,4.79 l 15.95,15.95 c -0.42,-1.73 -0.83,-3.54 -1.17,-5.2 -2.75,-4.44 -5.41,-8.95 -7.98,-13.51 -0.6,-0.7 -1.16,-1.39 -1.68,-2.03"
         id="path912"
         inkscape:connector-curvature="0" />
    </clipPath>
    <clipPath
       clipPathUnits="userSpaceOnUse"
       id="clipPath928">
      <path
         d="m 1742.5,2191.63 c 2.7,8.06 6.75,18.63 10,26.4 -0.98,3.06 -1.43,7.36 -1.55,10.62 3.82,2.72 9.34,5.77 13.56,7.85 5.29,3.59 11.68,9.36 17.22,12.53 0.03,-0.28 0.07,-0.58 0.11,-0.89 -4.72,-8.79 -9.1,-17.79 -13.12,-26.98 -2.94,-1.52 -5.92,-2.99 -8.5,-4.18 -5.88,-7.2 -12.97,-17.4 -17.72,-25.35"
         id="path930"
         inkscape:connector-curvature="0" />
    </clipPath>
    <clipPath
       clipPathUnits="userSpaceOnUse"
       id="clipPath946">
      <path
         d="m 2262.59,1724.99 c 28.75,12.44 55.66,28.36 80.17,47.24 0.03,-0.09 0.06,-0.17 0.09,-0.25 5.98,2.4 12.93,5.47 19.75,8.65 l -13.45,-13.46 c -2.44,-1.68 -4.8,-3.29 -7.03,-4.79 -1.39,-2.08 -3.43,-4.82 -5.21,-6.67 l -0.12,-0.07 -4.2,-2.05 c -9.11,-4.42 -20.23,-9.06 -28.98,-12.29 -12.18,-4.86 -27.59,-11.19 -41.02,-16.31"
         id="path948"
         inkscape:connector-curvature="0" />
    </clipPath>
  </defs>
  <sodipodi:namedview
     id="base"
     pagecolor="#ffffff"
     bordercolor="#666666"
     borderopacity="1.0"
     inkscape:pageopacity="0.0"
     inkscape:pageshadow="2"
     inkscape:zoom="0.98994949"
     inkscape:cx="390.74194"
     inkscape:cy="-64.941041"
     inkscape:document-units="px"
     inkscape:current-layer="layer1"
     showgrid="false"
     units="px"
     inkscape:window-width="1920"
     inkscape:window-height="1015"
     inkscape:window-x="1280"
     inkscape:window-y="0"
     inkscape:window-maximized="1"
     showborder="false"
     showguides="true"
     inkscape:guide-bbox="true">
    <sodipodi:guide
       position="125.2589,357.59402"
       orientation="0,1"
       id="guide6205" />
  </sodipodi:namedview>
  <metadata
     id="metadata5148">
    <rdf:RDF>
      <cc:Work
         rdf:about="">
        <dc:format>image/svg+xml</dc:format>
        <dc:type
           rdf:resource="http://purl.org/dc/dcmitype/StillImage" />
        <dc:title></dc:title>
      </cc:Work>
    </rdf:RDF>
  </metadata>
  <g
     inkscape:label="Layer 1"
     inkscape:groupmode="layer"
     id="layer1"
     transform="translate(0,-950.22216)">
    <g
       transform="matrix(1.25,0,0,-1.25,-40.297879,1087.9032)"
       id="g5065">
      <path
         d="M 89.6531,70.6559 C 95.5727,67.284 100.231,60.1141 100.663,50.6441 100.834,46.341 100.112,41.759 98.4059,37.218 c 0.7035,0.555 1.3886,1.1351 2.0531,1.7359 1.441,4.7602 1.857,9.491 1.356,13.8691 -1.167,9.2981 -6.2705,16.075 -12.3853,18.9829 -6.0637,2.8 -12.4156,1.582 -16.2504,-2.4239 l -0.0074,0.0129 c 3.4,4.4199 9.6441,6.2949 15.9957,4.1231 6.4125,-2.2942 12.2454,-8.5461 14.3154,-17.7961 0.918,-4.209 0.999,-8.8457 0.107,-13.618 0.598,0.6699 1.174,1.3582 1.727,2.0672 0.592,4.9391 0.177,9.6707 -1.078,13.8969 -2.763,8.9531 -8.9812,14.7531 -15.4925,16.5441 -6.4543,1.7117 -12.5016,-0.5961 -15.582,-5.207 l -0.0082,0.0129 c 2.5804,4.941 8.3964,7.8949 15.0355,6.834 6.7148,-1.1372 13.5412,-6.3059 17.1872,-15.0391 1.637,-4.0039 2.507,-8.582 2.443,-13.4508 0.485,0.7801 0.944,1.577 1.375,2.3918 -0.271,4.9711 -1.503,9.5602 -3.482,13.4981 C 101.44,71.991 94.3109,76.6219 87.5875,77.2559 80.9324,77.8219 75.3805,74.5 73.148,69.4238 l -0.0125,0.0082 c 1.6825,5.316 6.909,9.2121 13.62,9.3418 6.8238,0.0242 14.4305,-3.8578 19.5375,-11.8238 2.311,-3.6641 3.967,-8.0141 4.75,-12.8199 0.339,0.8457 0.65,1.709 0.933,2.5828 -1.131,4.8519 -3.142,9.1633 -5.775,12.698 C 100.543,76.8801 92.7301,80.1871 85.9867,79.6602 79.3359,79.052 74.4438,74.825 73.1254,69.4391 l -0.0133,0.0097 c 0.7359,5.5242 5.193,10.2813 11.7922,11.5614 6.7012,1.2207 14.8969,-1.3422 21.2927,-8.2543 2.929,-3.2301 5.275,-7.075 6.915,-11.7411 0.179,0.8731 0.328,1.7551 0.451,2.6481 -1.956,4.575 -4.682,8.468 -7.883,11.5012 -6.8695,6.3738 -15.1394,8.275 -21.6874,6.5847 C 77.5504,79.9969 73.4652,74.9852 73.1031,69.4539 l -0.0156,0.0039 c -0.2352,5.568 3.327,11.0262 9.6051,13.432 6.3871,2.3661 14.8879,1.2942 22.4034,-4.4296 3.425,-2.6442 6.411,-6.0383 8.837,-10.3442 0.01,0.3899 0.017,0.782 0.017,1.1738 0,0.5122 -0.012,1.0243 -0.031,1.5332 -2.721,4.1489 -6.081,7.4918 -9.752,9.9168 -7.8701,5.0852 -16.3647,5.5383 -22.5014,2.7192 -6.0601,-2.8281 -9.1922,-8.4879 -8.5894,-14 l -0.0141,0.0039 c -1.1984,5.4422 1.3797,11.4262 7.125,14.8941 5.9043,3.4371 14.4375,3.861 22.8329,-0.473 3.819,-2.0231 7.428,-4.9539 10.507,-8.709 -0.132,0.9109 -0.293,1.8102 -0.484,2.7012 -3.401,3.6218 -7.293,6.3386 -11.334,8.0918 -8.6332,3.6422 -17.0531,2.6 -22.6297,-1.2282 -5.4773,-3.8367 -7.5805,-9.9539 -6.0309,-15.275 l -0.0031,0 -0.0121,-7e-4 c -2.1234,5.1519 -0.6469,11.4918 4.434,15.905 5.1933,4.4067 13.5601,6.2719 22.5668,3.4969 4.112,-1.3269 8.174,-3.5879 11.861,-6.7512 -0.288,0.8723 -0.606,1.7313 -0.95,2.5762 -3.979,2.9762 -8.283,4.9762 -12.5645,6.0008 -9.1348,2.0863 -17.2457,-0.402 -22.0719,-5.141 -4.7047,-4.7367 -5.7359,-11.118 -3.2856,-16.0887 l -0.0167,-0.0043 c -2.986,4.7051 -2.6329,11.2063 1.6042,16.4332 4.3497,5.2418 12.2665,8.532 21.6165,7.3629 4.279,-0.5937 8.666,-2.1129 12.841,-4.584 -0.435,0.8082 -0.9,1.6 -1.388,2.3742 -4.429,2.2348 -9.0081,3.4571 -13.398,3.72 C 84.9246,95.2328 77.3688,91.3738 73.4379,85.8699 69.6035,80.393 69.7207,73.927 72.9961,69.457 l -0.016,-0.007 c -3.7567,4.116 -4.5328,10.584 -1.2735,16.459 3.3731,5.918 10.5731,10.5609 20.0106,11.0058 4.3086,0.1571 8.8858,-0.575 13.4198,-2.2769 -0.568,0.718 -1.159,1.4152 -1.773,2.0922 -4.7445,1.4277 -9.4617,1.834 -13.8234,1.3347 C 80.2426,96.9 73.4707,91.7891 70.5551,85.6852 67.7574,79.627 68.968,73.2781 72.9691,69.4441 L 72.9563,69.434 c -4.4149,3.4019 -6.3032,9.6359 -4.1118,15.9898 2.295,6.4133 8.5785,12.2352 17.795,14.3114 4.2121,0.9018 8.8378,0.9778 13.5935,0.0918 -0.6787,0.603 -1.3779,1.185 -2.0978,1.745 -4.918,0.583 -9.6309,0.168 -13.8399,-1.083 C 75.3098,97.734 69.5625,91.5199 67.75,85.0039 66.0465,78.5488 68.3414,72.509 72.9469,69.4281 l -0.0145,-0.009 c -4.9347,2.5821 -7.884,8.3918 -6.8219,15.0278 1.1375,6.7152 6.3067,13.541 15.0383,17.1841 3.9875,1.63 8.5305,2.504 13.3707,2.451 -0.7875,0.486 -1.5914,0.944 -2.414,1.377 -4.9313,-0.286 -9.4821,-1.524 -13.395,-3.492 C 70.3727,97.6949 65.7406,90.5648 65.1051,83.8418 64.5391,77.193 67.8559,71.6441 72.9281,69.4102 l -0.0097,-0.0153 c -5.311,1.6871 -9.2028,6.9082 -9.3321,13.616 -0.0215,6.8219 3.8422,14.4262 11.8262,19.5351 3.6297,2.292 7.9426,3.95 12.709,4.748 -0.836,0.329 -1.6856,0.631 -2.5477,0.908 -4.816,-1.135 -9.0968,-3.136 -12.623,-5.747 C 65.4828,96.798 62.1648,88.9898 62.7012,82.2398 63.309,75.5949 67.5313,70.707 72.9121,69.3859 l -0.0094,-0.014 C 67.3813,70.1102 62.6324,74.557 61.35,81.1602 c -1.2187,6.7 1.2852,14.8578 8.2535,21.2898 3.1832,2.881 7.1387,5.259 11.6875,6.874 -0.8871,0.18 -1.7875,0.329 -2.6969,0.452 -4.532,-1.953 -8.3898,-4.661 -11.3972,-7.846 C 60.7699,95.0602 58.9234,86.7941 60.6137,80.2461 62.3645,73.8078 67.3711,69.7262 72.9,69.3609 l -0.0035,-0.016 c -5.5664,-0.2328 -11.0082,3.325 -13.4258,9.602 -2.3637,6.3859 -1.3082,14.8769 4.4297,22.3991 2.6234,3.386 6.0914,6.41 10.2769,8.785 -0.3605,0.01 -0.721,0.014 -1.0828,0.014 -0.5531,0 -1.1047,-0.014 -1.6531,-0.035 -4.1051,-2.71 -7.4137,-6.049 -9.8226,-9.691 C 56.5445,92.534 56.0945,84.0691 58.902,77.9211 61.7379,71.8789 67.3855,68.734 72.8938,69.334 l -0.0047,-0.016 c -5.4399,-1.1961 -11.42,1.38 -14.8848,7.123 -3.4445,5.8711 -3.8379,14.4309 0.4707,22.8258 1.9992,3.7992 4.9113,7.3782 8.6406,10.4422 -0.9101,-0.134 -1.8105,-0.298 -2.6984,-0.491 -3.593,-3.386 -6.2918,-7.252 -8.0289,-11.261 -3.6496,-8.6429 -2.5977,-17.0582 1.2344,-22.625 3.8464,-5.4511 9.9476,-7.5742 15.2664,-6.0261 l 0.0035,-0.0149 c -5.152,-2.125 -11.4871,-0.65 -15.8985,4.425 -4.4062,5.193 -6.3211,13.534 -3.5023,22.5641 1.3078,4.0809 3.5391,8.1079 6.6629,11.7709 -0.8613,-0.286 -1.709,-0.602 -2.5426,-0.944 -2.9437,-3.956 -4.9266,-8.2289 -5.9441,-12.4808 -2.116,-9.1723 0.3941,-17.2453 5.1429,-22.0684 4.7301,-4.693 11.1125,-5.7277 16.0844,-3.2777 L 72.9,69.2641 c -4.7051,-2.986 -11.2012,-2.634 -16.4277,1.5968 -5.245,4.3391 -8.5696,12.2051 -7.3672,21.6102 0.5808,4.2379 2.0722,8.5879 4.5086,12.7409 C 52.8027,104.769 52.009,104.3 51.234,103.809 49.0445,99.4141 47.8574,94.8781 47.5941,90.525 47.1199,81.1559 50.9902,73.616 56.4926,69.6871 61.9723,65.8828 68.4313,65.977 72.9,69.252 l 0.0086,-0.0141 c -4.1141,-3.759 -10.575,-4.5488 -16.4535,-1.2801 -5.9176,3.3621 -10.5547,10.5453 -11.0086,19.9992 -0.1613,4.2782 0.5629,8.8219 2.2465,13.331 -0.7188,-0.572 -1.418,-1.163 -2.0969,-1.781 -1.4043,-4.7101 -1.8051,-9.3929 -1.2996,-13.7281 1.1601,-9.3098 6.2715,-16.066 12.3836,-18.973 6.0582,-2.7957 12.4019,-1.5809 16.234,2.423 l 0.0101,-0.0148 C 69.5254,64.7988 63.3008,62.9059 56.943,65.0949 50.532,67.3859 44.7172,73.6461 42.6266,82.8762 41.727,87.057 41.643,91.6488 42.5098,96.373 41.9086,95.6961 41.3285,94.9988 40.7742,94.282 40.2113,89.3949 40.6305,84.7141 41.873,80.532 44.6344,71.584 50.8473,65.798 57.3637,64.0012 63.8141,62.2988 69.852,64.5988 72.9301,69.207 l 0.0117,-0.0129 c -2.5797,-4.939 -8.3832,-7.8863 -15.027,-6.8339 -6.7121,1.1429 -13.5253,6.2859 -17.1878,15.0339 -1.6102,3.9477 -2.4942,8.4539 -2.4641,13.2579 -0.4703,-0.7668 -0.916,-1.552 -1.3371,-2.3512 0.2914,-4.909 1.5156,-9.4449 3.4652,-13.3477 4.2903,-8.3351 11.3906,-12.957 18.1289,-13.598 6.6602,-0.5801 12.1989,2.759 14.4297,7.8328 l 0.0137,-0.0078 c -1.682,-5.3141 -6.8836,-9.225 -13.6117,-9.343 -6.8078,-0.0492 -14.4184,3.8891 -19.5387,11.818 -2.2774,3.6379 -3.9211,7.9328 -4.7176,12.6719 -0.3402,-0.8579 -0.6496,-1.7309 -0.9316,-2.6141 1.1461,-4.7801 3.1492,-9.0238 5.7429,-12.5199 5.661,-7.4821 13.475,-10.7711 20.2149,-10.241 6.6473,0.6082 11.5355,4.8359 12.8512,10.221 l 0.0132,-0.007 C 72.2539,63.6398 67.8086,58.8859 61.2043,57.6 c -6.6949,-1.2301 -14.8746,1.273 -21.2926,8.2461 -2.8769,3.168 -5.2406,7.1219 -6.8469,11.6598 -0.1816,-0.895 -0.3328,-1.7981 -0.457,-2.7129 1.9543,-4.5172 4.6578,-8.361 7.8215,-11.3532 6.8758,-6.3878 15.1426,-8.2699 21.6875,-6.5777 6.4508,1.7508 10.5211,6.7688 10.8816,12.302 l 0.0145,-0.0039 C 73.2512,63.5891 69.6836,58.1441 63.418,55.7199 57.0395,53.3449 48.5473,54.391 41.0145,60.1418 c -3.3743,2.6141 -6.3891,6.066 -8.7622,10.2332 -0.0078,-0.3621 -0.014,-0.723 -0.014,-1.0852 0,-0.5386 0.014,-1.0757 0.0336,-1.6117 2.709,-4.1051 6.0383,-7.4191 9.6711,-9.816 7.8808,-5.0953 16.3468,-5.525 22.5019,-2.7101 6.0375,2.8468 9.186,8.4929 8.5781,14.0058 l 0.0165,-0.0027 c 1.2023,-5.443 -1.3442,-11.441 -7.1161,-14.9012 -5.8691,-3.4488 -14.4144,-3.893 -22.8304,0.4629 -3.7809,1.9902 -7.3532,4.8711 -10.4133,8.5672 0.1312,-0.8922 0.2914,-1.775 0.4801,-2.6449 3.3816,-3.5821 7.2429,-6.2743 11.2445,-8.0071 8.6449,-3.648 17.0566,-2.6019 22.6293,1.2399 5.4512,3.8519 7.5703,9.9609 6.0156,15.2832 l 0.0156,0.0019 c 2.1309,-5.1519 0.6657,-11.5011 -4.4195,-15.9129 -5.182,-4.414 -13.5199,-6.3363 -22.564,-3.5082 -4.0809,1.3071 -8.1083,3.5512 -11.7723,6.684 0.2902,-0.8719 0.6066,-1.7281 0.9523,-2.5719 3.9539,-2.9429 8.2282,-4.925 12.4727,-5.9359 9.1473,-2.0941 17.2609,0.3988 22.0707,5.1488 4.7125,4.743 5.7289,11.1262 3.2707,16.0993 l 0.0141,0.0039 C 76.084,64.4578 75.7172,57.957 71.5035,52.723 67.1449,47.477 59.2883,44.1328 49.8883,45.35 c -4.2465,0.577 -8.6008,2.0801 -12.7512,4.525 0.4336,-0.7988 0.8957,-1.5828 1.377,-2.3512 4.4101,-2.2129 8.9609,-3.4269 13.3195,-3.6847 9.3707,-0.4719 16.916,3.4 20.8402,8.9058 3.8063,5.484 3.7102,11.95 0.4293,16.4211 l 0.0114,0.007 C 76.8793,65.059 77.6664,58.593 74.4047,52.7059 71.0434,46.784 63.8258,42.1602 54.4004,41.6898 c -4.2945,-0.1546 -8.8414,0.5692 -13.35,2.2532 0.5656,-0.7149 1.1551,-1.409 1.7676,-2.0828 4.7218,-1.4153 9.416,-1.8192 13.759,-1.3192 9.3433,1.1508 16.0679,6.2852 18.98,12.3891 2.795,6.064 1.5762,12.4168 -2.4324,16.2488 l 0.0109,0.0082 C 77.5582,65.791 79.4563,59.557 77.2668,53.1918 74.9848,46.777 68.7289,40.9602 59.477,38.8711 55.2895,37.9648 50.6719,37.8969 45.9211,38.784 c 0.6918,-0.6168 1.4047,-1.211 2.1375,-1.7801 4.891,-0.5641 9.5723,-0.132 13.7637,1.1121 8.9535,2.7809 14.7386,8.9711 16.539,15.4969 1.727,6.4641 -0.6015,12.5019 -5.2168,15.5801 l 0.0133,0.0109 c 4.9445,-2.5777 7.8949,-8.3859 6.8438,-15.0348 -1.1422,-6.7152 -6.2852,-13.53 -15.0332,-17.1941 -3.9664,-1.618 -8.4938,-2.502 -13.318,-2.4652 0.768,-0.4739 1.5547,-0.9239 2.3535,-1.3489 4.941,0.2832 9.4984,1.5121 13.4024,3.4782 8.3714,4.2789 12.9593,11.3949 13.5992,18.1347 0.5554,6.6461 -2.7645,12.2071 -7.841,14.4383 l 0.0066,0.0109 c 5.3187,-1.6781 9.2336,-6.8851 9.3527,-13.6179 0.0403,-6.8102 -3.8554,-14.434 -11.8207,-19.5422 -3.634,-2.293 -7.9402,-3.9508 -12.6996,-4.7508 0.832,-0.3301 1.6766,-0.6332 2.5332,-0.9082 4.8196,1.134 9.1039,3.1383 12.6278,5.7512 7.4671,5.659 10.782,13.4789 10.2437,20.2211 C 82.8207,63.0398 78.568,67.9191 73.177,69.232 l 0.0089,0.0141 C 78.7145,68.5141 83.4762,64.057 84.7582,57.4578 85.9887,50.759 83.468,42.5738 76.5113,36.159 73.3258,33.2668 69.352,30.8879 64.7855,29.2801 c 0.8875,-0.184 1.7868,-0.3371 2.6954,-0.461 4.548,1.9559 8.4199,4.6719 11.4379,7.8567 6.3707,6.8711 8.2777,15.1492 6.5769,21.6941 -1.7551,6.443 -6.7707,10.5281 -12.3059,10.8871 l 0.0036,0.0129 c 5.5707,0.2403 11.0238,-3.3371 13.4453,-9.5988 2.375,-6.3832 1.2738,-14.884 -4.4258,-22.4082 -2.6152,-3.4039 -6.059,-6.3969 -10.2992,-8.8098 0.3914,-0.0121 0.7859,-0.0203 1.1808,-0.0203 0.5223,0 1.0395,0.0141 1.5571,0.032 4.1175,2.7161 7.4308,6.0653 9.841,9.7262 5.1347,7.886 5.5246,16.3551 2.7129,22.5039 -2.8395,6.0492 -8.4961,9.1942 -14.0102,8.5852 l 0.0024,0.0179 c 5.4449,1.202 11.4449,-1.3582 14.9062,-7.1242 3.441,-5.8769 3.8805,-14.4047 -0.4672,-22.8347 -2.0101,-3.8051 -4.9222,-7.4039 -8.6601,-10.4821 0.9164,0.1321 1.8246,0.295 2.7203,0.486 3.5945,3.3941 6.2828,7.2769 8.0254,11.3082 3.6382,8.634 2.5984,17.0636 -1.2364,22.634 -3.8457,5.4597 -9.9609,7.5777 -15.2863,6.0218 l 0.0012,0.002 -0.0031,0.0121 c 5.1535,2.132 11.4941,0.6508 15.9168,-4.425 4.4082,-5.1922 6.321,-13.5113 3.5031,-22.5691 -1.3211,-4.104 -3.5684,-8.1598 -6.7227,-11.8442 0.8824,0.2891 1.7473,0.6082 2.5992,0.9551 2.9575,3.9699 4.934,8.2652 5.9497,12.5422 2.0839,9.1359 -0.4083,17.2488 -5.1477,22.075 -4.741,4.7039 -11.1266,5.7328 -16.1008,3.2777 l -0.0019,0.0152 c 4.7046,2.9918 11.2054,2.6348 16.4429,-1.5941 5.2426,-4.3488 8.545,-12.2527 7.368,-21.6211 -0.5965,-4.2808 -2.1051,-8.666 -4.5672,-12.8379 0.7957,0.427 1.575,0.8832 2.3379,1.3629 2.2449,4.4363 3.4738,9.0242 3.7402,13.4211 C 99.0059,57.4828 95.1313,65 89.6145,68.925 84.1332,72.7602 77.6609,72.6398 73.1914,69.3578 l -0.0055,0.016 c 4.1149,3.7621 10.5809,4.5461 16.4672,1.2821"
         style="fill:#00aca4;fill-opacity:1;fill-rule:nonzero;stroke:none"
         id="path1514"
         inkscape:connector-curvature="0" />
    </g>
  </g>
</svg>
